<svg width="311" height="108" viewBox="0 0 311 108" fill="none" xmlns="http://www.w3.org/2000/svg">
<path d="M87.5874 75.9773C87.5874 70.9108 87.5874 59.7617 87.5874 52.9791M87.6742 95.2527C87.6537 96.3812 87.2736 97.5982 86.6275 98.2796C85.1631 99.8243 83.2714 100.022 82.1601 100.034H13.4216C13.1815 100.037 12.5715 99.906 12.0526 99.3557C11.5337 98.8054 11.3869 97.5221 11.3784 96.9492V54.2713V12.4878C11.3387 11.4559 11.9554 9.39199 14.7393 9.39199C17.5233 9.39199 59.857 9.39199 80.6758 9.39199C81.9353 9.36194 84.6843 9.6458 85.903 10.8645C86.4396 11.3628 87.5874 12.9064 87.5874 15.2519C87.5874 15.5785 87.5874 16.6181 87.5874 18.2179" stroke="#1E3F66" stroke-linecap="round"/>
<rect x="89.6515" y="40.9527" width="2.95048" height="27.5873" transform="rotate(30 89.6515 40.9527)" fill="#1E3F66"/>
<path d="M92.7847 10.9738C94.1328 8.20407 97.5545 7.16899 100.211 8.72769L115.718 17.8263C118.423 19.4133 119.16 22.9931 117.3 25.5187L104.308 43.1662C102.704 45.3457 99.7119 45.9605 97.3775 44.591L85.2954 37.5031C82.9152 36.1063 82.0106 33.1135 83.2183 30.632L92.7847 10.9738ZM110.424 20.1027C109.915 19.8033 109.259 19.9792 108.968 20.4933L99.0884 37.9591C98.8045 38.4611 98.9753 39.0982 99.4722 39.3908L100.23 39.8371C100.728 40.1298 101.369 39.9688 101.669 39.4757L112.111 22.34C112.418 21.8361 112.253 21.1784 111.745 20.8791L110.424 20.1027ZM104.631 16.6945C104.122 16.3949 103.466 16.571 103.175 17.0851L93.2954 34.5509C93.0114 35.053 93.1821 35.6901 93.6792 35.9826L94.437 36.4289C94.9347 36.7215 95.5751 36.5605 95.8755 36.0675L106.318 18.9318C106.625 18.4278 106.459 17.7701 105.951 17.4709L104.631 16.6945ZM98.8384 13.2863C98.3293 12.9868 97.6733 13.1629 97.3823 13.6769L87.5015 31.1427C87.2175 31.6448 87.3891 32.2819 87.8862 32.5744L88.6441 33.0207C89.1417 33.3132 89.7821 33.1523 90.0825 32.6593L100.524 15.5236C100.831 15.0196 100.666 14.3619 100.158 14.0627L98.8384 13.2863Z" fill="#5C728C"/>
<path d="M9.84442 10.0471C9.84442 8.94249 10.7399 8.04706 11.8444 8.04706H80.9545C83.7159 8.04706 85.9545 10.2856 85.9545 13.0471V93.6464C85.9545 96.4078 83.7159 98.6464 80.9545 98.6464H11.8444C10.7399 98.6464 9.84442 97.751 9.84442 96.6464V10.0471Z" fill="#FFDA7C"/>
<circle cx="47.8995" cy="46.1579" r="22.9216" fill="#51667E" stroke="#1E3F66" stroke-width="5.28535"/>
<circle cx="47.8995" cy="46.1578" r="25.3001" stroke="#5C728C" stroke-width="0.528535"/>
<path d="M33.288 45.7998C32.4025 40.7282 35.4012 35.6029 37.0112 34.7308C43.3507 29.1962 55.426 33.9258 58.8474 36.844C61.0232 38.6998 62.6712 42.0766 62.6712 45.7998C62.6712 48.8186 62.6712 54.8563 56.231 58.5795C49.7909 62.3027 44.9608 58.6801 42.747 55.0575C40.5332 51.4349 34.3949 52.1393 33.288 45.7998Z" fill="#F7F2EA"/>
<ellipse cx="51.4745" cy="45.4754" rx="7.1144" ry="7.17647" fill="#FFD670"/>
<path d="M26.6495 81.6142C26.9145 81.6142 27.2195 81.6517 27.5645 81.7267C27.9145 81.8017 28.1695 81.8817 28.3295 81.9667V83.4217H28.0445C27.5845 82.6367 26.9745 82.2442 26.2145 82.2442C25.8845 82.2442 25.582 82.3417 25.307 82.5367C25.037 82.7267 24.8245 82.9942 24.6695 83.3392C24.5145 83.6792 24.437 84.0617 24.437 84.4867C24.437 84.9767 24.512 85.4242 24.662 85.8292C24.817 86.2342 25.0495 86.5592 25.3595 86.8042C25.6745 87.0492 26.062 87.1717 26.522 87.1717C26.947 87.1717 27.557 86.8517 28.352 86.2117L28.577 86.5717L27.197 87.6442C27.012 87.7092 26.832 87.7517 26.657 87.7717C26.487 87.7967 26.302 87.8092 26.102 87.8092C25.577 87.8092 25.112 87.6817 24.707 87.4267C24.302 87.1717 23.987 86.8217 23.762 86.3767C23.537 85.9267 23.4245 85.4167 23.4245 84.8467C23.4245 84.2617 23.5945 83.7217 23.9345 83.2267C24.2745 82.7267 24.697 82.3342 25.202 82.0492C25.707 81.7592 26.1895 81.6142 26.6495 81.6142ZM33.1768 81.6142C33.7068 81.6142 34.1743 81.7417 34.5793 81.9967C34.9893 82.2517 35.3068 82.6042 35.5318 83.0542C35.7568 83.5042 35.8693 84.0142 35.8693 84.5842C35.8693 85.1692 35.6993 85.7092 35.3593 86.2042C35.0193 86.6992 34.5968 87.0917 34.0918 87.3817C33.5868 87.6667 33.1043 87.8092 32.6443 87.8092C32.1143 87.8092 31.6443 87.6842 31.2343 87.4342C30.8293 87.1792 30.5143 86.8267 30.2893 86.3767C30.0643 85.9267 29.9518 85.4167 29.9518 84.8467C29.9518 84.2617 30.1218 83.7217 30.4618 83.2267C30.8018 82.7267 31.2243 82.3342 31.7293 82.0492C32.2343 81.7592 32.7168 81.6142 33.1768 81.6142ZM32.7418 82.2442C32.4118 82.2442 32.1093 82.3417 31.8343 82.5367C31.5643 82.7267 31.3518 82.9942 31.1968 83.3392C31.0418 83.6792 30.9643 84.0617 30.9643 84.4867C30.9643 84.9767 31.0418 85.4267 31.1968 85.8367C31.3518 86.2417 31.5868 86.5667 31.9018 86.8117C32.2218 87.0567 32.6143 87.1792 33.0793 87.1792C33.4093 87.1792 33.7093 87.0842 33.9793 86.8942C34.2543 86.6992 34.4693 86.4317 34.6243 86.0917C34.7793 85.7467 34.8568 85.3617 34.8568 84.9367C34.8568 84.4417 34.7793 83.9917 34.6243 83.5867C34.4693 83.1767 34.2343 82.8517 33.9193 82.6117C33.6043 82.3667 33.2118 82.2442 32.7418 82.2442ZM40.5172 81.6142C41.0472 81.6142 41.5147 81.7417 41.9197 81.9967C42.3297 82.2517 42.6472 82.6042 42.8722 83.0542C43.0972 83.5042 43.2097 84.0142 43.2097 84.5842C43.2097 85.1692 43.0397 85.7092 42.6997 86.2042C42.3597 86.6992 41.9372 87.0917 41.4322 87.3817C40.9272 87.6667 40.4447 87.8092 39.9847 87.8092C39.4547 87.8092 38.9847 87.6842 38.5747 87.4342C38.1697 87.1792 37.8547 86.8267 37.6297 86.3767C37.4047 85.9267 37.2922 85.4167 37.2922 84.8467C37.2922 84.2617 37.4622 83.7217 37.8022 83.2267C38.1422 82.7267 38.5647 82.3342 39.0697 82.0492C39.5747 81.7592 40.0572 81.6142 40.5172 81.6142ZM40.0822 82.2442C39.7522 82.2442 39.4497 82.3417 39.1747 82.5367C38.9047 82.7267 38.6922 82.9942 38.5372 83.3392C38.3822 83.6792 38.3047 84.0617 38.3047 84.4867C38.3047 84.9767 38.3822 85.4267 38.5372 85.8367C38.6922 86.2417 38.9272 86.5667 39.2422 86.8117C39.5622 87.0567 39.9547 87.1792 40.4197 87.1792C40.7497 87.1792 41.0497 87.0842 41.3197 86.8942C41.5947 86.6992 41.8097 86.4317 41.9647 86.0917C42.1197 85.7467 42.1972 85.3617 42.1972 84.9367C42.1972 84.4417 42.1197 83.9917 41.9647 83.5867C41.8097 83.1767 41.5747 82.8517 41.2597 82.6117C40.9447 82.3667 40.5522 82.2442 40.0822 82.2442ZM46.9875 87.3592L46.8375 87.6592H44.5575V87.4267L45.2625 86.8717V82.3267L44.4825 82.0642L44.6325 81.7642H46.9125V81.9967L46.2 82.5517V87.0892L46.9875 87.3592ZM50.31 87.6592H48.9525L46.6275 84.7042L48.93 82.6942L48.06 82.0642L48.21 81.7642H50.2275V81.9967L47.5275 84.3517L49.59 86.9317L50.46 87.3592L50.31 87.6592ZM54.2201 84.7867C54.5601 84.7867 54.8276 84.6942 55.0226 84.5092C55.2226 84.3242 55.3226 84.0692 55.3226 83.7442C55.3226 83.2842 55.2051 82.9092 54.9701 82.6192C54.7401 82.3242 54.4026 82.1767 53.9576 82.1767C53.6176 82.1767 53.3076 82.2742 53.0276 82.4692V87.0442L54.1901 87.3667L54.0401 87.6667H51.3851V87.4342L52.0901 86.8792V82.3192L51.3101 82.0642L51.4601 81.7642H52.3301C52.8151 81.7642 53.2926 81.7492 53.7626 81.7192C54.1126 81.6992 54.3701 81.6892 54.5351 81.6892C54.8851 81.6892 55.1951 81.7642 55.4651 81.9142C55.7401 82.0592 55.9526 82.2617 56.1026 82.5217C56.2526 82.7817 56.3276 83.0692 56.3276 83.3842C56.3276 83.7342 56.2001 84.0642 55.9451 84.3742C55.6901 84.6842 55.3651 84.9267 54.9701 85.1017C54.5751 85.2767 54.1876 85.3542 53.8076 85.3342L53.4551 85.0792L53.6051 84.7792H54.2126L54.2201 84.7867ZM62.7022 87.6592H60.4222V87.4267L61.1272 86.8792L60.5497 85.4917H58.0297L57.4147 86.9092L58.7347 87.3592L58.5847 87.6592H56.3047V87.4267L57.0097 86.8717L59.1322 82.0042L59.9122 81.6217L62.1022 86.9017L62.8522 87.3592L62.7022 87.6592ZM59.3197 82.5217L58.1797 85.1542H60.4147L59.3197 82.5217ZM66.9931 86.3317C66.9931 86.1767 66.9306 86.0317 66.8056 85.8967C66.6806 85.7617 66.5231 85.6392 66.3331 85.5292C66.1481 85.4142 65.8956 85.2742 65.5756 85.1092C65.1956 84.9092 64.8906 84.7392 64.6606 84.5992C64.4306 84.4542 64.2331 84.2842 64.0681 84.0892C63.9081 83.8942 63.8281 83.6792 63.8281 83.4442C63.8281 83.1942 63.9331 82.9267 64.1431 82.6417C64.3531 82.3517 64.6081 82.1092 64.9081 81.9142C65.2131 81.7142 65.4931 81.6142 65.7481 81.6142C66.0581 81.6142 66.4181 81.6517 66.8281 81.7267C67.2381 81.8017 67.5381 81.8817 67.7281 81.9667V83.4217H67.4431C67.1981 83.0167 66.9281 82.7017 66.6331 82.4767C66.3431 82.2517 66.0381 82.1392 65.7181 82.1392C65.4331 82.1392 65.2056 82.2292 65.0356 82.4092C64.8706 82.5842 64.7881 82.8142 64.7881 83.0992C64.7881 83.2642 64.8506 83.4192 64.9756 83.5642C65.1056 83.7042 65.2631 83.8292 65.4481 83.9392C65.6381 84.0492 65.9006 84.1917 66.2356 84.3667C66.6056 84.5517 66.9056 84.7167 67.1356 84.8617C67.3656 85.0017 67.5581 85.1667 67.7131 85.3567C67.8731 85.5417 67.9531 85.7517 67.9531 85.9867C67.9531 86.2367 67.8406 86.5067 67.6156 86.7967C67.3906 87.0817 67.1156 87.3242 66.7906 87.5242C66.4706 87.7192 66.1781 87.8167 65.9131 87.8167C65.5881 87.8167 65.2006 87.7792 64.7506 87.7042C64.3056 87.6292 63.9856 87.5492 63.7906 87.4642V86.0092H64.0756C64.3306 86.4142 64.6206 86.7292 64.9456 86.9542C65.2706 87.1792 65.6056 87.2917 65.9506 87.2917C66.1556 87.2917 66.3381 87.2467 66.4981 87.1567C66.6581 87.0667 66.7806 86.9492 66.8656 86.8042C66.9506 86.6542 66.9931 86.4967 66.9931 86.3317ZM72.6196 86.3317C72.6196 86.1767 72.5571 86.0317 72.4321 85.8967C72.3071 85.7617 72.1496 85.6392 71.9596 85.5292C71.7746 85.4142 71.5221 85.2742 71.2021 85.1092C70.8221 84.9092 70.5171 84.7392 70.2871 84.5992C70.0571 84.4542 69.8596 84.2842 69.6946 84.0892C69.5346 83.8942 69.4546 83.6792 69.4546 83.4442C69.4546 83.1942 69.5596 82.9267 69.7696 82.6417C69.9796 82.3517 70.2346 82.1092 70.5346 81.9142C70.8396 81.7142 71.1196 81.6142 71.3746 81.6142C71.6846 81.6142 72.0446 81.6517 72.4546 81.7267C72.8646 81.8017 73.1646 81.8817 73.3546 81.9667V83.4217H73.0696C72.8246 83.0167 72.5546 82.7017 72.2596 82.4767C71.9696 82.2517 71.6646 82.1392 71.3446 82.1392C71.0596 82.1392 70.8321 82.2292 70.6621 82.4092C70.4971 82.5842 70.4146 82.8142 70.4146 83.0992C70.4146 83.2642 70.4771 83.4192 70.6021 83.5642C70.7321 83.7042 70.8896 83.8292 71.0746 83.9392C71.2646 84.0492 71.5271 84.1917 71.8621 84.3667C72.2321 84.5517 72.5321 84.7167 72.7621 84.8617C72.9921 85.0017 73.1846 85.1667 73.3396 85.3567C73.4996 85.5417 73.5796 85.7517 73.5796 85.9867C73.5796 86.2367 73.4671 86.5067 73.2421 86.7967C73.0171 87.0817 72.7421 87.3242 72.4171 87.5242C72.0971 87.7192 71.8046 87.8167 71.5396 87.8167C71.2146 87.8167 70.8271 87.7792 70.3771 87.7042C69.9321 87.6292 69.6121 87.5492 69.4171 87.4642V86.0092H69.7021C69.9571 86.4142 70.2471 86.7292 70.5721 86.9542C70.8971 87.1792 71.2321 87.2917 71.5771 87.2917C71.7821 87.2917 71.9646 87.2467 72.1246 87.1567C72.2846 87.0667 72.4071 86.9492 72.4921 86.8042C72.5771 86.6542 72.6196 86.4967 72.6196 86.3317Z" fill="#3A5779"/>
<path d="M85.8806 74.5878C85.8806 55.3233 85.8806 16.2079 85.8806 13.8623C85.8806 11.5168 84.7328 9.97325 84.1962 9.47502C82.9775 8.25627 80.2285 7.97242 78.969 8.00246C58.1502 8.00246 15.8165 8.00246 13.0326 8.00246C10.2486 8.00246 9.63194 10.0663 9.67162 11.0983V52.8818V95.5597C9.68015 96.1325 9.82694 97.4159 10.3458 97.9662C10.8647 98.5165 11.4747 98.6474 11.7148 98.6441H80.4533C81.5646 98.6321 83.4563 98.4348 84.9207 96.8901C85.5668 96.2086 85.9469 94.9917 85.9674 93.8632" stroke="#1E3F66" stroke-linecap="round"/>
<rect x="64.0884" y="67.3751" width="7.57428" height="2.33053" transform="rotate(-43.9077 64.0884 67.3751)" fill="#5C728C"/>
<path d="M91.1743 83.9655C92.2556 84.9989 92.2644 86.7237 91.1938 87.7682L89.4028 89.5153C88.3372 90.5546 86.6238 90.5088 85.6147 89.4147L66.85 69.0641L71.1703 64.8502L91.1743 83.9655ZM86.7778 83.524C86.406 83.1558 85.8062 83.1582 85.4379 83.5299C85.0698 83.9017 85.0731 84.5015 85.4448 84.8698L87.7182 87.1217L89.0512 85.776L86.7778 83.524Z" fill="#1E3F66"/>
<path d="M59.028 53.6109C61.7259 50.8601 61.8545 43.8764 61.612 40.7245C62.2334 41.7267 62.495 42.7592 62.6543 43.7513C63.2278 47.3215 62.4971 50.4855 62.0216 51.9967C61.6296 53.4976 59.2421 57.5893 53.9734 59.686C51.7105 60.5763 48.8342 60.1795 46.9687 59.2456C44.779 58.1494 43.5713 56.4563 42.7114 54.9883C45.7267 57.792 49.9248 57.6665 51.8204 57.4461C53.0988 57.3139 56.3301 56.3617 59.028 53.6109Z" fill="#E9DED3"/>
<path d="M14.9525 74.1582L14.9525 92.495M14.9524 13.1373L14.9524 70.2731" stroke="#1E3F66" stroke-width="0.5"/>
</svg>
