<svg width="311" height="108" viewBox="0 0 311 108" fill="none" xmlns="http://www.w3.org/2000/svg">
<g clip-path="url(#clip0_605_4548)">
<path d="M87.5875 75.9773C87.5875 70.9108 87.5875 63.2687 87.5875 56.4861M87.6743 95.2527C87.6538 96.3812 87.2737 97.5981 86.6276 98.2796C85.1632 99.8243 83.2716 100.022 82.1602 100.034H13.4217C13.1816 100.037 12.5716 99.906 12.0527 99.3557C11.5339 98.8054 11.3871 97.5221 11.3785 96.9492V54.2713V12.4878C11.3388 11.4558 11.9555 9.39197 14.7395 9.39197C17.5234 9.39197 59.8571 9.39197 80.6759 9.39197C81.9354 9.36193 84.6844 9.64578 85.9031 10.8645C86.4397 11.3628 87.5875 12.9063 87.5875 15.2519C87.5875 15.5785 87.5875 44.5779 87.5875 46.1776" stroke="#1E3F66" stroke-linecap="round"/>
<rect x="74.9998" y="49.017" width="25" height="5" fill="#1E3F66"/>
<path d="M135.034 32.1739C138.13 31.9614 140.813 34.4638 140.826 37.5748L140.956 68.4636C140.969 71.5074 138.414 73.8608 135.376 73.6056L105.768 71.1182C102.977 70.8838 100.791 68.5198 100.78 65.7238L100.676 39.3516C100.666 36.6216 102.736 34.3902 105.452 34.2037L135.034 32.1739ZM134.075 61.0009C134.073 60.4087 133.586 59.9197 132.994 59.9169L108.491 59.8112C107.916 59.8087 107.457 60.2663 107.459 60.8414L107.466 63.1353C107.468 63.7112 107.931 64.1928 108.506 64.2183L133.011 65.3025C133.603 65.3286 134.086 64.8648 134.085 64.2734L134.075 61.0009ZM134.046 51.0832C134.044 50.4911 133.556 50.0022 132.964 49.9997L108.462 49.8949C107.887 49.8924 107.428 50.3508 107.43 50.9259L107.437 53.2198C107.439 53.7955 107.9 54.2768 108.476 54.3025L132.982 55.3862C133.573 55.4122 134.057 54.9472 134.056 54.3557L134.046 51.0832ZM134.017 41.1677C134.015 40.5754 133.527 40.0854 132.935 40.0829L108.433 39.9794C107.858 39.977 107.399 40.4354 107.401 41.0104L107.407 43.3048C107.409 43.8804 107.871 44.3613 108.447 44.387L132.952 45.4699C133.544 45.496 134.028 45.0316 134.027 44.4402L134.017 41.1677Z" fill="#5C728C"/>
<path d="M9.84454 10.0471C9.84454 8.94249 10.74 8.04706 11.8445 8.04706H80.9546C83.716 8.04706 85.9546 10.2856 85.9546 13.0471V93.6464C85.9546 96.4078 83.716 98.6464 80.9546 98.6464H11.8445C10.74 98.6464 9.84454 97.751 9.84454 96.6464V10.0471Z" fill="#FFDA7C"/>
<circle cx="47.8996" cy="46.1579" r="22.9216" fill="#51667E" stroke="#1E3F66" stroke-width="5.28535"/>
<circle cx="47.8996" cy="46.1578" r="25.3001" stroke="#5C728C" stroke-width="0.528535"/>
<path d="M33.2881 45.7998C32.4026 40.7282 35.4013 35.6029 37.0113 34.7308C43.3508 29.1962 55.4261 33.9258 58.8475 36.844C61.0233 38.6998 62.6713 42.0766 62.6713 45.7998C62.6713 48.8186 62.6713 54.8563 56.2312 58.5795C49.791 62.3027 44.9609 58.6801 42.7471 55.0575C40.5333 51.4349 34.395 52.1393 33.2881 45.7998Z" fill="#F7F2EA"/>
<ellipse cx="51.4746" cy="45.4754" rx="7.1144" ry="7.17647" fill="#FFD670"/>
<path d="M26.6496 81.6142C26.9146 81.6142 27.2196 81.6517 27.5646 81.7267C27.9146 81.8017 28.1696 81.8817 28.3296 81.9667V83.4217H28.0446C27.5846 82.6367 26.9746 82.2442 26.2146 82.2442C25.8846 82.2442 25.5821 82.3417 25.3071 82.5367C25.0371 82.7267 24.8246 82.9942 24.6696 83.3392C24.5146 83.6792 24.4371 84.0617 24.4371 84.4867C24.4371 84.9767 24.5121 85.4242 24.6621 85.8292C24.8171 86.2342 25.0496 86.5592 25.3596 86.8042C25.6746 87.0492 26.0621 87.1717 26.5221 87.1717C26.9471 87.1717 27.5571 86.8517 28.3521 86.2117L28.5771 86.5717L27.1971 87.6442C27.0121 87.7092 26.8321 87.7517 26.6571 87.7717C26.4871 87.7967 26.3021 87.8092 26.1021 87.8092C25.5771 87.8092 25.1121 87.6817 24.7071 87.4267C24.3021 87.1717 23.9871 86.8217 23.7621 86.3767C23.5371 85.9267 23.4246 85.4167 23.4246 84.8467C23.4246 84.2617 23.5946 83.7217 23.9346 83.2267C24.2746 82.7267 24.6971 82.3342 25.2021 82.0492C25.7071 81.7592 26.1896 81.6142 26.6496 81.6142ZM33.1769 81.6142C33.7069 81.6142 34.1744 81.7417 34.5794 81.9967C34.9894 82.2517 35.3069 82.6042 35.5319 83.0542C35.7569 83.5042 35.8694 84.0142 35.8694 84.5842C35.8694 85.1692 35.6994 85.7092 35.3594 86.2042C35.0194 86.6992 34.5969 87.0917 34.0919 87.3817C33.5869 87.6667 33.1044 87.8092 32.6444 87.8092C32.1144 87.8092 31.6444 87.6842 31.2344 87.4342C30.8294 87.1792 30.5144 86.8267 30.2894 86.3767C30.0644 85.9267 29.9519 85.4167 29.9519 84.8467C29.9519 84.2617 30.1219 83.7217 30.4619 83.2267C30.8019 82.7267 31.2244 82.3342 31.7294 82.0492C32.2344 81.7592 32.7169 81.6142 33.1769 81.6142ZM32.7419 82.2442C32.4119 82.2442 32.1094 82.3417 31.8344 82.5367C31.5644 82.7267 31.3519 82.9942 31.1969 83.3392C31.0419 83.6792 30.9644 84.0617 30.9644 84.4867C30.9644 84.9767 31.0419 85.4267 31.1969 85.8367C31.3519 86.2417 31.5869 86.5667 31.9019 86.8117C32.2219 87.0567 32.6144 87.1792 33.0794 87.1792C33.4094 87.1792 33.7094 87.0842 33.9794 86.8942C34.2544 86.6992 34.4694 86.4317 34.6244 86.0917C34.7794 85.7467 34.8569 85.3617 34.8569 84.9367C34.8569 84.4417 34.7794 83.9917 34.6244 83.5867C34.4694 83.1767 34.2344 82.8517 33.9194 82.6117C33.6044 82.3667 33.2119 82.2442 32.7419 82.2442ZM40.5173 81.6142C41.0473 81.6142 41.5148 81.7417 41.9198 81.9967C42.3298 82.2517 42.6473 82.6042 42.8723 83.0542C43.0973 83.5042 43.2098 84.0142 43.2098 84.5842C43.2098 85.1692 43.0398 85.7092 42.6998 86.2042C42.3598 86.6992 41.9373 87.0917 41.4323 87.3817C40.9273 87.6667 40.4448 87.8092 39.9848 87.8092C39.4548 87.8092 38.9848 87.6842 38.5748 87.4342C38.1698 87.1792 37.8548 86.8267 37.6298 86.3767C37.4048 85.9267 37.2923 85.4167 37.2923 84.8467C37.2923 84.2617 37.4623 83.7217 37.8023 83.2267C38.1423 82.7267 38.5648 82.3342 39.0698 82.0492C39.5748 81.7592 40.0573 81.6142 40.5173 81.6142ZM40.0823 82.2442C39.7523 82.2442 39.4498 82.3417 39.1748 82.5367C38.9048 82.7267 38.6923 82.9942 38.5373 83.3392C38.3823 83.6792 38.3048 84.0617 38.3048 84.4867C38.3048 84.9767 38.3823 85.4267 38.5373 85.8367C38.6923 86.2417 38.9273 86.5667 39.2423 86.8117C39.5623 87.0567 39.9548 87.1792 40.4198 87.1792C40.7498 87.1792 41.0498 87.0842 41.3198 86.8942C41.5948 86.6992 41.8098 86.4317 41.9648 86.0917C42.1198 85.7467 42.1973 85.3617 42.1973 84.9367C42.1973 84.4417 42.1198 83.9917 41.9648 83.5867C41.8098 83.1767 41.5748 82.8517 41.2598 82.6117C40.9448 82.3667 40.5523 82.2442 40.0823 82.2442ZM46.9876 87.3592L46.8376 87.6592H44.5576V87.4267L45.2626 86.8717V82.3267L44.4826 82.0642L44.6326 81.7642H46.9126V81.9967L46.2001 82.5517V87.0892L46.9876 87.3592ZM50.3101 87.6592H48.9526L46.6276 84.7042L48.9301 82.6942L48.0601 82.0642L48.2101 81.7642H50.2276V81.9967L47.5276 84.3517L49.5901 86.9317L50.4601 87.3592L50.3101 87.6592ZM54.2202 84.7867C54.5602 84.7867 54.8277 84.6942 55.0227 84.5092C55.2227 84.3242 55.3227 84.0692 55.3227 83.7442C55.3227 83.2842 55.2052 82.9092 54.9702 82.6192C54.7402 82.3242 54.4027 82.1767 53.9577 82.1767C53.6177 82.1767 53.3077 82.2742 53.0277 82.4692V87.0442L54.1902 87.3667L54.0402 87.6667H51.3852V87.4342L52.0902 86.8792V82.3192L51.3102 82.0642L51.4602 81.7642H52.3302C52.8152 81.7642 53.2927 81.7492 53.7627 81.7192C54.1127 81.6992 54.3702 81.6892 54.5352 81.6892C54.8852 81.6892 55.1952 81.7642 55.4652 81.9142C55.7402 82.0592 55.9527 82.2617 56.1027 82.5217C56.2527 82.7817 56.3277 83.0692 56.3277 83.3842C56.3277 83.7342 56.2002 84.0642 55.9452 84.3742C55.6902 84.6842 55.3652 84.9267 54.9702 85.1017C54.5752 85.2767 54.1877 85.3542 53.8077 85.3342L53.4552 85.0792L53.6052 84.7792H54.2127L54.2202 84.7867ZM62.7023 87.6592H60.4223V87.4267L61.1273 86.8792L60.5498 85.4917H58.0298L57.4148 86.9092L58.7348 87.3592L58.5848 87.6592H56.3048V87.4267L57.0098 86.8717L59.1323 82.0042L59.9123 81.6217L62.1023 86.9017L62.8523 87.3592L62.7023 87.6592ZM59.3198 82.5217L58.1798 85.1542H60.4148L59.3198 82.5217ZM66.9932 86.3317C66.9932 86.1767 66.9307 86.0317 66.8057 85.8967C66.6807 85.7617 66.5232 85.6392 66.3332 85.5292C66.1482 85.4142 65.8957 85.2742 65.5757 85.1092C65.1957 84.9092 64.8907 84.7392 64.6607 84.5992C64.4307 84.4542 64.2332 84.2842 64.0682 84.0892C63.9082 83.8942 63.8282 83.6792 63.8282 83.4442C63.8282 83.1942 63.9332 82.9267 64.1432 82.6417C64.3532 82.3517 64.6082 82.1092 64.9082 81.9142C65.2132 81.7142 65.4932 81.6142 65.7482 81.6142C66.0582 81.6142 66.4182 81.6517 66.8282 81.7267C67.2382 81.8017 67.5382 81.8817 67.7282 81.9667V83.4217H67.4432C67.1982 83.0167 66.9282 82.7017 66.6332 82.4767C66.3432 82.2517 66.0382 82.1392 65.7182 82.1392C65.4332 82.1392 65.2057 82.2292 65.0357 82.4092C64.8707 82.5842 64.7882 82.8142 64.7882 83.0992C64.7882 83.2642 64.8507 83.4192 64.9757 83.5642C65.1057 83.7042 65.2632 83.8292 65.4482 83.9392C65.6382 84.0492 65.9007 84.1917 66.2357 84.3667C66.6057 84.5517 66.9057 84.7167 67.1357 84.8617C67.3657 85.0017 67.5582 85.1667 67.7132 85.3567C67.8732 85.5417 67.9532 85.7517 67.9532 85.9867C67.9532 86.2367 67.8407 86.5067 67.6157 86.7967C67.3907 87.0817 67.1157 87.3242 66.7907 87.5242C66.4707 87.7192 66.1782 87.8167 65.9132 87.8167C65.5882 87.8167 65.2007 87.7792 64.7507 87.7042C64.3057 87.6292 63.9857 87.5492 63.7907 87.4642V86.0092H64.0757C64.3307 86.4142 64.6207 86.7292 64.9457 86.9542C65.2707 87.1792 65.6057 87.2917 65.9507 87.2917C66.1557 87.2917 66.3382 87.2467 66.4982 87.1567C66.6582 87.0667 66.7807 86.9492 66.8657 86.8042C66.9507 86.6542 66.9932 86.4967 66.9932 86.3317ZM72.6197 86.3317C72.6197 86.1767 72.5572 86.0317 72.4322 85.8967C72.3072 85.7617 72.1497 85.6392 71.9597 85.5292C71.7747 85.4142 71.5222 85.2742 71.2022 85.1092C70.8222 84.9092 70.5172 84.7392 70.2872 84.5992C70.0572 84.4542 69.8597 84.2842 69.6947 84.0892C69.5347 83.8942 69.4547 83.6792 69.4547 83.4442C69.4547 83.1942 69.5597 82.9267 69.7697 82.6417C69.9797 82.3517 70.2347 82.1092 70.5347 81.9142C70.8397 81.7142 71.1197 81.6142 71.3747 81.6142C71.6847 81.6142 72.0447 81.6517 72.4547 81.7267C72.8647 81.8017 73.1647 81.8817 73.3547 81.9667V83.4217H73.0697C72.8247 83.0167 72.5547 82.7017 72.2597 82.4767C71.9697 82.2517 71.6647 82.1392 71.3447 82.1392C71.0597 82.1392 70.8322 82.2292 70.6622 82.4092C70.4972 82.5842 70.4147 82.8142 70.4147 83.0992C70.4147 83.2642 70.4772 83.4192 70.6022 83.5642C70.7322 83.7042 70.8897 83.8292 71.0747 83.9392C71.2647 84.0492 71.5272 84.1917 71.8622 84.3667C72.2322 84.5517 72.5322 84.7167 72.7622 84.8617C72.9922 85.0017 73.1847 85.1667 73.3397 85.3567C73.4997 85.5417 73.5797 85.7517 73.5797 85.9867C73.5797 86.2367 73.4672 86.5067 73.2422 86.7967C73.0172 87.0817 72.7422 87.3242 72.4172 87.5242C72.0972 87.7192 71.8047 87.8167 71.5397 87.8167C71.2147 87.8167 70.8272 87.7792 70.3772 87.7042C69.9322 87.6292 69.6122 87.5492 69.4172 87.4642V86.0092H69.7022C69.9572 86.4142 70.2472 86.7292 70.5722 86.9542C70.8972 87.1792 71.2322 87.2917 71.5772 87.2917C71.7822 87.2917 71.9647 87.2467 72.1247 87.1567C72.2847 87.0667 72.4072 86.9492 72.4922 86.8042C72.5772 86.6542 72.6197 86.4967 72.6197 86.3317Z" fill="#3A5779"/>
<path d="M85.8807 74.5878C85.8807 55.3233 85.8807 16.2079 85.8807 13.8623C85.8807 11.5168 84.7329 9.97325 84.1964 9.47502C82.9776 8.25627 80.2286 7.97242 78.9691 8.00246C58.1503 8.00246 15.8167 8.00246 13.0327 8.00246C10.2487 8.00246 9.63206 10.0663 9.67174 11.0983V52.8818V95.5597C9.68028 96.1325 9.82707 97.4159 10.3459 97.9662C10.8648 98.5165 11.4748 98.6474 11.7149 98.6441H80.4534C81.5648 98.6321 83.4564 98.4348 84.9208 96.8901C85.5669 96.2086 85.947 94.9917 85.9675 93.8632" stroke="#1E3F66" stroke-linecap="round"/>
<rect x="64.0886" y="67.3751" width="7.57428" height="2.33053" transform="rotate(-43.9077 64.0886 67.3751)" fill="#5C728C"/>
<path d="M91.1744 83.9655C92.2557 84.9989 92.2645 86.7237 91.1939 87.7682L89.4029 89.5153C88.3374 90.5546 86.6239 90.5088 85.6148 89.4147L66.8502 69.0641L71.1705 64.8502L91.1744 83.9655ZM86.7779 83.524C86.4062 83.1558 85.8063 83.1582 85.438 83.5299C85.0699 83.9017 85.0732 84.5015 85.4449 84.8698L87.7183 87.1217L89.0513 85.776L86.7779 83.524Z" fill="#1E3F66"/>
<path d="M59.0281 53.6109C61.726 50.8601 61.8546 43.8764 61.6121 40.7245C62.2335 41.7267 62.4951 42.7592 62.6545 43.7513C63.2279 47.3215 62.4972 50.4855 62.0217 51.9967C61.6297 53.4976 59.2422 57.5893 53.9735 59.686C51.7106 60.5763 48.8343 60.1795 46.9689 59.2456C44.7792 58.1494 43.5714 56.4563 42.7115 54.9883C45.7268 57.792 49.9249 57.6665 51.8205 57.4461C53.0989 57.3139 56.3302 56.3617 59.0281 53.6109Z" fill="#E9DED3"/>
<path d="M14.9526 74.1582L14.9526 92.4949M14.9525 13.1373L14.9525 70.2731" stroke="#1E3F66" stroke-width="0.5"/>
</g>
<defs>
<clipPath id="clip0_605_4548">
<rect width="311" height="108" fill="white"/>
</clipPath>
</defs>
</svg>
