<svg width="302" height="108" viewBox="0 0 302 108" fill="none" xmlns="http://www.w3.org/2000/svg">
<path d="M107.293 27.9309C106.023 27.7923 104.868 28.4622 104.729 29.3862L104.521 30.3795C104.313 31.3497 104.059 32.3199 103.805 33.2901C103.551 34.2603 103.551 34.2603 103.551 34.2603C103.251 35.1843 104.013 36.1314 105.26 36.3624L105.445 36.3855C106.692 36.6165 108.148 35.8773 108.702 34.7223C108.702 34.7223 108.841 34.422 109.464 32.9205C110.088 31.4421 110.412 30.5412 110.412 30.5412C110.85 29.34 110.181 28.2543 108.91 28.1157L107.293 27.9309Z" fill="white"/>
<path d="M180.279 31.7748C181.785 29.9676 183.15 30.6139 183.644 31.163C185.477 32.4085 184.487 34.0282 183.762 34.6824C182.561 35.9464 179.707 38.2728 178.43 39.278C173.216 43.3233 157.322 51.3439 154.307 52.9033C151.292 54.4627 149.161 54.7226 148.122 54.7226C147.082 54.7226 144.171 53.4231 143.651 52.0197C143.235 50.8969 144.275 50.1657 144.847 49.9405C145.595 49.8157 153.734 46.882 157.71 45.4308C159.793 44.6981 165.315 42.1467 167.815 40.9626C168.846 40.3615 171.176 38.9777 172.25 38.2515C173.323 37.5253 176.197 35.3529 177.499 34.3575C178.004 33.9891 179.563 32.4822 180.279 31.7748Z" fill="white"/>
<path d="M161.81 47.5445H178.369C182.596 47.5445 183.841 50.558 183.935 52.065C184.217 60.8231 177.994 63.3901 174.846 63.5786H163.713C155.427 63.5784 154.106 55.9026 154.482 52.065C154.482 48.2229 159.368 47.4504 161.81 47.5445ZM162.345 56.5894C161.156 56.5894 160.766 57.2106 160.766 57.9429C160.766 58.6753 161.156 59.2964 162.345 59.2964H176.041C177.23 59.2963 177.604 58.6752 177.604 57.9429C177.604 57.2106 177.23 56.5895 176.041 56.5894H162.345ZM162.345 50.8189C161.156 50.8189 160.766 51.4401 160.766 52.1724C160.766 52.9048 161.156 53.5269 162.345 53.5269H176.041C177.23 53.5268 177.604 52.9047 177.604 52.1724C177.604 51.4402 177.23 50.819 176.041 50.8189H162.345Z" fill="white"/>
<path d="M146.441 42.465C146.441 41.2638 147.48 40.2936 148.751 40.2936H187.166C188.436 40.2936 189.476 41.2638 189.476 42.465C189.476 43.6662 188.436 44.6364 187.166 44.6364H148.751C147.48 44.6364 146.441 43.6662 146.441 42.465ZM150.737 34.842C150.737 33.687 151.777 32.7168 153.047 32.7168H175.316C176.586 32.7168 177.626 33.6639 177.626 34.842C177.626 36.0201 176.586 36.9672 175.316 36.9672H153.047C151.777 36.9672 150.737 36.0201 150.737 34.842ZM162.149 31.8621C162.149 30.5916 163.188 29.5521 164.459 29.5521H165.082C166.353 29.5521 167.392 30.5916 167.392 31.8621V40.2936C167.392 41.5641 166.353 42.6036 165.082 42.6036H164.459C163.188 42.6036 162.149 41.5641 162.149 40.2936V31.8621Z" fill="white"/>
<path d="M150.552 65.9115C151.153 64.7796 152.631 64.1559 153.856 64.4793L154.272 64.5948C155.496 64.9413 156.027 66.1425 155.45 67.2744C155.45 67.2744 154.803 68.5449 153.671 70.2081C152.539 71.8713 151.684 72.726 151.684 72.726C150.807 73.6269 149.143 73.9041 148.011 73.3497L147.457 73.0725C146.325 72.495 146.163 71.34 147.111 70.4853C147.111 70.4853 147.711 69.954 148.843 68.4525C150.021 66.9279 150.552 65.9115 150.552 65.9115Z" fill="white"/>
<path d="M159.977 68.1753C159.792 66.9279 160.67 65.796 161.941 65.6574L162.172 65.6343C163.442 65.5188 164.667 66.4197 164.921 67.6671C164.921 67.6671 165.013 68.0829 165.221 69.5844C165.429 71.0859 165.429 71.0859 165.429 71.0859C165.521 72.3564 164.551 73.5114 163.281 73.6731L162.703 73.7424C161.433 73.9041 160.37 72.9801 160.347 71.7096C160.347 71.7096 160.347 71.7096 160.208 70.1619C160.047 68.6373 159.977 68.1753 159.977 68.1753Z" fill="white"/>
<path d="M170.372 67.9443C169.91 66.7662 170.534 65.6112 171.781 65.3802L172.059 65.334C173.306 65.103 174.761 65.8653 175.269 67.0434C175.269 67.0434 175.477 67.5054 176.009 68.9838C176.54 70.4622 176.563 70.5546 176.563 70.5546C176.886 71.7789 176.124 73.0032 174.877 73.2573L174.253 73.3959C173.006 73.65 171.781 72.8415 171.527 71.5941C171.527 71.5941 171.504 71.5017 171.042 69.9771C170.58 68.4294 170.372 67.9443 170.372 67.9443Z" fill="white"/>
<path d="M180.906 67.4823C180.144 66.4659 180.467 65.2647 181.668 64.8027L181.945 64.6872C183.124 64.2252 184.764 64.641 185.595 65.6112C185.595 65.6112 185.595 65.6112 186.381 66.6507C187.166 67.6902 187.905 68.6835 188.575 69.6537C189.245 70.6239 189.245 70.6239 189.245 70.6239C189.753 71.5248 189.199 72.6567 188.021 73.1418L187.374 73.3959C186.196 73.881 184.856 73.5345 184.394 72.6105C184.394 72.6105 184.394 72.6105 183.747 71.5941C183.1 70.5777 182.407 69.5613 181.668 68.4987C180.929 67.5285 180.906 67.4823 180.906 67.4823Z" fill="white"/>
<path d="M253.486 33.5484C253.486 32.2779 254.526 31.2384 255.796 31.2384H292.34C293.611 31.2384 294.65 32.2779 294.65 33.5484V72.1716C294.65 73.4421 293.611 74.4816 292.34 74.4816H291.901C290.631 74.4816 289.591 73.4421 289.591 72.1716V37.7757C289.591 36.5052 288.552 35.4657 287.281 35.4657H260.624C259.353 35.4657 258.314 36.5052 258.314 37.7757V72.1485C258.314 73.419 257.274 74.4585 256.004 74.4585H255.796C254.526 74.4585 253.486 73.419 253.486 72.1485V33.5484ZM256.535 70.5777C256.535 69.3996 257.575 68.4294 258.845 68.4294H289.845C291.116 68.4294 292.155 69.3996 292.155 70.5777C292.155 71.7558 291.116 72.726 289.845 72.726H258.845C257.575 72.726 256.535 71.7558 256.535 70.5777ZM260.093 48.009C260.093 47.2236 261.132 46.5537 262.403 46.5537H285.641C286.912 46.5537 287.951 47.2005 287.951 48.009C287.951 48.7944 286.912 49.4643 285.641 49.4643H262.403C261.132 49.4412 260.093 48.7944 260.093 48.009ZM264.228 39.5775C264.228 38.307 265.267 37.2675 266.538 37.2675H281.252C282.523 37.2675 283.562 38.307 283.562 39.5775V42.6267C283.562 43.8972 282.523 44.9367 281.252 44.9367H266.538C265.267 44.9367 264.228 43.8972 264.228 42.6267V39.5775ZM270.696 39.9009C269.425 39.9009 269.52 40.4322 269.52 41.0559C269.52 41.7027 269.425 42.2109 270.696 42.2109H276.909C278.18 42.2109 277.93 41.6796 277.93 41.0559C277.93 40.4091 278.18 39.9009 276.909 39.9009H270.696ZM271.573 45.4449C271.573 44.1744 272.567 43.1349 273.768 43.1349C274.969 43.1349 275.962 44.1744 275.962 45.4449V45.5373C275.962 46.8078 274.969 47.8473 273.768 47.8473C272.567 47.8473 271.573 46.8078 271.573 45.5373V45.4449Z" fill="white"/>
<path d="M205.507 39.7161H206.57C207.563 39.7161 208.372 40.5246 208.372 41.5179V46.5075C208.372 47.778 208.349 49.857 208.302 51.1275C208.302 51.1275 208.21 54.2229 207.91 57.1566C207.609 60.0903 206.963 63.024 206.016 65.9808C205.253 68.3139 204.191 70.5546 202.805 72.726C202.227 73.6269 201.003 73.8117 200.171 73.1649C200.079 73.0956 199.963 73.0263 199.871 72.9339C199.686 72.7953 199.501 72.6567 199.317 72.5412C198.531 71.9868 198.323 70.9242 198.831 70.1157C200.102 68.0598 201.072 65.9577 201.742 63.8094C202.551 61.1529 203.082 58.5195 203.336 55.9554C203.567 53.3913 203.636 51.0351 203.636 51.0351C203.659 49.7646 203.706 47.6856 203.706 46.4151V41.5179C203.706 40.5246 204.514 39.7161 205.507 39.7161ZM198.97 39.462C198.97 38.1915 200.01 37.152 201.28 37.152H215.648C216.919 37.152 217.958 38.1915 217.958 39.462V39.6699C217.958 40.9404 216.919 41.9799 215.648 41.9799H201.28C200.01 41.9799 198.97 40.9404 198.97 39.6699V39.462ZM213.384 47.085H216.18C216.688 47.085 217.104 47.5008 217.104 48.009V48.3555C217.104 48.6558 217.08 48.9099 217.057 49.1409C217.057 49.164 217.057 49.2102 217.057 49.2333C216.965 53.091 216.849 56.3943 216.734 59.097C216.618 61.8228 216.503 64.0404 216.364 65.796C216.226 67.5516 216.064 68.9145 215.833 69.8847C215.602 70.8549 215.602 70.8549 215.602 70.8549C215.302 71.4786 214.655 72.4719 214.147 73.0725C214.147 73.0725 214.147 73.0725 213.662 73.3266C213.177 73.5807 212.622 73.7655 211.975 73.9041C211.398 73.9965 210.705 74.0427 209.873 74.0427C209.296 74.0427 208.695 74.0427 208.095 74.0196C207.656 74.0196 207.286 73.6962 207.217 73.2573C207.147 72.7953 207.032 72.2871 206.87 71.7327C206.847 71.6172 206.801 71.5017 206.778 71.3862C206.501 70.5084 207.171 69.6075 208.095 69.6537H208.141C208.764 69.6768 209.25 69.6999 209.619 69.6999C209.943 69.6999 210.197 69.6537 210.381 69.5613C210.566 69.4689 210.774 69.261 210.959 68.9838C211.144 68.6835 211.329 68.1291 211.467 67.2975C211.606 66.4659 211.744 65.2416 211.883 63.6246C212.022 62.0076 212.114 59.9286 212.229 57.3876C212.322 54.8235 212.414 50.319 212.414 50.319C212.437 49.0485 212.46 48.009 212.46 48.009C212.484 47.5008 212.876 47.085 213.384 47.085ZM209.042 47.085H214.077C215.371 47.085 216.434 48.1476 216.434 49.4412C216.434 50.7348 215.371 51.7974 214.077 51.7974H209.042C207.748 51.7974 206.685 50.7348 206.685 49.4412C206.685 48.1476 207.748 47.085 209.042 47.085ZM222.925 31.6773C223.271 30.453 224.565 29.6445 225.812 29.8986L226.297 29.991C227.545 30.222 228.261 31.4232 227.891 32.6475C227.891 32.6475 226.598 36.9441 225.142 39.9009C223.987 42.2571 222.717 44.313 221.331 46.0686C220.776 46.7616 219.737 46.8771 219.044 46.3227L219.021 46.2996C218.513 45.9069 217.981 45.5142 217.473 45.1215C217.45 45.1215 217.45 45.0984 217.427 45.0984C216.78 44.6133 216.688 43.6662 217.219 43.0656C218.513 41.5641 219.668 39.8085 220.661 37.7295C221.955 35.0961 222.925 31.6773 222.925 31.6773ZM238.587 42.2571L239.695 43.2735C240.642 44.1282 240.365 45.699 239.141 46.161C238.032 46.5768 236.877 46.9695 235.676 47.3391C233.481 48.009 231.218 48.6327 228.931 49.164C227.175 49.5798 225.443 49.9725 223.71 50.2959C222.879 50.4576 222.047 49.9956 221.77 49.2102C221.7 49.0254 221.631 48.8406 221.562 48.6558V48.6327C221.169 47.6394 221.747 46.5306 222.786 46.2996C224.149 45.9993 225.535 45.6528 226.944 45.2832C229.069 44.7288 231.056 44.1282 232.927 43.4814C234.359 42.9963 235.63 42.4881 236.739 41.9799C237.362 41.6796 238.078 41.7951 238.587 42.2571ZM223.502 37.845C223.502 36.5745 224.542 35.535 225.812 35.535H240.319C241.59 35.535 242.629 36.5745 242.629 37.845V37.8912C242.629 39.1617 241.59 40.2012 240.319 40.2012H225.812C224.542 40.2012 223.502 39.1617 223.502 37.8912V37.845ZM232.396 46.7385C233.112 46.6461 233.759 47.1312 233.874 47.8473C234.313 50.6424 234.844 53.322 235.514 55.9092C236.277 58.8891 237.316 61.5225 238.61 63.8325C239.626 65.6574 240.827 67.2051 242.236 68.4525C242.791 68.9376 242.837 69.7923 242.329 70.3467C242.259 70.416 242.19 70.5084 242.121 70.5777C241.659 71.0859 241.243 71.6172 240.85 72.1716C240.781 72.264 240.712 72.3564 240.666 72.4488C240.204 73.0956 239.28 73.2111 238.702 72.6567C237.062 71.1321 235.699 69.2841 234.567 67.1127C233.181 64.4562 232.072 61.4301 231.241 58.0575C230.502 55.0776 229.901 51.8667 229.439 48.471C229.347 47.7549 229.855 47.085 230.571 46.9926L232.396 46.7385ZM237.894 51.0582C238.656 50.1804 240.042 50.1342 240.989 50.9889L241.197 51.1737C242.144 52.0053 242.167 53.4144 241.243 54.2691C241.243 54.2691 240.25 55.1931 238.748 56.4405C237.247 57.6879 236.484 58.2654 236.484 58.2654C235.468 59.0277 233.967 59.0046 233.135 58.1961C232.303 57.3876 232.373 56.1171 233.297 55.401C233.297 55.401 233.297 55.401 234.221 54.5694C235.145 53.7378 236.069 52.86 236.993 51.9591C237.894 51.0582 237.894 51.0582 237.894 51.0582Z" fill="white"/>
<path d="M215.833 69.9309C215.833 69.9309 215.533 71.8482 215.302 72.3102C215.209 72.5181 214.909 72.8184 214.609 73.0032C214.216 73.2573 213.777 73.3959 213.084 73.5807" fill="white"/>
<path d="M208.21 74.0196C208.21 74.0196 213.916 74.5278 215.186 72.495C216.457 70.4622 216.757 58.8891 216.757 58.8891" fill="white"/>
<path d="M221.931 72.3411C223.249 71.8459 221.991 72.7675 222.152 72.8137C222.314 72.8599 221.793 73.0956 221.862 72.9801C221.862 72.9801 221.862 72.9801 221.931 72.8877C222.232 72.4026 222.578 71.9175 223.017 71.4324C223.456 70.9473 223.895 70.5084 224.311 70.0926C224.75 69.6768 224.75 69.6768 224.75 69.6768C225.373 69.1455 225.882 67.6671 225.882 66.3966V48.6096C225.882 47.3391 224.842 46.2996 223.572 46.2996H223.225C221.955 46.2996 220.915 47.3391 220.915 48.6096V63.4167C220.915 64.6872 220.915 65.8191 220.915 65.9577C220.915 66.0963 220.915 66.6461 220.915 66.8771C220.915 67.1081 220.915 68.7465 220.915 68.8851C220.915 68.8851 221.199 68.1136 221.176 68.2522C221.696 68.3446 221.467 68.3395 221.467 68.3395C221.444 68.4319 221.45 68.3882 221.381 68.7809C221.312 69.1736 221.192 70.5299 221.146 70.8071C221.1 71.0843 221.241 71.1898 221.518 71.5825C221.518 71.5825 221.433 71.85 221.664 72.1965C221.864 72.0611 221.931 72.3411 221.931 72.3411Z" fill="white"/>
<path d="M241.959 68.1984C241.959 68.1984 243.946 69.5382 243.715 70.2312C243.484 70.9242 240.273 72.7722 240.273 72.7722L240.019 69.0762L241.959 68.1984Z" fill="white"/>
<path d="M212.602 35.3751C211.308 36.2009 208.038 37.8133 205.308 37.6593L204.302 34.6661C207.353 32.3357 210.011 31.9195 211.498 31.8077L212.602 35.3751ZM208.226 25.7677C209.061 25.4374 210.9 25.0638 211.583 26.2081C211.594 26.2118 211.604 26.2167 211.615 26.2208C212.313 28.6255 211.503 30.5467 210.771 31.4942C210.26 31.5656 209.769 31.6656 209.3 31.7872C210.411 29.7988 209.403 27.9647 208.738 27.2803C209.825 29.3304 209.325 31.1153 208.856 31.9112C208.001 32.1643 207.221 32.4861 206.522 32.8331C206.389 31.7795 205.925 29.6399 204.137 28.918C204.912 29.4681 206.144 31.1857 206.099 33.0509C205.518 33.3601 204.997 33.6818 204.539 33.9854C202.823 33.5257 201.71 32.1737 201.358 31.5303C201.663 32.8861 203.286 33.8092 204.25 34.1807C204.22 34.2016 204.189 34.2226 204.159 34.2432L204.151 34.2188C203.546 34.4574 202.147 34.8625 201.399 34.5762C200.65 34.2899 200.389 33.5942 200.353 33.2823C200.261 32.7866 200.309 31.6419 201.233 31.0255C201.16 30.1538 201.503 28.3721 203.463 28.2178C203.931 27.0342 205.539 24.8868 208.226 25.7677ZM211.856 26.3223C212.577 26.6671 213.595 27.48 213.4 28.7413C213.205 30.0113 212.242 30.9691 211.631 31.4063C211.505 31.4154 211.38 31.4241 211.256 31.4366C212.507 29.618 212.357 27.7188 211.856 26.3223Z" fill="white"/>
<path d="M225.289 65.4846C225.299 65.5029 225.773 66.4147 226.395 67.1995C226.109 67.3603 225.809 67.5433 225.809 67.594C225.809 67.6842 225.881 68.009 226.061 67.9729C226.165 67.9521 226.472 67.7625 226.735 67.594C226.826 67.691 226.918 67.7826 227.012 67.8655C226.743 68.0964 226.422 68.3893 226.434 68.4446C226.452 68.5329 226.589 68.8358 226.758 68.7639C226.867 68.7173 227.192 68.4044 227.429 68.1692C227.612 68.2711 227.794 68.3282 227.97 68.3186C228.767 68.2744 229.405 68.2932 229.728 68.3079C229.449 68.9217 229.148 69.8612 229.697 70.4358C229.506 70.0397 229.533 69.0601 229.948 68.3176C229.952 68.3179 229.954 68.3185 229.955 68.3186C229.955 68.3186 231.219 66.8712 233.174 67.5969C234.779 68.2185 234.795 69.4663 234.755 69.8723C234.024 70.1884 232.403 70.7422 230.315 71.3313C231.83 71.1075 233.429 70.7474 234.834 70.2717L234.978 70.675C234.964 70.6883 234.452 71.1837 231.314 71.8977C228.183 72.6102 227.722 72.5208 227.708 72.5178L227.36 71.8088L227.151 72.6389C227.11 72.6522 222.928 73.9814 222.08 73.7737L221.745 73.0891C223.085 72.9461 224.506 72.6653 225.823 72.3127C223.933 72.5657 222.384 72.7012 221.496 72.7307C221.078 72.0878 220.308 70.614 220.87 69.1614C220.914 68.7849 220.956 68.455 220.99 68.1672C223.219 68.1461 224.907 67.2822 225.232 66.9573C223.635 67.4897 222.017 67.541 221.082 67.4084C221.171 66.6983 221.208 66.4328 221.209 66.427L225.289 65.4846Z" fill="white"/>
<path d="M264.25 57.9565C264.871 55.8094 267.148 54.251 269.839 53.2467C272.219 52.3809 274.703 52 276.186 52L276.773 52.0346C278.498 52.2078 280.533 53.2121 281.879 54.9436C283.051 56.4328 285.052 59.0301 283.327 62.5624L283.155 62.9087C282.155 64.7788 280.74 65.5753 279.36 65.887C278.118 66.1294 276.773 65.9563 275.634 65.61L275.152 65.4368C274.255 65.0905 273.358 65.0559 272.53 65.0905C272.116 65.1251 271.702 65.1597 271.322 65.1944C270.943 65.229 270.563 65.2983 270.184 65.2983C269.459 65.3675 268.769 65.3675 268.148 65.229C267.597 65.0905 267.045 64.8481 266.458 64.3979L266.217 64.1901C265.113 63.1858 264.457 61.8698 264.181 60.6231C264.043 59.9997 263.974 59.4456 264.009 58.9954C264.009 58.6491 264.078 58.4067 264.112 58.2682L264.147 58.1643L264.181 58.095L264.25 57.9565Z" fill="white" stroke="white" stroke-width="1.21664"/>
<path d="M275.882 61.2361C277.794 61.2361 279.344 59.6507 279.344 57.695C279.344 55.7393 277.794 54.1538 275.882 54.1538C273.971 54.1538 272.421 55.7393 272.421 57.695C272.421 59.6507 273.971 61.2361 275.882 61.2361Z" fill="#F3A712"/>
</svg>
