<svg width="48" height="48" viewBox="0 0 48 48" fill="none" xmlns="http://www.w3.org/2000/svg">
<mask id="path-1-inside-1_107_797" fill="white">
<path d="M24.1797 4C32.5631 4.00006 39.3593 10.6926 39.3594 18.9482C39.3594 21.705 38.6 24.2867 37.2783 26.5039H37.3525L36.8662 27.1562C36.5815 27.5821 36.2754 27.9927 35.9492 28.3867L24.0488 44.3613L12.4297 28.4121C12.023 27.9231 11.6477 27.408 11.3057 26.8701L11.0391 26.5039H11.0801C9.75855 24.2868 9 21.7049 9 18.9482C9.00003 10.6926 15.7963 4 24.1797 4Z"/>
</mask>
<path d="M24.1797 4L24.1797 0.840204H24.1797V4ZM39.3594 18.9482L42.5192 18.9482L42.5192 18.9482L39.3594 18.9482ZM37.2783 26.5039L34.5642 24.886L31.7162 29.6637H37.2783V26.5039ZM37.3525 26.5039L39.8858 28.3925L43.6494 23.3441H37.3525V26.5039ZM36.8662 27.1562L34.3329 25.2677L34.2844 25.3327L34.2393 25.4002L36.8662 27.1562ZM35.9492 28.3867L33.5154 26.3716L33.4637 26.434L33.4153 26.499L35.9492 28.3867ZM24.0488 44.3613L21.4949 46.2219L24.0204 49.6886L26.5828 46.249L24.0488 44.3613ZM12.4297 28.4121L14.9836 26.5515L14.924 26.4697L14.8593 26.3918L12.4297 28.4121ZM11.3057 26.8701L13.9721 25.1746L13.9187 25.0908L13.8602 25.0104L11.3057 26.8701ZM11.0391 26.5039V23.3441H4.8303L8.48451 28.3636L11.0391 26.5039ZM11.0801 26.5039V29.6637H16.642L13.7943 24.8861L11.0801 26.5039ZM9 18.9482L5.8402 18.9482V18.9482H9ZM24.1797 4L24.1797 7.1598C30.8639 7.15984 36.1996 12.4833 36.1996 18.9483L39.3594 18.9482L42.5192 18.9482C42.5191 8.90186 34.2622 0.840274 24.1797 0.840204L24.1797 4ZM39.3594 18.9482H36.1996C36.1996 21.1162 35.6041 23.1414 34.5642 24.886L37.2783 26.5039L39.9925 28.1218C41.5958 25.4321 42.5192 22.2938 42.5192 18.9482H39.3594ZM37.2783 26.5039V29.6637H37.3525V26.5039V23.3441H37.2783V26.5039ZM37.3525 26.5039L34.8193 24.6153L34.3329 25.2677L36.8662 27.1562L39.3995 29.0448L39.8858 28.3925L37.3525 26.5039ZM36.8662 27.1562L34.2393 25.4002C34.0147 25.7362 33.773 26.0604 33.5154 26.3716L35.9492 28.3867L38.3831 30.4018C38.7778 29.9251 39.1483 29.428 39.4931 28.9123L36.8662 27.1562ZM35.9492 28.3867L33.4153 26.499L21.5149 42.4736L24.0488 44.3613L26.5828 46.249L38.4832 30.2744L35.9492 28.3867ZM24.0488 44.3613L26.6028 42.5008L14.9836 26.5515L12.4297 28.4121L9.87575 30.2727L21.4949 46.2219L24.0488 44.3613ZM12.4297 28.4121L14.8593 26.3918C14.5388 26.0065 14.2425 25.5999 13.9721 25.1746L11.3057 26.8701L8.63927 28.5656C9.05284 29.216 9.50723 29.8396 10.0001 30.4324L12.4297 28.4121ZM11.3057 26.8701L13.8602 25.0104L13.5936 24.6442L11.0391 26.5039L8.48451 28.3636L8.75111 28.7298L11.3057 26.8701ZM11.0391 26.5039V29.6637H11.0801V26.5039V23.3441H11.0391V26.5039ZM11.0801 26.5039L13.7943 24.8861C12.7548 23.1421 12.1598 21.1168 12.1598 18.9482H9H5.8402C5.8402 22.2929 6.76232 25.4315 8.36587 28.1217L11.0801 26.5039ZM9 18.9482L12.1598 18.9483C12.1598 12.4833 17.4954 7.1598 24.1797 7.1598V4V0.840204C14.0971 0.840204 5.84024 8.90185 5.8402 18.9482L9 18.9482Z" fill="white" mask="url(#path-1-inside-1_107_797)"/>
<circle cx="24.1796" cy="19.1719" r="5.81678" stroke="white" stroke-width="3.1598"/>
</svg>
