<svg width="48" height="48" viewBox="0 0 48 48" fill="none" xmlns="http://www.w3.org/2000/svg">
<circle cx="19.9427" cy="19.6612" r="13.2711" stroke="white" stroke-width="3"/>
<path d="M29.8009 30.1128C29.9451 29.9738 30.162 29.9522 30.3282 30.0513L30.3956 30.1011L40.8185 39.4204C40.9362 39.5257 41.0137 39.639 41.0529 39.7339C41.0712 39.7783 41.0802 39.8148 41.0831 39.8452L41.0782 39.9194C40.8887 40.6895 40.3231 41.1595 39.6671 41.4185L39.381 41.5171C39.3245 41.5337 39.2544 41.5353 39.1593 41.4985C39.0827 41.4689 38.9959 41.4158 38.9122 41.3384L38.8302 41.2524L29.7726 30.7124C29.6405 30.5585 29.634 30.3378 29.7462 30.1772L29.8009 30.1128Z" fill="white" stroke="white" stroke-width="2"/>
</svg>
