<svg width="48" height="48" viewBox="0 0 48 48" fill="none" xmlns="http://www.w3.org/2000/svg">
<path d="M9.75582 40.3348L9.75538 42.0037H9.75582V40.3348ZM38.3125 40.3348V42.0037H38.3128L38.3125 40.3348ZM39.375 19.7059V18.037H37.7061V19.7059H39.375ZM39.4755 19.7059H41.1444V18.037H39.4755V19.7059ZM38.3125 40.4354V42.1043H38.3128L38.3125 40.4354ZM9.75582 40.4354L9.75542 42.1043H9.75582V40.4354ZM8.59371 19.7059V18.037H6.92483V19.7059H8.59371ZM8.69332 19.7059H10.3622V18.037H8.69332V19.7059ZM23.2343 5.87487L22.1367 4.61775L22.1367 4.61778L23.2343 5.87487ZM24.7636 5.87487L25.8613 4.61781L25.8613 4.61779L24.7636 5.87487ZM43.9306 22.6122L45.2259 21.5598L45.1359 21.449L45.0283 21.3551L43.9306 22.6122ZM43.9433 22.6278L45.453 21.9164L45.3665 21.7329L45.2386 21.5754L43.9433 22.6278ZM43.9355 22.6825L45.1863 23.7874L45.1926 23.7802L43.9355 22.6825ZM43.8828 22.6971L43.0723 24.156L43.2201 24.2381L43.3813 24.2889L43.8828 22.6971ZM43.8652 22.6874L42.7675 23.9445L42.9004 24.0605L43.0547 24.1462L43.8652 22.6874ZM24.6972 5.95007L25.7949 4.69298L25.7946 4.6927L24.6972 5.95007ZM23.2998 5.95007L22.2021 4.69299L22.2021 4.69301L23.2998 5.95007ZM4.13277 22.6874L4.94325 24.1462L5.09754 24.0605L5.23048 23.9444L4.13277 22.6874ZM4.11519 22.6971L4.6342 24.2833L4.78603 24.2336L4.92568 24.156L4.11519 22.6971ZM4.06148 22.6825L2.80073 23.776L2.80905 23.7855L4.06148 22.6825ZM4.06637 22.6122L2.96869 21.3551L2.96168 21.3612L2.95475 21.3674L4.06637 22.6122ZM8.69332 39.2723H7.02443C7.02443 40.7812 8.24774 42.0033 9.75538 42.0037L9.75582 40.3348L9.75626 38.666C10.0905 38.666 10.3622 38.937 10.3622 39.2723H8.69332ZM9.75582 40.3348V42.0037H38.3125V40.3348V38.666H9.75582V40.3348ZM38.3125 40.3348L38.3128 42.0037C39.8206 42.0034 41.0438 40.7812 41.0438 39.2723H39.375H37.7061C37.7061 38.9371 37.9778 38.666 38.3121 38.666L38.3125 40.3348ZM39.375 39.2723H41.0438V19.7059H39.375H37.7061V39.2723H39.375ZM39.375 19.7059V21.3748H39.4755V19.7059V18.037H39.375V19.7059ZM39.4755 19.7059H37.8067V39.2723H39.4755H41.1444V19.7059H39.4755ZM39.4755 39.2723H37.8067C37.8067 38.9923 38.033 38.7666 38.3121 38.7665L38.3125 40.4354L38.3128 42.1043C39.8759 42.104 41.1444 40.8364 41.1444 39.2723H39.4755ZM38.3125 40.4354V38.7665H9.75582V40.4354V42.1043H38.3125V40.4354ZM9.75582 40.4354L9.75622 38.7665C10.0371 38.7666 10.2626 38.994 10.2626 39.2723H8.59371H6.92483C6.92483 40.8346 8.19066 42.1039 9.75542 42.1043L9.75582 40.4354ZM8.59371 39.2723H10.2626V19.7059H8.59371H6.92483V39.2723H8.59371ZM8.59371 19.7059V21.3748H8.69332V19.7059V18.037H8.59371V19.7059ZM8.69332 19.7059H7.02443V39.2723H8.69332H10.3622V19.7059H8.69332ZM23.2343 5.87487L24.332 7.13199C24.1413 7.2985 23.8568 7.29857 23.6659 7.13195L24.7636 5.87487L25.8613 4.61779C24.7945 3.68619 23.2035 3.6863 22.1367 4.61775L23.2343 5.87487ZM24.7636 5.87487L23.6659 7.13193L42.8329 23.8692L43.9306 22.6122L45.0283 21.3551L25.8613 4.61781L24.7636 5.87487ZM43.9306 22.6122L42.6354 23.6646L42.6481 23.6802L43.9433 22.6278L45.2386 21.5754L45.2259 21.5598L43.9306 22.6122ZM43.9433 22.6278L42.4337 23.3392C42.164 22.7671 42.2486 22.0771 42.6784 21.5848L43.9355 22.6825L45.1926 23.7802C45.6494 23.257 45.739 22.5234 45.453 21.9164L43.9433 22.6278ZM43.9355 22.6825L42.6847 21.5776C43.123 21.0815 43.7956 20.9199 44.3843 21.1054L43.8828 22.6971L43.3813 24.2889C44.0065 24.4859 44.7211 24.314 45.1863 23.7874L43.9355 22.6825ZM43.8828 22.6971L44.6933 21.2383L44.6757 21.2285L43.8652 22.6874L43.0547 24.1462L43.0723 24.156L43.8828 22.6971ZM43.8652 22.6874L44.9629 21.4303L25.7949 4.69298L24.6972 5.95007L23.5995 7.20716L42.7675 23.9445L43.8652 22.6874ZM24.6972 5.95007L25.7946 4.6927C24.7658 3.79486 23.2315 3.79411 22.2021 4.69299L23.2998 5.95007L24.3975 7.20715C24.1686 7.40695 23.8279 7.40645 23.5999 7.20743L24.6972 5.95007ZM23.2998 5.95007L22.2021 4.69301L3.03506 21.4303L4.13277 22.6874L5.23048 23.9444L24.3975 7.20713L23.2998 5.95007ZM4.13277 22.6874L3.32229 21.2285L3.30471 21.2383L4.11519 22.6971L4.92568 24.156L4.94325 24.1462L4.13277 22.6874ZM4.11519 22.6971L3.59619 21.111C4.19002 20.9167 4.87177 21.0774 5.31391 21.5795L4.06148 22.6825L2.80905 23.7855C3.27843 24.3184 4.0035 24.4896 4.6342 24.2833L4.11519 22.6971ZM4.06148 22.6825L5.3222 21.589C5.91866 22.2766 5.81902 23.2845 5.17798 23.857L4.06637 22.6122L2.95475 21.3674C2.27299 21.9762 2.16847 23.047 2.80077 23.776L4.06148 22.6825ZM4.06637 22.6122L5.16405 23.8693L24.332 7.13196L23.2343 5.87487L22.1367 4.61778L2.96869 21.3551L4.06637 22.6122Z" fill="#1E3F66"/>
<rect x="17.7897" y="27.0868" width="11.7643" height="13.3974" rx="1.11259" stroke="#1E3F66" stroke-width="3.33777"/>
</svg>
