<svg width="117" height="50" viewBox="0 0 117 50" fill="none" xmlns="http://www.w3.org/2000/svg">
<path d="M13.264 24.6H21.12V25.816H13.264V24.6ZM12.992 27.32H21.424V28.584H12.992V27.32ZM18.08 24.968H19.44V32.056H18.08V24.968ZM14.88 25.032H16.176V28.024C16.176 28.2693 16.144 28.5733 16.08 28.936C16.0267 29.2987 15.92 29.688 15.76 30.104C15.6 30.5093 15.3813 30.904 15.104 31.288C14.8267 31.672 14.464 32.0133 14.016 32.312C13.9093 32.1733 13.76 32.0133 13.568 31.832C13.376 31.6613 13.2 31.5227 13.04 31.416C13.5413 31.1067 13.92 30.744 14.176 30.328C14.4427 29.9013 14.624 29.48 14.72 29.064C14.8267 28.648 14.88 28.296 14.88 28.008V25.032ZM11.312 20.344H15.6V21.384H11.312V20.344ZM18.72 20.344H23.024V21.384H18.72V20.344ZM22.432 18.152H23.936V30.504C23.936 30.9093 23.8827 31.2293 23.776 31.464C23.68 31.7093 23.504 31.896 23.248 32.024C22.9813 32.152 22.64 32.232 22.224 32.264C21.808 32.296 21.2907 32.312 20.672 32.312C20.6613 32.1733 20.6293 32.0133 20.576 31.832C20.5333 31.6507 20.48 31.464 20.416 31.272C20.3627 31.0907 20.2987 30.936 20.224 30.808C20.6293 30.8187 21.0133 30.824 21.376 30.824C21.7387 30.824 21.984 30.824 22.112 30.824C22.2293 30.8133 22.3093 30.7867 22.352 30.744C22.4053 30.6907 22.432 30.6053 22.432 30.488V18.152ZM11.456 18.152H16.544V23.672H11.456V22.552H15.12V19.256H11.456V18.152ZM23.2 18.152V19.256H19.248V22.584H23.2V23.688H17.808V18.152H23.2ZM10.544 18.152H12.032V32.36H10.544V18.152ZM36.656 30.328H42.224V31.656H36.656V30.328ZM35.696 25.736H42.976V32.312H41.52V27.096H37.088V32.344H35.696V25.736ZM40.128 20.376L41.328 19.784C41.6907 20.2533 42.048 20.76 42.4 21.304C42.752 21.8373 43.072 22.3653 43.36 22.888C43.648 23.4107 43.8667 23.88 44.016 24.296L42.72 24.984C42.5813 24.568 42.3733 24.0933 42.096 23.56C41.8187 23.016 41.5093 22.4667 41.168 21.912C40.8267 21.3573 40.48 20.8453 40.128 20.376ZM35.408 24.632C35.3867 24.5253 35.344 24.3867 35.28 24.216C35.2267 24.0347 35.1627 23.8533 35.088 23.672C35.024 23.48 34.9653 23.32 34.912 23.192C35.072 23.1493 35.232 23.0427 35.392 22.872C35.5627 22.6907 35.744 22.456 35.936 22.168C36.032 22.0293 36.176 21.8053 36.368 21.496C36.56 21.176 36.768 20.8027 36.992 20.376C37.2267 19.9493 37.4613 19.4907 37.696 19C37.9307 18.4987 38.144 17.992 38.336 17.48L39.904 17.912C39.584 18.6373 39.232 19.3573 38.848 20.072C38.464 20.776 38.0693 21.448 37.664 22.088C37.2587 22.7173 36.8587 23.288 36.464 23.8V23.832C36.464 23.832 36.4107 23.8587 36.304 23.912C36.1973 23.9653 36.0747 24.0347 35.936 24.12C35.7973 24.1947 35.6747 24.28 35.568 24.376C35.4613 24.4613 35.408 24.5467 35.408 24.632ZM35.408 24.632L35.376 23.416L36.24 22.904L42.88 22.472C42.912 22.6853 42.96 22.92 43.024 23.176C43.088 23.432 43.1413 23.64 43.184 23.8C41.904 23.9173 40.8267 24.0133 39.952 24.088C39.0773 24.152 38.3627 24.2107 37.808 24.264C37.264 24.3173 36.8373 24.3653 36.528 24.408C36.2187 24.44 35.9787 24.4773 35.808 24.52C35.648 24.552 35.5147 24.5893 35.408 24.632ZM29.312 26.248L30.176 25.24C30.592 25.5707 31.04 25.928 31.52 26.312C32.0107 26.696 32.4907 27.0907 32.96 27.496C33.4293 27.8907 33.8667 28.28 34.272 28.664C34.6773 29.0373 35.0133 29.3787 35.28 29.688L34.352 30.888C34.0853 30.568 33.7547 30.2107 33.36 29.816C32.9653 29.4213 32.5387 29.016 32.08 28.6C31.6213 28.184 31.152 27.7733 30.672 27.368C30.2027 26.9627 29.7493 26.5893 29.312 26.248ZM29.312 26.248C29.4933 25.704 29.6693 25.08 29.84 24.376C30.0213 23.6613 30.192 22.9147 30.352 22.136C30.5227 21.3573 30.672 20.5733 30.8 19.784C30.928 18.9947 31.024 18.2533 31.088 17.56L32.496 17.656C32.4 18.3813 32.2827 19.1493 32.144 19.96C32.0053 20.7707 31.8507 21.5813 31.68 22.392C31.5093 23.192 31.328 23.96 31.136 24.696C30.9547 25.4213 30.7787 26.072 30.608 26.648L29.312 26.248ZM33.168 19.752H34.544V21.72C34.544 22.328 34.5173 22.984 34.464 23.688C34.4107 24.392 34.2987 25.1227 34.128 25.88C33.9573 26.6267 33.7013 27.3787 33.36 28.136C33.0187 28.8827 32.5653 29.6133 32 30.328C31.4347 31.032 30.7253 31.6987 29.872 32.328C29.7973 32.2213 29.7013 32.104 29.584 31.976C29.4667 31.848 29.3387 31.7253 29.2 31.608C29.072 31.4907 28.9493 31.3947 28.832 31.32C29.8347 30.6053 30.624 29.8373 31.2 29.016C31.7867 28.184 32.2187 27.3413 32.496 26.488C32.784 25.624 32.9653 24.7867 33.04 23.976C33.1253 23.1547 33.168 22.3973 33.168 21.704V19.752ZM28.912 21.096C29.456 21.0747 30.0693 21.048 30.752 21.016C31.4453 20.9733 32.176 20.936 32.944 20.904C33.7227 20.8613 34.5013 20.8187 35.28 20.776L35.264 22.056C34.1653 22.1307 33.0667 22.2053 31.968 22.28C30.8693 22.344 29.8987 22.4027 29.056 22.456L28.912 21.096ZM56.4 19.544H62.784V20.92H56.4V19.544ZM56.544 17.48L58 17.768C57.7227 18.856 57.344 19.8853 56.864 20.856C56.3947 21.8267 55.8667 22.6427 55.28 23.304C55.1947 23.208 55.072 23.1067 54.912 23C54.7627 22.8827 54.6133 22.7653 54.464 22.648C54.3147 22.5307 54.1813 22.44 54.064 22.376C54.6507 21.8 55.152 21.08 55.568 20.216C55.984 19.352 56.3093 18.44 56.544 17.48ZM59.632 23.016C59.792 24.136 60.0107 25.208 60.288 26.232C60.5653 27.256 60.9227 28.1627 61.36 28.952C61.808 29.7413 62.3627 30.3653 63.024 30.824C62.9067 30.9093 62.7787 31.0267 62.64 31.176C62.512 31.3253 62.3893 31.48 62.272 31.64C62.1547 31.8 62.0587 31.944 61.984 32.072C61.2587 31.5067 60.656 30.7813 60.176 29.896C59.7067 29.0107 59.3227 27.9973 59.024 26.856C58.736 25.7147 58.5067 24.4933 58.336 23.192L59.632 23.016ZM61.76 24.056L62.832 25C62.4053 25.416 61.936 25.8373 61.424 26.264C60.9227 26.68 60.464 27.0373 60.048 27.336L59.136 26.472C59.4133 26.2693 59.712 26.0293 60.032 25.752C60.352 25.4747 60.6667 25.1867 60.976 24.888C61.2853 24.5893 61.5467 24.312 61.76 24.056ZM55.792 32.232L55.648 30.92L56.16 30.392L59.328 29.064C59.328 29.2667 59.344 29.5067 59.376 29.784C59.4187 30.0507 59.4613 30.264 59.504 30.424C58.7787 30.744 58.1867 31.0053 57.728 31.208C57.2693 31.4213 56.912 31.5867 56.656 31.704C56.4 31.832 56.208 31.9333 56.08 32.008C55.9627 32.0933 55.8667 32.168 55.792 32.232ZM50.48 17.896L51.792 17.464C51.9733 17.8053 52.144 18.1787 52.304 18.584C52.464 18.9893 52.5867 19.336 52.672 19.624L51.296 20.12C51.232 19.8107 51.12 19.448 50.96 19.032C50.8 18.616 50.64 18.2373 50.48 17.896ZM48.352 20.072H54.624V21.496H48.352V20.072ZM50.832 23.336H53.488V24.728H50.832V23.336ZM52.896 23.336H54.272C54.272 23.336 54.272 23.3787 54.272 23.464C54.272 23.5387 54.2667 23.624 54.256 23.72C54.256 23.816 54.256 23.9013 54.256 23.976C54.224 25.2773 54.1867 26.3813 54.144 27.288C54.112 28.1947 54.0693 28.936 54.016 29.512C53.9733 30.088 53.9147 30.536 53.84 30.856C53.776 31.176 53.696 31.4053 53.6 31.544C53.4613 31.7467 53.312 31.8853 53.152 31.96C53.0027 32.0453 52.8213 32.104 52.608 32.136C52.4267 32.168 52.1973 32.184 51.92 32.184C51.6533 32.184 51.376 32.1787 51.088 32.168C51.0667 31.9653 51.024 31.736 50.96 31.48C50.896 31.2347 50.8107 31.0213 50.704 30.84C50.9707 30.8613 51.216 30.8773 51.44 30.888C51.664 30.8987 51.8293 30.904 51.936 30.904C52.0533 30.904 52.144 30.888 52.208 30.856C52.272 30.824 52.336 30.7653 52.4 30.68C52.464 30.584 52.5173 30.392 52.56 30.104C52.6133 29.816 52.6613 29.4053 52.704 28.872C52.7467 28.328 52.784 27.6293 52.816 26.776C52.848 25.912 52.8747 24.8613 52.896 23.624V23.336ZM49.984 20.824H51.344V23.832C51.344 24.7173 51.2907 25.6453 51.184 26.616C51.088 27.5867 50.88 28.5573 50.56 29.528C50.2507 30.4987 49.7653 31.432 49.104 32.328C48.9653 32.1893 48.7893 32.04 48.576 31.88C48.3733 31.72 48.176 31.5813 47.984 31.464C48.592 30.632 49.0347 29.7733 49.312 28.888C49.5893 27.992 49.7707 27.112 49.856 26.248C49.9413 25.384 49.984 24.5733 49.984 23.816V20.824ZM61.328 21.272L62.512 22.328C61.9253 22.584 61.2693 22.824 60.544 23.048C59.8293 23.272 59.088 23.4747 58.32 23.656C57.5627 23.8373 56.8213 23.9973 56.096 24.136C56.064 23.976 56 23.7893 55.904 23.576C55.8187 23.352 55.7333 23.1653 55.648 23.016C56.3413 22.8667 57.04 22.7013 57.744 22.52C58.448 22.328 59.1093 22.1253 59.728 21.912C60.3467 21.6987 60.88 21.4853 61.328 21.272ZM55.792 32.232C55.7493 32.1253 55.68 31.9973 55.584 31.848C55.488 31.7093 55.3867 31.5707 55.28 31.432C55.184 31.304 55.0987 31.208 55.024 31.144C55.1627 31.016 55.3013 30.8347 55.44 30.6C55.5787 30.3547 55.648 30.04 55.648 29.656V23.016H57.104V30.6C57.104 30.6 57.056 30.6373 56.96 30.712C56.8747 30.7867 56.768 30.888 56.64 31.016C56.512 31.144 56.3787 31.2773 56.24 31.416C56.112 31.5653 56.0053 31.7093 55.92 31.848C55.8347 31.9973 55.792 32.1253 55.792 32.232ZM73.84 18.44H81.68V19.88H73.84V18.44ZM78.256 23.304H79.792V30.504C79.792 30.9413 79.7333 31.2773 79.616 31.512C79.5093 31.7573 79.3013 31.9387 78.992 32.056C78.6933 32.1733 78.2933 32.2427 77.792 32.264C77.3013 32.2853 76.6773 32.296 75.92 32.296C75.888 32.0827 75.824 31.832 75.728 31.544C75.6427 31.256 75.5467 31.0053 75.44 30.792C75.792 30.8027 76.1333 30.8133 76.464 30.824C76.7947 30.824 77.0827 30.824 77.328 30.824C77.5733 30.824 77.744 30.8187 77.84 30.808C78 30.808 78.1067 30.7867 78.16 30.744C78.224 30.6907 78.256 30.6053 78.256 30.488V23.304ZM73.152 22.856H82.128V24.296H73.152V22.856ZM69.776 24.376L71.104 23.048L71.296 23.128V32.376H69.776V24.376ZM71.616 20.936L73.04 21.48C72.6347 22.1733 72.16 22.8613 71.616 23.544C71.072 24.2267 70.5067 24.872 69.92 25.48C69.3333 26.088 68.752 26.6213 68.176 27.08C68.112 26.9733 68.016 26.84 67.888 26.68C67.76 26.5093 67.6267 26.344 67.488 26.184C67.36 26.0133 67.2427 25.88 67.136 25.784C67.68 25.4 68.224 24.9467 68.768 24.424C69.3227 23.9013 69.8453 23.3413 70.336 22.744C70.8267 22.1467 71.2533 21.544 71.616 20.936ZM70.976 17.48L72.432 18.088C72.0693 18.568 71.648 19.0587 71.168 19.56C70.688 20.0507 70.192 20.5253 69.68 20.984C69.168 21.432 68.6613 21.832 68.16 22.184C68.096 22.0667 68.0107 21.9333 67.904 21.784C67.808 21.624 67.7067 21.4693 67.6 21.32C67.4933 21.1707 67.392 21.048 67.296 20.952C67.744 20.6533 68.1973 20.3067 68.656 19.912C69.1253 19.5173 69.5627 19.1067 69.968 18.68C70.3733 18.2533 70.7093 17.8533 70.976 17.48Z" fill="white"/>
<g clip-path="url(#clip0_400_8514)">
<path d="M112.931 29.1732L106.487 35.4046C106.109 35.7706 105.512 35.7804 105.121 35.4272L101.874 32.4884L97.9334 28.9219" stroke="white" stroke-width="2" stroke-linecap="round"/>
<path d="M106.822 14.7062C106.822 14.1539 106.375 13.7062 105.822 13.7063C105.27 13.7063 104.822 14.154 104.822 14.7063L106.822 14.7062ZM105.823 35.0549L106.823 35.0549L106.822 14.7062L105.822 14.7063L104.822 14.7063L104.823 35.055L105.823 35.0549Z" fill="white"/>
</g>
<defs>
<clipPath id="clip0_400_8514">
<rect width="20" height="26" fill="white" transform="matrix(0.999986 0.00520378 0.00520378 -0.999986 95.9316 37.9996)"/>
</clipPath>
</defs>
</svg>
