<svg width="123" height="123" viewBox="0 0 123 123" fill="none" xmlns="http://www.w3.org/2000/svg">
<g clip-path="url(#clip0_605_4326)">
<path d="M101.028 86.232C101.028 80.6414 101.028 72.2088 101.028 64.7245M101.123 107.501C101.101 108.747 100.681 110.09 99.9685 110.841C98.3526 112.546 96.2652 112.764 95.0389 112.777H19.1895C18.9246 112.781 18.2515 112.636 17.6789 112.029C17.1064 111.422 16.9444 110.006 16.935 109.373V62.2806V16.1747C16.8912 15.036 17.5716 12.7586 20.6436 12.7586C23.7156 12.7586 70.4286 12.7586 93.4011 12.7586C94.7909 12.7254 97.8242 13.0387 99.169 14.3835C99.7611 14.9333 101.028 16.6365 101.028 19.2247C101.028 19.5851 101.028 67.5 101.028 69.2652" stroke="#1E3F66" stroke-width="1.10345" stroke-linecap="round"/>
<path d="M15.2423 13.4817C15.2423 12.2628 16.2304 11.2748 17.4492 11.2748H93.7086C96.7557 11.2748 99.2258 13.7449 99.2258 16.792V105.729C99.2258 108.776 96.7557 111.246 93.7086 111.246H17.4492C16.2303 111.246 15.2423 110.258 15.2423 109.04V13.4817Z" fill="#FFDA7C"/>
<path d="M99.1443 84.6986C99.1443 63.4413 99.1443 20.2795 99.1443 17.6913C99.1443 15.1031 97.8778 13.3999 97.2857 12.8501C95.9409 11.5053 92.9075 11.1921 91.5177 11.2252C68.5452 11.2252 21.8322 11.2252 18.7603 11.2252C15.6883 11.2252 15.0079 13.5026 15.0516 14.6413V60.7472V107.84C15.0611 108.472 15.223 109.888 15.7956 110.496C16.3682 111.103 17.0412 111.247 17.3062 111.244H93.1556C94.3819 111.23 96.4692 111.013 98.0851 109.308C98.798 108.556 99.2174 107.213 99.2401 105.968" stroke="#1E3F66" stroke-width="1.10345" stroke-linecap="round"/>
<circle cx="60.6263" cy="56.7201" r="28.3344" fill="#51667E" stroke="#1E3F66" stroke-width="6.53345"/>
<circle cx="60.6263" cy="56.7202" r="31.2745" stroke="#5C728C" stroke-width="0.653345"/>
<path d="M42.5645 56.2776C41.4699 50.0084 45.1767 43.6728 47.1669 42.5947C55.0035 35.7532 69.9303 41.5996 74.1595 45.2069C76.8491 47.501 78.8863 51.6752 78.8863 56.2776C78.8863 60.0093 78.8863 67.4727 70.9254 72.0751C62.9644 76.6775 56.9937 72.1995 54.2571 67.7214C51.5206 63.2434 43.9328 64.1142 42.5645 56.2776Z" fill="#F7F2EA"/>
<ellipse cx="65.0456" cy="55.8766" rx="8.79441" ry="8.87113" fill="#FFD670"/>
<rect x="80.6382" y="82.9475" width="9.36289" height="2.88087" transform="rotate(-43.9077 80.6382 82.9475)" fill="#5C728C"/>
<path d="M114.119 103.456C115.456 104.733 115.467 106.865 114.144 108.156L111.93 110.316C110.613 111.601 108.495 111.545 107.247 110.192L84.0519 85.0356L89.3918 79.8267L114.119 103.456ZM108.686 102.91C108.226 102.455 107.485 102.458 107.029 102.917C106.574 103.377 106.578 104.119 107.037 104.574L109.848 107.358L111.496 105.694L108.686 102.91Z" fill="#1E3F66"/>
<path d="M74.3827 65.9332C77.7177 62.5328 77.8767 53.9 77.577 50.0038C78.3451 51.2427 78.6685 52.519 78.8654 53.7453C79.5743 58.1587 78.671 62.0698 78.0832 63.9379C77.5987 65.7932 74.6474 70.8511 68.1346 73.4429C65.3372 74.5435 61.7818 74.0529 59.4758 72.8985C56.769 71.5434 55.2761 69.4506 54.2132 67.6359C57.9405 71.1016 63.1299 70.9466 65.4731 70.6741C67.0534 70.5106 71.0478 69.3336 74.3827 65.9332Z" fill="#E9DED3"/>
<path d="M20.8788 84.2249L20.8788 104.459M20.8787 16.8915L20.8787 79.9379" stroke="#1E3F66" stroke-width="0.551724"/>
</g>
<defs>
<clipPath id="clip0_605_4326">
<rect width="123" height="123" fill="white"/>
</clipPath>
</defs>
</svg>
