<svg width="110" height="94" viewBox="0 0 110 94" fill="none" xmlns="http://www.w3.org/2000/svg">
<path d="M78.5874 68.9604C78.5874 63.8939 78.5874 52.7448 78.5874 45.9622M78.6742 88.2358C78.6537 89.3643 78.2736 90.5813 77.6275 91.2628C76.1631 92.8074 74.2714 93.0048 73.1601 93.0168H4.42157C4.18145 93.0201 3.5715 92.8892 3.05261 92.3389C2.53373 91.7885 2.38694 90.5052 2.37841 89.9324V47.2544V5.47093C2.33872 4.43899 2.95535 2.37512 5.73934 2.37512C8.52332 2.37512 50.857 2.37512 71.6758 2.37512C72.9353 2.34508 75.6843 2.62894 76.903 3.84769C77.4396 4.34591 78.5874 5.88949 78.5874 8.23501C78.5874 8.56163 78.5874 9.60126 78.5874 11.201" stroke="#1E3F66" stroke-linecap="round"/>
<rect x="80.6515" y="33.9358" width="2.95048" height="27.5873" transform="rotate(30 80.6515 33.9358)" fill="#1E3F66"/>
<path d="M83.7846 3.95678C85.1328 1.18709 88.5544 0.152874 91.2114 1.71166L106.719 10.8093C109.424 12.3964 110.159 15.9763 108.3 18.5017L95.3081 36.1492C93.7035 38.3287 90.7118 38.9443 88.3774 37.5749L76.2954 30.4871C73.9149 29.0904 73.0105 26.0967 74.2182 23.615L83.7846 3.95678ZM101.424 13.0857C100.915 12.7864 100.259 12.9622 99.9682 13.4763L90.0883 30.9421C89.8044 31.444 89.9753 32.0812 90.4721 32.3738L91.2299 32.8201C91.7276 33.1128 92.3689 32.9518 92.6694 32.4587L103.111 15.323C103.418 14.8191 103.253 14.1613 102.745 13.8621L101.424 13.0857ZM95.6313 9.67748C95.1221 9.37798 94.4662 9.55404 94.1752 10.0681L84.2954 27.5339C84.0114 28.036 84.182 28.6731 84.6791 28.9656L85.437 29.4119C85.9346 29.7046 86.575 29.5436 86.8754 29.0505L97.3178 11.9148C97.6246 11.4108 97.4592 10.753 96.9506 10.4539L95.6313 9.67748ZM89.8383 6.26928C89.3292 5.96977 88.6733 6.14594 88.3823 6.65991L78.5014 24.1267C78.2178 24.6287 78.3892 25.265 78.8862 25.5574L79.644 26.0037C80.1416 26.2963 80.782 26.1353 81.0825 25.6423L91.5239 8.50659C91.8309 8.00259 91.6663 7.34489 91.1577 7.04565L89.8383 6.26928Z" fill="#5C728C"/>
<path d="M0.844421 3.03021C0.844421 1.92564 1.73985 1.03021 2.84442 1.03021H71.9545C74.7159 1.03021 76.9545 3.26879 76.9545 6.03021V86.6296C76.9545 89.391 74.7159 91.6295 71.9545 91.6295H2.84442C1.73985 91.6295 0.844421 90.7341 0.844421 89.6295V3.03021Z" fill="#FFDA7C"/>
<circle cx="38.8994" cy="39.141" r="22.9216" fill="#51667E" stroke="#1E3F66" stroke-width="5.28535"/>
<circle cx="38.8995" cy="39.1409" r="25.3001" stroke="#5C728C" stroke-width="0.528535"/>
<path d="M24.288 38.783C23.4025 33.7114 26.4012 28.5861 28.0112 27.714C34.3507 22.1794 46.426 26.909 49.8474 29.8271C52.0232 31.683 53.6712 35.0598 53.6712 38.783C53.6712 41.8018 53.6712 47.8394 47.231 51.5627C40.7909 55.2859 35.9608 51.6633 33.747 48.0407C31.5332 44.4181 25.3949 45.1225 24.288 38.783Z" fill="#F7F2EA"/>
<ellipse cx="42.4745" cy="38.4586" rx="7.1144" ry="7.17647" fill="#FFD670"/>
<path d="M17.6495 74.5973C17.9145 74.5973 18.2195 74.6348 18.5645 74.7098C18.9145 74.7848 19.1695 74.8648 19.3295 74.9498V76.4048H19.0445C18.5845 75.6198 17.9745 75.2273 17.2145 75.2273C16.8845 75.2273 16.582 75.3248 16.307 75.5198C16.037 75.7098 15.8245 75.9773 15.6695 76.3223C15.5145 76.6623 15.437 77.0448 15.437 77.4698C15.437 77.9598 15.512 78.4073 15.662 78.8123C15.817 79.2173 16.0495 79.5423 16.3595 79.7873C16.6745 80.0323 17.062 80.1548 17.522 80.1548C17.947 80.1548 18.557 79.8348 19.352 79.1948L19.577 79.5548L18.197 80.6273C18.012 80.6923 17.832 80.7348 17.657 80.7548C17.487 80.7798 17.302 80.7923 17.102 80.7923C16.577 80.7923 16.112 80.6648 15.707 80.4098C15.302 80.1548 14.987 79.8048 14.762 79.3598C14.537 78.9098 14.4245 78.3998 14.4245 77.8298C14.4245 77.2448 14.5945 76.7048 14.9345 76.2098C15.2745 75.7098 15.697 75.3173 16.202 75.0323C16.707 74.7423 17.1895 74.5973 17.6495 74.5973ZM24.1768 74.5973C24.7068 74.5973 25.1743 74.7248 25.5793 74.9798C25.9893 75.2348 26.3068 75.5873 26.5318 76.0373C26.7568 76.4873 26.8693 76.9973 26.8693 77.5673C26.8693 78.1523 26.6993 78.6923 26.3593 79.1873C26.0193 79.6823 25.5968 80.0748 25.0918 80.3648C24.5868 80.6498 24.1043 80.7923 23.6443 80.7923C23.1143 80.7923 22.6443 80.6673 22.2343 80.4173C21.8293 80.1623 21.5143 79.8098 21.2893 79.3598C21.0643 78.9098 20.9518 78.3998 20.9518 77.8298C20.9518 77.2448 21.1218 76.7048 21.4618 76.2098C21.8018 75.7098 22.2243 75.3173 22.7293 75.0323C23.2343 74.7423 23.7168 74.5973 24.1768 74.5973ZM23.7418 75.2273C23.4118 75.2273 23.1093 75.3248 22.8343 75.5198C22.5643 75.7098 22.3518 75.9773 22.1968 76.3223C22.0418 76.6623 21.9643 77.0448 21.9643 77.4698C21.9643 77.9598 22.0418 78.4098 22.1968 78.8198C22.3518 79.2248 22.5868 79.5498 22.9018 79.7948C23.2218 80.0398 23.6143 80.1623 24.0793 80.1623C24.4093 80.1623 24.7093 80.0673 24.9793 79.8773C25.2543 79.6823 25.4693 79.4148 25.6243 79.0748C25.7793 78.7298 25.8568 78.3448 25.8568 77.9198C25.8568 77.4248 25.7793 76.9748 25.6243 76.5698C25.4693 76.1598 25.2343 75.8348 24.9193 75.5948C24.6043 75.3498 24.2118 75.2273 23.7418 75.2273ZM31.5171 74.5973C32.0471 74.5973 32.5146 74.7248 32.9196 74.9798C33.3296 75.2348 33.6471 75.5873 33.8721 76.0373C34.0971 76.4873 34.2096 76.9973 34.2096 77.5673C34.2096 78.1523 34.0396 78.6923 33.6996 79.1873C33.3596 79.6823 32.9371 80.0748 32.4321 80.3648C31.9271 80.6498 31.4446 80.7923 30.9846 80.7923C30.4546 80.7923 29.9846 80.6673 29.5746 80.4173C29.1696 80.1623 28.8546 79.8098 28.6296 79.3598C28.4046 78.9098 28.2921 78.3998 28.2921 77.8298C28.2921 77.2448 28.4621 76.7048 28.8021 76.2098C29.1421 75.7098 29.5646 75.3173 30.0696 75.0323C30.5746 74.7423 31.0571 74.5973 31.5171 74.5973ZM31.0821 75.2273C30.7521 75.2273 30.4496 75.3248 30.1746 75.5198C29.9046 75.7098 29.6921 75.9773 29.5371 76.3223C29.3821 76.6623 29.3046 77.0448 29.3046 77.4698C29.3046 77.9598 29.3821 78.4098 29.5371 78.8198C29.6921 79.2248 29.9271 79.5498 30.2421 79.7948C30.5621 80.0398 30.9546 80.1623 31.4196 80.1623C31.7496 80.1623 32.0496 80.0673 32.3196 79.8773C32.5946 79.6823 32.8096 79.4148 32.9646 79.0748C33.1196 78.7298 33.1971 78.3448 33.1971 77.9198C33.1971 77.4248 33.1196 76.9748 32.9646 76.5698C32.8096 76.1598 32.5746 75.8348 32.2596 75.5948C31.9446 75.3498 31.5521 75.2273 31.0821 75.2273ZM37.9875 80.3423L37.8375 80.6423H35.5575V80.4098L36.2625 79.8548V75.3098L35.4825 75.0473L35.6325 74.7473H37.9125V74.9798L37.2 75.5348V80.0723L37.9875 80.3423ZM41.31 80.6423H39.9525L37.6275 77.6873L39.93 75.6773L39.06 75.0473L39.21 74.7473H41.2275V74.9798L38.5275 77.3348L40.59 79.9148L41.46 80.3423L41.31 80.6423ZM45.2201 77.7698C45.5601 77.7698 45.8276 77.6773 46.0226 77.4923C46.2226 77.3073 46.3226 77.0523 46.3226 76.7273C46.3226 76.2673 46.2051 75.8923 45.9701 75.6023C45.7401 75.3073 45.4026 75.1598 44.9576 75.1598C44.6176 75.1598 44.3076 75.2573 44.0276 75.4523V80.0273L45.1901 80.3498L45.0401 80.6498H42.3851V80.4173L43.0901 79.8623V75.3023L42.3101 75.0473L42.4601 74.7473H43.3301C43.8151 74.7473 44.2926 74.7323 44.7626 74.7023C45.1126 74.6823 45.3701 74.6723 45.5351 74.6723C45.8851 74.6723 46.1951 74.7473 46.4651 74.8973C46.7401 75.0423 46.9526 75.2448 47.1026 75.5048C47.2526 75.7648 47.3276 76.0523 47.3276 76.3673C47.3276 76.7173 47.2001 77.0473 46.9451 77.3573C46.6901 77.6673 46.3651 77.9098 45.9701 78.0848C45.5751 78.2598 45.1876 78.3373 44.8076 78.3173L44.4551 78.0623L44.6051 77.7623H45.2126L45.2201 77.7698ZM53.7022 80.6423H51.4222V80.4098L52.1272 79.8623L51.5497 78.4748H49.0297L48.4147 79.8923L49.7347 80.3423L49.5847 80.6423H47.3047V80.4098L48.0097 79.8548L50.1322 74.9873L50.9122 74.6048L53.1022 79.8848L53.8522 80.3423L53.7022 80.6423ZM50.3197 75.5048L49.1797 78.1373H51.4147L50.3197 75.5048ZM57.9931 79.3148C57.9931 79.1598 57.9306 79.0148 57.8056 78.8798C57.6806 78.7448 57.5231 78.6223 57.3331 78.5123C57.1481 78.3973 56.8956 78.2573 56.5756 78.0923C56.1956 77.8923 55.8906 77.7223 55.6606 77.5823C55.4306 77.4373 55.2331 77.2673 55.0681 77.0723C54.9081 76.8773 54.8281 76.6623 54.8281 76.4273C54.8281 76.1773 54.9331 75.9098 55.1431 75.6248C55.3531 75.3348 55.6081 75.0923 55.9081 74.8973C56.2131 74.6973 56.4931 74.5973 56.7481 74.5973C57.0581 74.5973 57.4181 74.6348 57.8281 74.7098C58.2381 74.7848 58.5381 74.8648 58.7281 74.9498V76.4048H58.4431C58.1981 75.9998 57.9281 75.6848 57.6331 75.4598C57.3431 75.2348 57.0381 75.1223 56.7181 75.1223C56.4331 75.1223 56.2056 75.2123 56.0356 75.3923C55.8706 75.5673 55.7881 75.7973 55.7881 76.0823C55.7881 76.2473 55.8506 76.4023 55.9756 76.5473C56.1056 76.6873 56.2631 76.8123 56.4481 76.9223C56.6381 77.0323 56.9006 77.1748 57.2356 77.3498C57.6056 77.5348 57.9056 77.6998 58.1356 77.8448C58.3656 77.9848 58.5581 78.1498 58.7131 78.3398C58.8731 78.5248 58.9531 78.7348 58.9531 78.9698C58.9531 79.2198 58.8406 79.4898 58.6156 79.7798C58.3906 80.0648 58.1156 80.3073 57.7906 80.5073C57.4706 80.7023 57.1781 80.7998 56.9131 80.7998C56.5881 80.7998 56.2006 80.7623 55.7506 80.6873C55.3056 80.6123 54.9856 80.5323 54.7906 80.4473V78.9923H55.0756C55.3306 79.3973 55.6206 79.7123 55.9456 79.9373C56.2706 80.1623 56.6056 80.2748 56.9506 80.2748C57.1556 80.2748 57.3381 80.2298 57.4981 80.1398C57.6581 80.0498 57.7806 79.9323 57.8656 79.7873C57.9506 79.6373 57.9931 79.4798 57.9931 79.3148ZM63.6195 79.3148C63.6195 79.1598 63.557 79.0148 63.432 78.8798C63.307 78.7448 63.1495 78.6223 62.9595 78.5123C62.7745 78.3973 62.522 78.2573 62.202 78.0923C61.822 77.8923 61.517 77.7223 61.287 77.5823C61.057 77.4373 60.8595 77.2673 60.6945 77.0723C60.5345 76.8773 60.4545 76.6623 60.4545 76.4273C60.4545 76.1773 60.5595 75.9098 60.7695 75.6248C60.9795 75.3348 61.2345 75.0923 61.5345 74.8973C61.8395 74.6973 62.1195 74.5973 62.3745 74.5973C62.6845 74.5973 63.0445 74.6348 63.4545 74.7098C63.8645 74.7848 64.1645 74.8648 64.3545 74.9498V76.4048H64.0695C63.8245 75.9998 63.5545 75.6848 63.2595 75.4598C62.9695 75.2348 62.6645 75.1223 62.3445 75.1223C62.0595 75.1223 61.832 75.2123 61.662 75.3923C61.497 75.5673 61.4145 75.7973 61.4145 76.0823C61.4145 76.2473 61.477 76.4023 61.602 76.5473C61.732 76.6873 61.8895 76.8123 62.0745 76.9223C62.2645 77.0323 62.527 77.1748 62.862 77.3498C63.232 77.5348 63.532 77.6998 63.762 77.8448C63.992 77.9848 64.1845 78.1498 64.3395 78.3398C64.4995 78.5248 64.5795 78.7348 64.5795 78.9698C64.5795 79.2198 64.467 79.4898 64.242 79.7798C64.017 80.0648 63.742 80.3073 63.417 80.5073C63.097 80.7023 62.8045 80.7998 62.5395 80.7998C62.2145 80.7998 61.827 80.7623 61.377 80.6873C60.932 80.6123 60.612 80.5323 60.417 80.4473V78.9923H60.702C60.957 79.3973 61.247 79.7123 61.572 79.9373C61.897 80.1623 62.232 80.2748 62.577 80.2748C62.782 80.2748 62.9645 80.2298 63.1245 80.1398C63.2845 80.0498 63.407 79.9323 63.492 79.7873C63.577 79.6373 63.6195 79.4798 63.6195 79.3148Z" fill="#3A5779"/>
<path d="M76.8806 67.5709C76.8806 48.3064 76.8806 9.19102 76.8806 6.8455C76.8806 4.49998 75.7328 2.9564 75.1962 2.45817C73.9775 1.23943 71.2285 0.95557 69.969 0.985614C49.1502 0.985614 6.81653 0.985614 4.03255 0.985614C1.24857 0.985614 0.631938 3.04948 0.671621 4.08142V45.8649V88.5428C0.680155 89.1157 0.826944 90.399 1.34583 90.9493C1.86471 91.4997 2.47467 91.6306 2.71478 91.6273H71.4533C72.5646 91.6152 74.4563 91.4179 75.9207 89.8732C76.5668 89.1918 76.9469 87.9748 76.9674 86.8463" stroke="#1E3F66" stroke-linecap="round"/>
<rect x="55.0885" y="60.3582" width="7.57428" height="2.33053" transform="rotate(-43.9077 55.0885 60.3582)" fill="#5C728C"/>
<path d="M82.1742 76.9486C83.2555 77.982 83.2644 79.7068 82.1938 80.7513L80.4027 82.4984C79.3372 83.5377 77.6237 83.492 76.6147 82.3978L57.85 62.0472L62.1703 57.8334L82.1742 76.9486ZM77.7777 76.5072C77.406 76.139 76.8061 76.1413 76.4379 76.5131C76.0697 76.8848 76.073 77.4847 76.4447 77.8529L78.7182 80.1049L80.0512 78.7592L77.7777 76.5072Z" fill="#1E3F66"/>
<path d="M50.028 46.594C52.7258 43.8432 52.8544 36.8596 52.612 33.7076C53.2334 34.7099 53.495 35.7424 53.6543 36.7344C54.2277 40.3047 53.4971 43.4687 53.0215 44.9799C52.6295 46.4807 50.242 50.5724 44.9734 52.6692C42.7104 53.5595 39.8342 53.1626 37.9687 52.2287C35.779 51.1325 34.5712 49.4395 33.7114 47.9714C36.7267 50.7751 40.9248 50.6497 42.8204 50.4293C44.0988 50.297 47.3301 49.3448 50.028 46.594Z" fill="#E9DED3"/>
<path d="M5.95245 67.1413L5.95245 85.4781M5.9524 6.12041L5.9524 63.2562" stroke="#1E3F66" stroke-width="0.5"/>
</svg>
