<svg width="302" height="116" viewBox="0 0 302 116" fill="none" xmlns="http://www.w3.org/2000/svg">
<path d="M81.5875 79.9604C81.5875 74.8939 81.5875 67.2519 81.5875 60.4693M81.6743 99.2358C81.6538 100.364 81.2737 101.581 80.6276 102.263C79.1632 103.807 77.2716 104.005 76.1602 104.017H7.42169C7.18157 104.02 6.57162 103.889 6.05274 103.339C5.53385 102.789 5.38706 101.505 5.37853 100.932V58.2544V16.4709C5.33885 15.439 5.95548 13.3751 8.73946 13.3751C11.5234 13.3751 53.8571 13.3751 74.6759 13.3751C75.9354 13.3451 78.6844 13.6289 79.9031 14.8477C80.4397 15.3459 81.5875 16.8895 81.5875 19.235C81.5875 19.5616 81.5875 48.561 81.5875 50.1608" stroke="#1E3F66" stroke-linecap="round"/>
<rect x="68.9998" y="53.0002" width="25" height="5" fill="#1E3F66"/>
<path d="M129.034 36.157C132.13 35.9446 134.814 38.4464 134.827 41.5574L134.956 72.4467C134.968 75.4903 132.415 77.8439 129.377 77.589L99.7683 75.1022C96.9772 74.8678 94.791 72.5027 94.7801 69.7064L94.6768 43.3342C94.6662 40.6042 96.7357 38.3741 99.4523 38.1876L129.034 36.157ZM128.076 64.9835C128.074 64.3913 127.585 63.9026 126.993 63.9L102.491 63.7943C101.916 63.792 101.458 64.2492 101.459 64.824L101.466 67.1184C101.467 67.6943 101.93 68.1759 102.506 68.2014L127.011 69.2857C127.602 69.3118 128.087 68.8476 128.085 68.256L128.076 64.9835ZM128.046 55.0672C128.044 54.4748 127.556 53.9853 126.963 53.9828L102.461 53.878C101.887 53.8757 101.429 54.3336 101.43 54.9085L101.437 57.2029C101.438 57.7787 101.901 58.2596 102.476 58.2851L126.981 59.3693C127.573 59.3955 128.057 58.9312 128.056 58.3397L128.046 55.0672ZM128.017 45.1504C128.016 44.5581 127.527 44.0694 126.935 44.0668L102.433 43.9634C101.858 43.9609 101.399 44.4184 101.4 44.9935L101.408 47.2875C101.409 47.8633 101.872 48.345 102.448 48.3704L126.953 49.4525C127.544 49.4785 128.028 49.0146 128.026 48.4233L128.017 45.1504Z" fill="#5C728C"/>
<path d="M3.84454 14.0302C3.84454 12.9256 4.73997 12.0302 5.84454 12.0302H74.9546C77.716 12.0302 79.9546 14.2688 79.9546 17.0302V97.6296C79.9546 100.391 77.716 102.63 74.9546 102.63H5.84454C4.73997 102.63 3.84454 101.734 3.84454 100.63V14.0302Z" fill="#FFDA7C"/>
<circle cx="41.8996" cy="50.141" r="22.9216" fill="#51667E" stroke="#1E3F66" stroke-width="5.28535"/>
<circle cx="41.8996" cy="50.1409" r="25.3001" stroke="#5C728C" stroke-width="0.528535"/>
<path d="M27.2881 49.783C26.4026 44.7114 29.4013 39.5861 31.0113 38.714C37.3508 33.1794 49.4261 37.909 52.8475 40.8271C55.0233 42.683 56.6713 46.0598 56.6713 49.783C56.6713 52.8018 56.6713 58.8394 50.2312 62.5627C43.791 66.2859 38.9609 62.6633 36.7471 59.0407C34.5333 55.4181 28.395 56.1225 27.2881 49.783Z" fill="#F7F2EA"/>
<ellipse cx="45.4746" cy="49.4586" rx="7.1144" ry="7.17647" fill="#FFD670"/>
<path d="M20.6496 85.5973C20.9146 85.5973 21.2196 85.6348 21.5646 85.7098C21.9146 85.7848 22.1696 85.8648 22.3296 85.9498V87.4048H22.0446C21.5846 86.6198 20.9746 86.2273 20.2146 86.2273C19.8846 86.2273 19.5821 86.3248 19.3071 86.5198C19.0371 86.7098 18.8246 86.9773 18.6696 87.3223C18.5146 87.6623 18.4371 88.0448 18.4371 88.4698C18.4371 88.9598 18.5121 89.4073 18.6621 89.8123C18.8171 90.2173 19.0496 90.5423 19.3596 90.7873C19.6746 91.0323 20.0621 91.1548 20.5221 91.1548C20.9471 91.1548 21.5571 90.8348 22.3521 90.1948L22.5771 90.5548L21.1971 91.6273C21.0121 91.6923 20.8321 91.7348 20.6571 91.7548C20.4871 91.7798 20.3021 91.7923 20.1021 91.7923C19.5771 91.7923 19.1121 91.6648 18.7071 91.4098C18.3021 91.1548 17.9871 90.8048 17.7621 90.3598C17.5371 89.9098 17.4246 89.3998 17.4246 88.8298C17.4246 88.2448 17.5946 87.7048 17.9346 87.2098C18.2746 86.7098 18.6971 86.3173 19.2021 86.0323C19.7071 85.7423 20.1896 85.5973 20.6496 85.5973ZM27.1769 85.5973C27.7069 85.5973 28.1744 85.7248 28.5794 85.9798C28.9894 86.2348 29.3069 86.5873 29.5319 87.0373C29.7569 87.4873 29.8694 87.9973 29.8694 88.5673C29.8694 89.1523 29.6994 89.6923 29.3594 90.1873C29.0194 90.6823 28.5969 91.0748 28.0919 91.3648C27.5869 91.6498 27.1044 91.7923 26.6444 91.7923C26.1144 91.7923 25.6444 91.6673 25.2344 91.4173C24.8294 91.1623 24.5144 90.8098 24.2894 90.3598C24.0644 89.9098 23.9519 89.3998 23.9519 88.8298C23.9519 88.2448 24.1219 87.7048 24.4619 87.2098C24.8019 86.7098 25.2244 86.3173 25.7294 86.0323C26.2344 85.7423 26.7169 85.5973 27.1769 85.5973ZM26.7419 86.2273C26.4119 86.2273 26.1094 86.3248 25.8344 86.5198C25.5644 86.7098 25.3519 86.9773 25.1969 87.3223C25.0419 87.6623 24.9644 88.0448 24.9644 88.4698C24.9644 88.9598 25.0419 89.4098 25.1969 89.8198C25.3519 90.2248 25.5869 90.5498 25.9019 90.7948C26.2219 91.0398 26.6144 91.1623 27.0794 91.1623C27.4094 91.1623 27.7094 91.0673 27.9794 90.8773C28.2544 90.6823 28.4694 90.4148 28.6244 90.0748C28.7794 89.7298 28.8569 89.3448 28.8569 88.9198C28.8569 88.4248 28.7794 87.9748 28.6244 87.5698C28.4694 87.1598 28.2344 86.8348 27.9194 86.5948C27.6044 86.3498 27.2119 86.2273 26.7419 86.2273ZM34.5173 85.5973C35.0473 85.5973 35.5148 85.7248 35.9198 85.9798C36.3298 86.2348 36.6473 86.5873 36.8723 87.0373C37.0973 87.4873 37.2098 87.9973 37.2098 88.5673C37.2098 89.1523 37.0398 89.6923 36.6998 90.1873C36.3598 90.6823 35.9373 91.0748 35.4323 91.3648C34.9273 91.6498 34.4448 91.7923 33.9848 91.7923C33.4548 91.7923 32.9848 91.6673 32.5748 91.4173C32.1698 91.1623 31.8548 90.8098 31.6298 90.3598C31.4048 89.9098 31.2923 89.3998 31.2923 88.8298C31.2923 88.2448 31.4623 87.7048 31.8023 87.2098C32.1423 86.7098 32.5648 86.3173 33.0698 86.0323C33.5748 85.7423 34.0573 85.5973 34.5173 85.5973ZM34.0823 86.2273C33.7523 86.2273 33.4498 86.3248 33.1748 86.5198C32.9048 86.7098 32.6923 86.9773 32.5373 87.3223C32.3823 87.6623 32.3048 88.0448 32.3048 88.4698C32.3048 88.9598 32.3823 89.4098 32.5373 89.8198C32.6923 90.2248 32.9273 90.5498 33.2423 90.7948C33.5623 91.0398 33.9548 91.1623 34.4198 91.1623C34.7498 91.1623 35.0498 91.0673 35.3198 90.8773C35.5948 90.6823 35.8098 90.4148 35.9648 90.0748C36.1198 89.7298 36.1973 89.3448 36.1973 88.9198C36.1973 88.4248 36.1198 87.9748 35.9648 87.5698C35.8098 87.1598 35.5748 86.8348 35.2598 86.5948C34.9448 86.3498 34.5523 86.2273 34.0823 86.2273ZM40.9876 91.3423L40.8376 91.6423H38.5576V91.4098L39.2626 90.8548V86.3098L38.4826 86.0473L38.6326 85.7473H40.9126V85.9798L40.2001 86.5348V91.0723L40.9876 91.3423ZM44.3101 91.6423H42.9526L40.6276 88.6873L42.9301 86.6773L42.0601 86.0473L42.2101 85.7473H44.2276V85.9798L41.5276 88.3348L43.5901 90.9148L44.4601 91.3423L44.3101 91.6423ZM48.2202 88.7698C48.5602 88.7698 48.8277 88.6773 49.0227 88.4923C49.2227 88.3073 49.3227 88.0523 49.3227 87.7273C49.3227 87.2673 49.2052 86.8923 48.9702 86.6023C48.7402 86.3073 48.4027 86.1598 47.9577 86.1598C47.6177 86.1598 47.3077 86.2573 47.0277 86.4523V91.0273L48.1902 91.3498L48.0402 91.6498H45.3852V91.4173L46.0902 90.8623V86.3023L45.3102 86.0473L45.4602 85.7473H46.3302C46.8152 85.7473 47.2927 85.7323 47.7627 85.7023C48.1127 85.6823 48.3702 85.6723 48.5352 85.6723C48.8852 85.6723 49.1952 85.7473 49.4652 85.8973C49.7402 86.0423 49.9527 86.2448 50.1027 86.5048C50.2527 86.7648 50.3277 87.0523 50.3277 87.3673C50.3277 87.7173 50.2002 88.0473 49.9452 88.3573C49.6902 88.6673 49.3652 88.9098 48.9702 89.0848C48.5752 89.2598 48.1877 89.3373 47.8077 89.3173L47.4552 89.0623L47.6052 88.7623H48.2127L48.2202 88.7698ZM56.7023 91.6423H54.4223V91.4098L55.1273 90.8623L54.5498 89.4748H52.0298L51.4148 90.8923L52.7348 91.3423L52.5848 91.6423H50.3048V91.4098L51.0098 90.8548L53.1323 85.9873L53.9123 85.6048L56.1023 90.8848L56.8523 91.3423L56.7023 91.6423ZM53.3198 86.5048L52.1798 89.1373H54.4148L53.3198 86.5048ZM60.9932 90.3148C60.9932 90.1598 60.9307 90.0148 60.8057 89.8798C60.6807 89.7448 60.5232 89.6223 60.3332 89.5123C60.1482 89.3973 59.8957 89.2573 59.5757 89.0923C59.1957 88.8923 58.8907 88.7223 58.6607 88.5823C58.4307 88.4373 58.2332 88.2673 58.0682 88.0723C57.9082 87.8773 57.8282 87.6623 57.8282 87.4273C57.8282 87.1773 57.9332 86.9098 58.1432 86.6248C58.3532 86.3348 58.6082 86.0923 58.9082 85.8973C59.2132 85.6973 59.4932 85.5973 59.7482 85.5973C60.0582 85.5973 60.4182 85.6348 60.8282 85.7098C61.2382 85.7848 61.5382 85.8648 61.7282 85.9498V87.4048H61.4432C61.1982 86.9998 60.9282 86.6848 60.6332 86.4598C60.3432 86.2348 60.0382 86.1223 59.7182 86.1223C59.4332 86.1223 59.2057 86.2123 59.0357 86.3923C58.8707 86.5673 58.7882 86.7973 58.7882 87.0823C58.7882 87.2473 58.8507 87.4023 58.9757 87.5473C59.1057 87.6873 59.2632 87.8123 59.4482 87.9223C59.6382 88.0323 59.9007 88.1748 60.2357 88.3498C60.6057 88.5348 60.9057 88.6998 61.1357 88.8448C61.3657 88.9848 61.5582 89.1498 61.7132 89.3398C61.8732 89.5248 61.9532 89.7348 61.9532 89.9698C61.9532 90.2198 61.8407 90.4898 61.6157 90.7798C61.3907 91.0648 61.1157 91.3073 60.7907 91.5073C60.4707 91.7023 60.1782 91.7998 59.9132 91.7998C59.5882 91.7998 59.2007 91.7623 58.7507 91.6873C58.3057 91.6123 57.9857 91.5323 57.7907 91.4473V89.9923H58.0757C58.3307 90.3973 58.6207 90.7123 58.9457 90.9373C59.2707 91.1623 59.6057 91.2748 59.9507 91.2748C60.1557 91.2748 60.3382 91.2298 60.4982 91.1398C60.6582 91.0498 60.7807 90.9323 60.8657 90.7873C60.9507 90.6373 60.9932 90.4798 60.9932 90.3148ZM66.6197 90.3148C66.6197 90.1598 66.5572 90.0148 66.4322 89.8798C66.3072 89.7448 66.1497 89.6223 65.9597 89.5123C65.7747 89.3973 65.5222 89.2573 65.2022 89.0923C64.8222 88.8923 64.5172 88.7223 64.2872 88.5823C64.0572 88.4373 63.8597 88.2673 63.6947 88.0723C63.5347 87.8773 63.4547 87.6623 63.4547 87.4273C63.4547 87.1773 63.5597 86.9098 63.7697 86.6248C63.9797 86.3348 64.2347 86.0923 64.5347 85.8973C64.8397 85.6973 65.1197 85.5973 65.3747 85.5973C65.6847 85.5973 66.0447 85.6348 66.4547 85.7098C66.8647 85.7848 67.1647 85.8648 67.3547 85.9498V87.4048H67.0697C66.8247 86.9998 66.5547 86.6848 66.2597 86.4598C65.9697 86.2348 65.6647 86.1223 65.3447 86.1223C65.0597 86.1223 64.8322 86.2123 64.6622 86.3923C64.4972 86.5673 64.4147 86.7973 64.4147 87.0823C64.4147 87.2473 64.4772 87.4023 64.6022 87.5473C64.7322 87.6873 64.8897 87.8123 65.0747 87.9223C65.2647 88.0323 65.5272 88.1748 65.8622 88.3498C66.2322 88.5348 66.5322 88.6998 66.7622 88.8448C66.9922 88.9848 67.1847 89.1498 67.3397 89.3398C67.4997 89.5248 67.5797 89.7348 67.5797 89.9698C67.5797 90.2198 67.4672 90.4898 67.2422 90.7798C67.0172 91.0648 66.7422 91.3073 66.4172 91.5073C66.0972 91.7023 65.8047 91.7998 65.5397 91.7998C65.2147 91.7998 64.8272 91.7623 64.3772 91.6873C63.9322 91.6123 63.6122 91.5323 63.4172 91.4473V89.9923H63.7022C63.9572 90.3973 64.2472 90.7123 64.5722 90.9373C64.8972 91.1623 65.2322 91.2748 65.5772 91.2748C65.7822 91.2748 65.9647 91.2298 66.1247 91.1398C66.2847 91.0498 66.4072 90.9323 66.4922 90.7873C66.5772 90.6373 66.6197 90.4798 66.6197 90.3148Z" fill="#3A5779"/>
<path d="M79.8807 78.5709C79.8807 59.3064 79.8807 20.191 79.8807 17.8455C79.8807 15.5 78.7329 13.9564 78.1964 13.4582C76.9776 12.2394 74.2286 11.9556 72.9691 11.9856C52.1503 11.9856 9.81666 11.9856 7.03267 11.9856C4.24869 11.9856 3.63206 14.0495 3.67174 15.0814V56.8649V99.5428C3.68028 100.116 3.82707 101.399 4.34595 101.949C4.86483 102.5 5.47479 102.631 5.7149 102.627H74.4534C75.5648 102.615 77.4564 102.418 78.9208 100.873C79.5669 100.192 79.947 98.9748 79.9675 97.8463" stroke="#1E3F66" stroke-linecap="round"/>
<rect x="58.0886" y="71.3582" width="7.57428" height="2.33053" transform="rotate(-43.9077 58.0886 71.3582)" fill="#5C728C"/>
<path d="M85.1743 87.9486C86.2557 88.982 86.2645 90.7068 85.1939 91.7513L83.4029 93.4984C82.3373 94.5377 80.6239 94.492 79.6148 93.3978L60.8501 73.0472L65.1704 68.8334L85.1743 87.9486ZM80.7779 87.5072C80.4061 87.139 79.8063 87.1413 79.438 87.5131C79.0699 87.8848 79.0732 88.4847 79.4449 88.8529L81.7183 91.1049L83.0513 89.7592L80.7779 87.5072Z" fill="#1E3F66"/>
<path d="M53.0281 57.594C55.726 54.8432 55.8546 47.8596 55.6121 44.7076C56.2335 45.7099 56.4951 46.7424 56.6544 47.7344C57.2279 51.3047 56.4972 54.4687 56.0217 55.9799C55.6297 57.4807 53.2422 61.5724 47.9735 63.6692C45.7106 64.5595 42.8343 64.1626 40.9688 63.2287C38.7791 62.1325 37.5714 60.4395 36.7115 58.9714C39.7268 61.7751 43.9249 61.6497 45.8205 61.4293C47.0989 61.297 50.3302 60.3448 53.0281 57.594Z" fill="#E9DED3"/>
<path d="M8.95257 78.1413L8.95257 96.4781M8.95252 17.1204L8.95252 74.2562" stroke="#1E3F66" stroke-width="0.5"/>
<path d="M107.293 31.9141C106.023 31.7755 104.868 32.4454 104.729 33.3694L104.521 34.3627C104.313 35.3329 104.059 36.3031 103.805 37.2733C103.551 38.2435 103.551 38.2435 103.551 38.2435C103.251 39.1675 104.013 40.1146 105.26 40.3456L105.445 40.3687C106.692 40.5997 108.148 39.8605 108.702 38.7055C108.702 38.7055 108.841 38.4052 109.464 36.9037C110.088 35.4253 110.412 34.5244 110.412 34.5244C110.85 33.3232 110.181 32.2375 108.91 32.0989L107.293 31.9141Z" fill="#1E3F66"/>
<path d="M180.279 35.7579C181.785 33.9508 183.15 34.5971 183.644 35.1461C185.477 36.3916 184.487 38.0114 183.762 38.6655C182.561 39.9296 179.707 42.2559 178.43 43.2611C173.217 47.3065 157.322 55.3271 154.307 56.8865C151.292 58.4459 149.161 58.7058 148.122 58.7058C147.082 58.7058 144.171 57.4063 143.651 56.0028C143.235 54.88 144.275 54.1489 144.847 53.9236C145.595 53.7989 153.734 50.8652 157.71 49.4139C159.793 48.6813 165.315 46.1299 167.815 44.9457C168.846 44.3446 171.176 42.9609 172.25 42.2347C173.323 41.5085 176.197 39.3361 177.499 38.3406C178.004 37.9723 179.563 36.4654 180.279 35.7579Z" fill="#1E3F66"/>
<path d="M161.81 51.5277H178.369C182.596 51.5277 183.841 54.5413 183.935 56.0482C184.217 64.8062 177.994 67.3733 174.847 67.5618H163.713C155.427 67.5616 154.106 59.8858 154.482 56.0482C154.482 52.2061 159.368 51.4336 161.81 51.5277ZM162.346 60.5726C161.156 60.5726 160.767 61.1938 160.766 61.9261C160.766 62.6585 161.156 63.2796 162.346 63.2796H176.041C177.231 63.2795 177.604 62.6584 177.604 61.9261C177.604 61.1938 177.23 60.5727 176.041 60.5726H162.346ZM162.346 54.8021C161.156 54.8021 160.767 55.4233 160.766 56.1556C160.766 56.888 161.156 57.5101 162.346 57.5101H176.041C177.231 57.51 177.604 56.8879 177.604 56.1556C177.604 55.4234 177.23 54.8022 176.041 54.8021H162.346Z" fill="#1E3F66"/>
<path d="M146.441 46.4481C146.441 45.2469 147.48 44.2767 148.751 44.2767H187.166C188.437 44.2767 189.476 45.2469 189.476 46.4481C189.476 47.6493 188.437 48.6196 187.166 48.6196H148.751C147.48 48.6196 146.441 47.6493 146.441 46.4481ZM150.737 38.8251C150.737 37.6701 151.777 36.7 153.047 36.7H175.316C176.586 36.7 177.626 37.647 177.626 38.8251C177.626 40.0032 176.586 40.9503 175.316 40.9503H153.047C151.777 40.9503 150.737 40.0032 150.737 38.8251ZM162.149 35.8452C162.149 34.5747 163.188 33.5352 164.459 33.5352H165.082C166.353 33.5352 167.392 34.5747 167.392 35.8452V44.2767C167.392 45.5472 166.353 46.5867 165.082 46.5867H164.459C163.188 46.5867 162.149 45.5472 162.149 44.2767V35.8452Z" fill="#1E3F66"/>
<path d="M150.553 69.8946C151.153 68.7627 152.632 68.1391 153.856 68.4625L154.272 68.578C155.496 68.9245 156.027 70.1257 155.45 71.2576C155.45 71.2576 154.803 72.5281 153.671 74.1913C152.539 75.8545 151.684 76.7091 151.684 76.7091C150.807 77.61 149.143 77.8872 148.012 77.3328L147.457 77.0556C146.325 76.4781 146.164 75.3231 147.111 74.4684C147.111 74.4684 147.711 73.9371 148.843 72.4356C150.021 70.911 150.553 69.8946 150.553 69.8946Z" fill="#1E3F66"/>
<path d="M159.977 72.1584C159.792 70.911 160.67 69.7792 161.941 69.6406L162.172 69.6175C163.442 69.502 164.667 70.4029 164.921 71.6503C164.921 71.6503 165.013 72.0661 165.221 73.5676C165.429 75.0691 165.429 75.0691 165.429 75.0691C165.521 76.3396 164.551 77.4946 163.281 77.6563L162.703 77.7256C161.433 77.8873 160.37 76.9633 160.347 75.6928C160.347 75.6928 160.347 75.6928 160.208 74.1451C160.047 72.6205 159.977 72.1584 159.977 72.1584Z" fill="#1E3F66"/>
<path d="M170.372 71.9275C169.91 70.7494 170.534 69.5944 171.781 69.3634L172.059 69.3172C173.306 69.0862 174.761 69.8485 175.269 71.0266C175.269 71.0266 175.477 71.4886 176.009 72.967C176.54 74.4454 176.563 74.5378 176.563 74.5378C176.886 75.7621 176.124 76.9864 174.877 77.2405L174.253 77.3791C173.006 77.6332 171.781 76.8247 171.527 75.5773C171.527 75.5773 171.504 75.4849 171.042 73.9603C170.58 72.4126 170.372 71.9275 170.372 71.9275Z" fill="#1E3F66"/>
<path d="M180.906 71.4654C180.144 70.449 180.467 69.2479 181.668 68.7859L181.945 68.6704C183.124 68.2084 184.764 68.6242 185.595 69.5944C185.595 69.5944 185.595 69.5944 186.381 70.6339C187.166 71.6734 187.905 72.6667 188.575 73.6369C189.245 74.6071 189.245 74.6071 189.245 74.6071C189.753 75.508 189.199 76.6398 188.021 77.1249L187.374 77.3791C186.196 77.8642 184.856 77.5176 184.394 76.5936C184.394 76.5936 184.394 76.5937 183.747 75.5773C183.1 74.5609 182.407 73.5445 181.668 72.4819C180.929 71.5117 180.906 71.4654 180.906 71.4654Z" fill="#1E3F66"/>
<path d="M253.486 37.5316C253.486 36.2611 254.526 35.2216 255.796 35.2216H292.34C293.611 35.2216 294.65 36.2611 294.65 37.5316V76.1548C294.65 77.4253 293.611 78.4648 292.34 78.4648H291.901C290.631 78.4648 289.591 77.4253 289.591 76.1548V41.7589C289.591 40.4884 288.552 39.4489 287.281 39.4489H260.624C259.353 39.4489 258.314 40.4884 258.314 41.7589V76.1316C258.314 77.4021 257.274 78.4417 256.004 78.4417H255.796C254.526 78.4417 253.486 77.4021 253.486 76.1316V37.5316ZM256.535 74.5609C256.535 73.3828 257.575 72.4126 258.845 72.4126H289.845C291.116 72.4126 292.155 73.3828 292.155 74.5609C292.155 75.739 291.116 76.7092 289.845 76.7092H258.845C257.575 76.7092 256.535 75.739 256.535 74.5609ZM260.093 51.9922C260.093 51.2068 261.132 50.5369 262.403 50.5369H285.641C286.912 50.5369 287.951 51.1837 287.951 51.9922C287.951 52.7776 286.912 53.4475 285.641 53.4475H262.403C261.132 53.4244 260.093 52.7776 260.093 51.9922ZM262.657 57.3745C262.657 56.104 263.696 55.0645 264.967 55.0645H282.892C284.163 55.0645 285.202 56.104 285.202 57.3745V68.2315C285.202 69.502 284.163 70.5414 282.892 70.5414H264.967C263.696 70.5414 262.657 69.502 262.657 68.2315V57.3745ZM264.228 43.5607C264.228 42.2902 265.267 41.2507 266.538 41.2507H281.252C282.523 41.2507 283.562 42.2902 283.562 43.5607V46.6099C283.562 47.8804 282.523 48.9199 281.252 48.9199H266.538C265.267 48.9199 264.228 47.8804 264.228 46.6099V43.5607ZM268.917 57.9289C267.646 57.9289 266.607 58.9684 266.607 60.2389V65.344C266.607 66.6145 267.646 67.654 268.917 67.654H278.711C279.982 67.654 281.021 66.6145 281.021 65.344V60.2389C281.021 58.9684 279.982 57.9289 278.711 57.9289H268.917ZM270.696 43.8841C269.425 43.8841 269.52 44.4154 269.52 45.0391C269.52 45.6859 269.425 46.1941 270.696 46.1941H276.909C278.18 46.1941 277.93 45.6628 277.93 45.0391C277.93 44.3923 278.18 43.8841 276.909 43.8841H270.696ZM268.871 61.8559C268.871 60.5854 269.91 59.5459 271.181 59.5459H276.54C277.81 59.5459 278.85 60.5854 278.85 61.8559V63.7039C278.85 64.9744 277.81 66.0139 276.54 66.0139H271.181C269.91 66.0139 268.871 64.9744 268.871 63.7039V61.8559ZM271.573 49.4281C271.573 48.1576 272.567 47.1181 273.768 47.1181C274.969 47.1181 275.962 48.1576 275.962 49.4281V49.5205C275.962 50.791 274.969 51.8305 273.768 51.8305C272.567 51.8305 271.573 50.791 271.573 49.5205V49.4281ZM273.791 61.8328C272.682 61.8328 271.758 62.2717 271.758 62.803C271.758 63.3343 272.659 63.7732 273.791 63.7732C274.923 63.7732 275.824 63.3343 275.824 62.803C275.824 62.2717 274.9 61.8328 273.791 61.8328Z" fill="#1E3F66"/>
<path d="M271.897 57.3514H271.989L281.137 57.5824L282.523 66.5914L277.672 68.6704L266.353 68.4394L265.66 60.8164L267.508 56.4274L271.897 57.3514Z" fill="#1E3F66"/>
<path d="M267.208 62.2255C267.623 60.7933 269.148 59.7538 270.95 59.0839C272.544 58.5064 274.207 58.2523 275.2 58.2523L275.593 58.2754C276.748 58.3909 278.111 59.0608 279.012 60.2158C279.797 61.2091 281.137 62.9416 279.982 65.2978L279.866 65.5288C279.196 66.7762 278.249 67.3075 277.325 67.5154C276.494 67.6771 275.593 67.5616 274.831 67.3306L274.507 67.2151C273.907 66.9841 273.306 66.961 272.752 66.9841C272.474 67.0072 272.197 67.0303 271.943 67.0534C271.689 67.0765 271.435 67.1227 271.181 67.1227C270.696 67.1689 270.234 67.1689 269.818 67.0765C269.448 66.9841 269.079 66.8224 268.686 66.5221L268.524 66.3835C267.785 65.7136 267.346 64.8358 267.161 64.0042C267.069 63.5884 267.023 63.2188 267.046 62.9185C267.046 62.6875 267.092 62.5258 267.115 62.4334L267.138 62.3641L267.161 62.3179L267.208 62.2255Z" fill="white" stroke="#1E3F66"/>
<path d="M275.339 64.6509C276.831 64.6509 278.041 63.4409 278.041 61.9482C278.041 60.4556 276.831 59.2455 275.339 59.2455C273.846 59.2455 272.636 60.4556 272.636 61.9482C272.636 63.4409 273.846 64.6509 275.339 64.6509Z" fill="#F3A712"/>
<path d="M205.507 43.6992H206.57C207.563 43.6992 208.372 44.5077 208.372 45.501V50.4906C208.372 51.7611 208.349 53.8401 208.303 55.1106C208.303 55.1106 208.21 58.206 207.91 61.1397C207.61 64.0734 206.963 67.0071 206.016 69.9639C205.253 72.297 204.191 74.5377 202.805 76.7091C202.227 77.61 201.003 77.7948 200.171 77.148C200.079 77.0787 199.963 77.0094 199.871 76.917C199.686 76.7784 199.501 76.6398 199.317 76.5243C198.531 75.9699 198.323 74.9073 198.832 74.0988C200.102 72.0429 201.072 69.9408 201.742 67.7925C202.551 65.136 203.082 62.5026 203.336 59.9385C203.567 57.3744 203.636 55.0182 203.636 55.0182C203.659 53.7477 203.706 51.6687 203.706 50.3982V45.501C203.706 44.5077 204.514 43.6992 205.507 43.6992ZM198.97 43.4451C198.97 42.1746 200.01 41.1351 201.28 41.1351H215.648C216.919 41.1351 217.958 42.1746 217.958 43.4451V43.653C217.958 44.9235 216.919 45.963 215.648 45.963H201.28C200.01 45.963 198.97 44.9235 198.97 43.653V43.4451ZM213.385 51.0681H216.18C216.688 51.0681 217.104 51.4839 217.104 51.9921V52.3386C217.104 52.6389 217.08 52.893 217.057 53.124C217.057 53.1471 217.057 53.1933 217.057 53.2164C216.965 57.0741 216.85 60.3774 216.734 63.0801C216.619 65.8059 216.503 68.0235 216.364 69.7791C216.226 71.5347 216.064 72.8976 215.833 73.8678C215.602 74.838 215.602 74.838 215.602 74.838C215.302 75.4617 214.655 76.455 214.147 77.0556C214.147 77.0556 214.147 77.0556 213.662 77.3097C213.177 77.5638 212.622 77.7486 211.975 77.8872C211.398 77.9796 210.705 78.0258 209.873 78.0258C209.296 78.0258 208.695 78.0258 208.095 78.0027C207.656 78.0027 207.286 77.6793 207.217 77.2404C207.148 76.7784 207.032 76.2702 206.87 75.7158C206.847 75.6003 206.801 75.4848 206.778 75.3693C206.501 74.4915 207.171 73.5906 208.095 73.6368H208.141C208.765 73.6599 209.25 73.683 209.619 73.683C209.943 73.683 210.197 73.6368 210.382 73.5444C210.566 73.452 210.774 73.2441 210.959 72.9669C211.144 72.6666 211.329 72.1122 211.467 71.2806C211.606 70.449 211.744 69.2247 211.883 67.6077C212.022 65.9907 212.114 63.9117 212.23 61.3707C212.322 58.8066 212.414 54.3021 212.414 54.3021C212.437 53.0316 212.461 51.9921 212.461 51.9921C212.484 51.4839 212.876 51.0681 213.385 51.0681ZM209.042 51.0681H214.078C215.371 51.0681 216.434 52.1307 216.434 53.4243C216.434 54.7179 215.371 55.7805 214.078 55.7805H209.042C207.748 55.7805 206.686 54.7179 206.686 53.4243C206.686 52.1307 207.748 51.0681 209.042 51.0681ZM222.925 35.6604C223.271 34.4361 224.565 33.6276 225.812 33.8817L226.297 33.9741C227.545 34.2051 228.261 35.4063 227.891 36.6306C227.891 36.6306 226.598 40.9272 225.142 43.884C223.987 46.2402 222.717 48.2961 221.331 50.0517C220.776 50.7447 219.737 50.8602 219.044 50.3058L219.021 50.2827C218.513 49.89 217.981 49.4973 217.473 49.1046C217.45 49.1046 217.45 49.0815 217.427 49.0815C216.78 48.5964 216.688 47.6493 217.219 47.0487C218.513 45.5472 219.668 43.7916 220.661 41.7126C221.955 39.0792 222.925 35.6604 222.925 35.6604ZM238.587 46.2402L239.695 47.2566C240.642 48.1113 240.365 49.6821 239.141 50.1441C238.032 50.5599 236.877 50.9526 235.676 51.3222C233.482 51.9921 231.218 52.6158 228.931 53.1471C227.175 53.5629 225.443 53.9556 223.71 54.279C222.879 54.4407 222.047 53.9787 221.77 53.1933C221.701 53.0085 221.631 52.8237 221.562 52.6389V52.6158C221.169 51.6225 221.747 50.5137 222.786 50.2827C224.149 49.9824 225.535 49.6359 226.944 49.2663C229.069 48.7119 231.056 48.1113 232.927 47.4645C234.359 46.9794 235.63 46.4712 236.739 45.963C237.362 45.6627 238.078 45.7782 238.587 46.2402ZM223.502 41.8281C223.502 40.5576 224.542 39.5181 225.812 39.5181H240.319C241.59 39.5181 242.629 40.5576 242.629 41.8281V41.8743C242.629 43.1448 241.59 44.1843 240.319 44.1843H225.812C224.542 44.1843 223.502 43.1448 223.502 41.8743V41.8281ZM232.396 50.7216C233.112 50.6292 233.759 51.1143 233.874 51.8304C234.313 54.6255 234.844 57.3051 235.514 59.8923C236.277 62.8722 237.316 65.5056 238.61 67.8156C239.626 69.6405 240.827 71.1882 242.236 72.4356C242.791 72.9207 242.837 73.7754 242.329 74.3298C242.26 74.3991 242.19 74.4915 242.121 74.5608C241.659 75.069 241.243 75.6003 240.85 76.1547C240.781 76.2471 240.712 76.3395 240.666 76.4319C240.204 77.0787 239.28 77.1942 238.702 76.6398C237.062 75.1152 235.699 73.2672 234.567 71.0958C233.181 68.4393 232.072 65.4132 231.241 62.0406C230.502 59.0607 229.901 55.8498 229.439 52.4541C229.347 51.738 229.855 51.0681 230.571 50.9757L232.396 50.7216ZM237.894 55.0413C238.656 54.1635 240.042 54.1173 240.989 54.972L241.197 55.1568C242.144 55.9884 242.167 57.3975 241.243 58.2522C241.243 58.2522 240.25 59.1762 238.748 60.4236C237.247 61.671 236.485 62.2485 236.485 62.2485C235.468 63.0108 233.967 62.9877 233.135 62.1792C232.303 61.3707 232.373 60.1002 233.297 59.3841C233.297 59.3841 233.297 59.3841 234.221 58.5525C235.145 57.7209 236.069 56.8431 236.993 55.9422C237.894 55.0413 237.894 55.0413 237.894 55.0413Z" fill="#1E3F66"/>
<path d="M215.833 73.9141C215.833 73.9141 215.533 75.8314 215.302 76.2934C215.209 76.5013 214.909 76.8016 214.609 76.9864C214.216 77.2405 213.777 77.3791 213.084 77.5639" fill="#1E3F66"/>
<path d="M208.21 78.0028C208.21 78.0028 213.916 78.511 215.186 76.4782C216.457 74.4454 216.757 62.8723 216.757 62.8723" fill="#1E3F66"/>
<path d="M221.932 76.3242C223.249 75.829 221.991 76.7507 222.152 76.7969C222.314 76.8431 221.793 77.0788 221.862 76.9633C221.862 76.9633 221.862 76.9632 221.932 76.8708C222.232 76.3857 222.578 75.9006 223.017 75.4155C223.456 74.9304 223.895 74.4916 224.311 74.0758C224.75 73.66 224.75 73.6599 224.75 73.6599C225.373 73.1286 225.882 71.6503 225.882 70.3798V52.5927C225.882 51.3222 224.842 50.2827 223.572 50.2827H223.225C221.955 50.2827 220.915 51.3222 220.915 52.5927V67.3998C220.915 68.6703 220.915 69.8022 220.915 69.9408C220.915 70.0794 220.915 70.6292 220.915 70.8602C220.915 71.0912 220.915 72.7297 220.915 72.8683C220.915 72.8683 221.199 72.0967 221.176 72.2353C221.696 72.3277 221.467 72.3226 221.467 72.3226C221.444 72.415 221.45 72.3714 221.381 72.7641C221.312 73.1568 221.192 74.5131 221.146 74.7903C221.1 75.0675 221.241 75.173 221.518 75.5657C221.518 75.5657 221.433 75.8332 221.664 76.1797C221.864 76.0442 221.932 76.3242 221.932 76.3242Z" fill="#1E3F66"/>
<path d="M241.959 72.1815C241.959 72.1815 243.946 73.5213 243.715 74.2143C243.484 74.9073 240.273 76.7553 240.273 76.7553L240.019 73.0593L241.959 72.1815Z" fill="#1E3F66"/>
<path d="M212.602 39.3582C211.308 40.184 208.038 41.7964 205.308 41.6424L204.302 38.6492C207.353 36.3189 210.011 35.9027 211.498 35.7908L212.602 39.3582ZM208.226 29.7508C209.061 29.4206 210.9 29.047 211.583 30.1912C211.594 30.195 211.605 30.1999 211.615 30.2039C212.313 32.6087 211.503 34.5298 210.771 35.4774C210.26 35.5487 209.769 35.6488 209.3 35.7703C210.411 33.7819 209.403 31.9479 208.738 31.2635C209.825 33.3135 209.325 35.0985 208.856 35.8944C208.001 36.1475 207.221 36.4692 206.522 36.8162C206.389 35.7626 205.925 33.6231 204.137 32.9012C204.912 33.4512 206.144 35.1689 206.099 37.034C205.518 37.3432 204.997 37.665 204.539 37.9686C202.823 37.5089 201.71 36.1569 201.359 35.5135C201.663 36.8692 203.286 37.7923 204.25 38.1639C204.22 38.1847 204.189 38.2058 204.159 38.2264L204.151 38.202C203.546 38.4405 202.147 38.8457 201.399 38.5594C200.65 38.2731 200.389 37.5774 200.353 37.2655C200.261 36.7697 200.309 35.625 201.234 35.0086C201.16 34.1369 201.503 32.3552 203.463 32.201C203.931 31.0174 205.539 28.87 208.226 29.7508ZM211.856 30.3055C212.577 30.6503 213.595 31.4632 213.401 32.7244C213.205 33.9944 212.242 34.9523 211.631 35.3895C211.505 35.3986 211.38 35.4073 211.256 35.4198C212.507 33.6012 212.357 31.7019 211.856 30.3055Z" fill="#1E3F66"/>
<path d="M225.289 69.4678C225.299 69.4861 225.773 70.3979 226.395 71.1826C226.109 71.3435 225.809 71.5264 225.809 71.5771C225.809 71.6674 225.881 71.9921 226.062 71.9561C226.165 71.9352 226.472 71.7457 226.735 71.5771C226.826 71.6741 226.918 71.7658 227.012 71.8486C226.743 72.0796 226.422 72.3724 226.434 72.4277C226.452 72.5161 226.589 72.819 226.758 72.7471C226.867 72.7004 227.192 72.3875 227.429 72.1523C227.612 72.2543 227.794 72.3113 227.97 72.3018C228.767 72.2576 229.406 72.2763 229.728 72.291C229.449 72.9049 229.148 73.8443 229.697 74.4189C229.506 74.0228 229.533 73.0433 229.948 72.3008C229.952 72.3011 229.954 72.3017 229.955 72.3018C229.955 72.3018 231.219 70.8543 233.174 71.5801C234.779 72.2017 234.795 73.4495 234.755 73.8555C234.024 74.1715 232.403 74.7253 230.315 75.3145C231.83 75.0906 233.429 74.7306 234.834 74.2549L234.978 74.6582C234.964 74.6715 234.452 75.1669 231.314 75.8809C228.184 76.5933 227.722 76.504 227.708 76.501L227.36 75.792L227.151 76.6221C227.11 76.6353 222.928 77.9646 222.08 77.7568L221.745 77.0723C223.085 76.9293 224.506 76.6485 225.823 76.2959C223.933 76.5488 222.384 76.6844 221.496 76.7139C221.079 76.0709 220.308 74.5971 220.87 73.1445C220.914 72.768 220.956 72.4382 220.99 72.1504C223.219 72.1292 224.908 71.2653 225.232 70.9404C223.635 71.4728 222.017 71.5241 221.082 71.3916C221.171 70.6815 221.208 70.416 221.209 70.4102L225.289 69.4678Z" fill="#1E3F66"/>
</svg>
