<svg width="139" height="94" viewBox="0 0 139 94" fill="none" xmlns="http://www.w3.org/2000/svg">
<path d="M78.5876 68.9604C78.5876 63.8939 78.5876 56.2519 78.5876 49.4693M78.6743 88.2358C78.6538 89.3643 78.2737 90.5813 77.6276 91.2628C76.1632 92.8074 74.2716 93.0048 73.1602 93.0168H4.42172C4.18161 93.0201 3.57165 92.8892 3.05277 92.3389C2.53388 91.7885 2.38709 90.5052 2.37856 89.9324V47.2544V5.47093C2.33888 4.43899 2.95551 2.37512 5.73949 2.37512C8.52347 2.37512 50.8571 2.37512 71.6759 2.37512C72.9355 2.34508 75.6844 2.62894 76.9032 3.84769C77.4397 4.34591 78.5876 5.88949 78.5876 8.23501C78.5876 8.56163 78.5876 37.561 78.5876 39.1608" stroke="#1E3F66" stroke-linecap="round"/>
<rect x="66" y="42" width="25" height="5" fill="#1E3F66"/>
<path d="M133.051 25.0435C136.122 24.86 138.762 27.3383 138.778 30.4207L138.94 61.4375C138.956 64.4629 136.434 66.8231 133.412 66.6105L96.8558 64.0371C94.0451 63.8392 91.8293 61.4765 91.8154 58.6624L91.6863 32.3998C91.6729 29.6424 93.782 27.3897 96.5293 27.2255L133.051 25.0435ZM132.141 53.9808C132.139 53.3902 131.653 52.904 131.062 52.9019L100.901 52.8056C100.325 52.8039 99.8642 53.2651 99.8664 53.8416L99.8755 56.1288C99.8781 56.7058 100.343 57.185 100.92 57.2058L131.085 58.296C131.675 58.3172 132.156 57.8507 132.154 57.2606L132.141 53.9808ZM132.103 44.0637C132.101 43.473 131.614 42.9873 131.024 42.9852L100.863 42.8884C100.287 42.8866 99.8263 43.3478 99.8286 43.9244L99.8372 46.2108C99.8394 46.788 100.304 47.2683 100.882 47.2892L131.046 48.3785C131.636 48.3999 132.118 47.9336 132.116 47.3434L132.103 44.0637ZM132.064 34.147C132.062 33.5563 131.576 33.0705 130.985 33.0686L100.825 32.9718C100.248 32.9699 99.7876 33.4312 99.7899 34.0078L99.799 36.295C99.8014 36.872 100.266 37.3516 100.843 37.3726L131.007 38.4627C131.598 38.484 132.079 38.017 132.077 37.4268L132.064 34.147Z" fill="#5C728C"/>
<path d="M0.844574 3.03021C0.844574 1.92564 1.74 1.03021 2.84457 1.03021H71.9547C74.7161 1.03021 76.9547 3.26879 76.9547 6.03021V86.6296C76.9547 89.391 74.7161 91.6295 71.9547 91.6295H2.84457C1.74 91.6295 0.844574 90.7341 0.844574 89.6295V3.03021Z" fill="#FFDA7C"/>
<circle cx="38.8996" cy="39.141" r="22.9216" fill="#51667E" stroke="#1E3F66" stroke-width="5.28535"/>
<circle cx="38.8996" cy="39.1409" r="25.3001" stroke="#5C728C" stroke-width="0.528535"/>
<path d="M24.2881 38.783C23.4026 33.7114 26.4013 28.5861 28.0113 27.714C34.3509 22.1794 46.4262 26.909 49.8475 29.8271C52.0233 31.683 53.6713 35.0598 53.6713 38.783C53.6713 41.8018 53.6713 47.8394 47.2312 51.5627C40.791 55.2859 35.9609 51.6633 33.7471 48.0407C31.5333 44.4181 25.395 45.1225 24.2881 38.783Z" fill="#F7F2EA"/>
<ellipse cx="42.4747" cy="38.4586" rx="7.1144" ry="7.17647" fill="#FFD670"/>
<path d="M17.6496 74.5973C17.9146 74.5973 18.2196 74.6348 18.5646 74.7098C18.9146 74.7848 19.1696 74.8648 19.3296 74.9498V76.4048H19.0446C18.5846 75.6198 17.9746 75.2273 17.2146 75.2273C16.8846 75.2273 16.5821 75.3248 16.3071 75.5198C16.0371 75.7098 15.8246 75.9773 15.6696 76.3223C15.5146 76.6623 15.4371 77.0448 15.4371 77.4698C15.4371 77.9598 15.5121 78.4073 15.6621 78.8123C15.8171 79.2173 16.0496 79.5423 16.3596 79.7873C16.6746 80.0323 17.0621 80.1548 17.5221 80.1548C17.9471 80.1548 18.5571 79.8348 19.3521 79.1948L19.5771 79.5548L18.1971 80.6273C18.0121 80.6923 17.8321 80.7348 17.6571 80.7548C17.4871 80.7798 17.3021 80.7923 17.1021 80.7923C16.5771 80.7923 16.1121 80.6648 15.7071 80.4098C15.3021 80.1548 14.9871 79.8048 14.7621 79.3598C14.5371 78.9098 14.4246 78.3998 14.4246 77.8298C14.4246 77.2448 14.5946 76.7048 14.9346 76.2098C15.2746 75.7098 15.6971 75.3173 16.2021 75.0323C16.7071 74.7423 17.1896 74.5973 17.6496 74.5973ZM24.177 74.5973C24.707 74.5973 25.1745 74.7248 25.5795 74.9798C25.9895 75.2348 26.307 75.5873 26.532 76.0373C26.757 76.4873 26.8695 76.9973 26.8695 77.5673C26.8695 78.1523 26.6995 78.6923 26.3595 79.1873C26.0195 79.6823 25.597 80.0748 25.092 80.3648C24.587 80.6498 24.1045 80.7923 23.6445 80.7923C23.1145 80.7923 22.6445 80.6673 22.2345 80.4173C21.8295 80.1623 21.5145 79.8098 21.2895 79.3598C21.0645 78.9098 20.952 78.3998 20.952 77.8298C20.952 77.2448 21.122 76.7048 21.462 76.2098C21.802 75.7098 22.2245 75.3173 22.7295 75.0323C23.2345 74.7423 23.717 74.5973 24.177 74.5973ZM23.742 75.2273C23.412 75.2273 23.1095 75.3248 22.8345 75.5198C22.5645 75.7098 22.352 75.9773 22.197 76.3223C22.042 76.6623 21.9645 77.0448 21.9645 77.4698C21.9645 77.9598 22.042 78.4098 22.197 78.8198C22.352 79.2248 22.587 79.5498 22.902 79.7948C23.222 80.0398 23.6145 80.1623 24.0795 80.1623C24.4095 80.1623 24.7095 80.0673 24.9795 79.8773C25.2545 79.6823 25.4695 79.4148 25.6245 79.0748C25.7795 78.7298 25.857 78.3448 25.857 77.9198C25.857 77.4248 25.7795 76.9748 25.6245 76.5698C25.4695 76.1598 25.2345 75.8348 24.9195 75.5948C24.6045 75.3498 24.212 75.2273 23.742 75.2273ZM31.5173 74.5973C32.0473 74.5973 32.5148 74.7248 32.9198 74.9798C33.3298 75.2348 33.6473 75.5873 33.8723 76.0373C34.0973 76.4873 34.2098 76.9973 34.2098 77.5673C34.2098 78.1523 34.0398 78.6923 33.6998 79.1873C33.3598 79.6823 32.9373 80.0748 32.4323 80.3648C31.9273 80.6498 31.4448 80.7923 30.9848 80.7923C30.4548 80.7923 29.9848 80.6673 29.5748 80.4173C29.1698 80.1623 28.8548 79.8098 28.6298 79.3598C28.4048 78.9098 28.2923 78.3998 28.2923 77.8298C28.2923 77.2448 28.4623 76.7048 28.8023 76.2098C29.1423 75.7098 29.5648 75.3173 30.0698 75.0323C30.5748 74.7423 31.0573 74.5973 31.5173 74.5973ZM31.0823 75.2273C30.7523 75.2273 30.4498 75.3248 30.1748 75.5198C29.9048 75.7098 29.6923 75.9773 29.5373 76.3223C29.3823 76.6623 29.3048 77.0448 29.3048 77.4698C29.3048 77.9598 29.3823 78.4098 29.5373 78.8198C29.6923 79.2248 29.9273 79.5498 30.2423 79.7948C30.5623 80.0398 30.9548 80.1623 31.4198 80.1623C31.7498 80.1623 32.0498 80.0673 32.3198 79.8773C32.5948 79.6823 32.8098 79.4148 32.9648 79.0748C33.1198 78.7298 33.1973 78.3448 33.1973 77.9198C33.1973 77.4248 33.1198 76.9748 32.9648 76.5698C32.8098 76.1598 32.5748 75.8348 32.2598 75.5948C31.9448 75.3498 31.5523 75.2273 31.0823 75.2273ZM37.9876 80.3423L37.8376 80.6423H35.5576V80.4098L36.2626 79.8548V75.3098L35.4826 75.0473L35.6326 74.7473H37.9126V74.9798L37.2001 75.5348V80.0723L37.9876 80.3423ZM41.3101 80.6423H39.9526L37.6276 77.6873L39.9301 75.6773L39.0601 75.0473L39.2101 74.7473H41.2276V74.9798L38.5276 77.3348L40.5901 79.9148L41.4601 80.3423L41.3101 80.6423ZM45.2203 77.7698C45.5603 77.7698 45.8278 77.6773 46.0228 77.4923C46.2228 77.3073 46.3228 77.0523 46.3228 76.7273C46.3228 76.2673 46.2053 75.8923 45.9703 75.6023C45.7403 75.3073 45.4028 75.1598 44.9578 75.1598C44.6178 75.1598 44.3078 75.2573 44.0278 75.4523V80.0273L45.1903 80.3498L45.0403 80.6498H42.3853V80.4173L43.0903 79.8623V75.3023L42.3103 75.0473L42.4603 74.7473H43.3303C43.8153 74.7473 44.2928 74.7323 44.7628 74.7023C45.1128 74.6823 45.3703 74.6723 45.5353 74.6723C45.8853 74.6723 46.1953 74.7473 46.4653 74.8973C46.7403 75.0423 46.9528 75.2448 47.1028 75.5048C47.2528 75.7648 47.3278 76.0523 47.3278 76.3673C47.3278 76.7173 47.2003 77.0473 46.9453 77.3573C46.6903 77.6673 46.3653 77.9098 45.9703 78.0848C45.5753 78.2598 45.1878 78.3373 44.8078 78.3173L44.4553 78.0623L44.6053 77.7623H45.2128L45.2203 77.7698ZM53.7023 80.6423H51.4223V80.4098L52.1273 79.8623L51.5498 78.4748H49.0298L48.4148 79.8923L49.7348 80.3423L49.5848 80.6423H47.3048V80.4098L48.0098 79.8548L50.1323 74.9873L50.9123 74.6048L53.1023 79.8848L53.8523 80.3423L53.7023 80.6423ZM50.3198 75.5048L49.1798 78.1373H51.4148L50.3198 75.5048ZM57.9932 79.3148C57.9932 79.1598 57.9307 79.0148 57.8057 78.8798C57.6807 78.7448 57.5232 78.6223 57.3332 78.5123C57.1482 78.3973 56.8957 78.2573 56.5757 78.0923C56.1957 77.8923 55.8907 77.7223 55.6607 77.5823C55.4307 77.4373 55.2332 77.2673 55.0682 77.0723C54.9082 76.8773 54.8282 76.6623 54.8282 76.4273C54.8282 76.1773 54.9332 75.9098 55.1432 75.6248C55.3532 75.3348 55.6082 75.0923 55.9082 74.8973C56.2132 74.6973 56.4932 74.5973 56.7482 74.5973C57.0582 74.5973 57.4182 74.6348 57.8282 74.7098C58.2382 74.7848 58.5382 74.8648 58.7282 74.9498V76.4048H58.4432C58.1982 75.9998 57.9282 75.6848 57.6332 75.4598C57.3432 75.2348 57.0382 75.1223 56.7182 75.1223C56.4332 75.1223 56.2057 75.2123 56.0357 75.3923C55.8707 75.5673 55.7882 75.7973 55.7882 76.0823C55.7882 76.2473 55.8507 76.4023 55.9757 76.5473C56.1057 76.6873 56.2632 76.8123 56.4482 76.9223C56.6382 77.0323 56.9007 77.1748 57.2357 77.3498C57.6057 77.5348 57.9057 77.6998 58.1357 77.8448C58.3657 77.9848 58.5582 78.1498 58.7132 78.3398C58.8732 78.5248 58.9532 78.7348 58.9532 78.9698C58.9532 79.2198 58.8407 79.4898 58.6157 79.7798C58.3907 80.0648 58.1157 80.3073 57.7907 80.5073C57.4707 80.7023 57.1782 80.7998 56.9132 80.7998C56.5882 80.7998 56.2007 80.7623 55.7507 80.6873C55.3057 80.6123 54.9857 80.5323 54.7907 80.4473V78.9923H55.0757C55.3307 79.3973 55.6207 79.7123 55.9457 79.9373C56.2707 80.1623 56.6057 80.2748 56.9507 80.2748C57.1557 80.2748 57.3382 80.2298 57.4982 80.1398C57.6582 80.0498 57.7807 79.9323 57.8657 79.7873C57.9507 79.6373 57.9932 79.4798 57.9932 79.3148ZM63.6197 79.3148C63.6197 79.1598 63.5572 79.0148 63.4322 78.8798C63.3072 78.7448 63.1497 78.6223 62.9597 78.5123C62.7747 78.3973 62.5222 78.2573 62.2022 78.0923C61.8222 77.8923 61.5172 77.7223 61.2872 77.5823C61.0572 77.4373 60.8597 77.2673 60.6947 77.0723C60.5347 76.8773 60.4547 76.6623 60.4547 76.4273C60.4547 76.1773 60.5597 75.9098 60.7697 75.6248C60.9797 75.3348 61.2347 75.0923 61.5347 74.8973C61.8397 74.6973 62.1197 74.5973 62.3747 74.5973C62.6847 74.5973 63.0447 74.6348 63.4547 74.7098C63.8647 74.7848 64.1647 74.8648 64.3547 74.9498V76.4048H64.0697C63.8247 75.9998 63.5547 75.6848 63.2597 75.4598C62.9697 75.2348 62.6647 75.1223 62.3447 75.1223C62.0597 75.1223 61.8322 75.2123 61.6622 75.3923C61.4972 75.5673 61.4147 75.7973 61.4147 76.0823C61.4147 76.2473 61.4772 76.4023 61.6022 76.5473C61.7322 76.6873 61.8897 76.8123 62.0747 76.9223C62.2647 77.0323 62.5272 77.1748 62.8622 77.3498C63.2322 77.5348 63.5322 77.6998 63.7622 77.8448C63.9922 77.9848 64.1847 78.1498 64.3397 78.3398C64.4997 78.5248 64.5797 78.7348 64.5797 78.9698C64.5797 79.2198 64.4672 79.4898 64.2422 79.7798C64.0172 80.0648 63.7422 80.3073 63.4172 80.5073C63.0972 80.7023 62.8047 80.7998 62.5397 80.7998C62.2147 80.7998 61.8272 80.7623 61.3772 80.6873C60.9322 80.6123 60.6122 80.5323 60.4172 80.4473V78.9923H60.7022C60.9572 79.3973 61.2472 79.7123 61.5722 79.9373C61.8972 80.1623 62.2322 80.2748 62.5772 80.2748C62.7822 80.2748 62.9647 80.2298 63.1247 80.1398C63.2847 80.0498 63.4072 79.9323 63.4922 79.7873C63.5772 79.6373 63.6197 79.4798 63.6197 79.3148Z" fill="#3A5779"/>
<path d="M76.8808 67.5709C76.8808 48.3064 76.8808 9.19102 76.8808 6.8455C76.8808 4.49998 75.7329 2.9564 75.1964 2.45817C73.9776 1.23943 71.2287 0.95557 69.9692 0.985614C49.1503 0.985614 6.81669 0.985614 4.0327 0.985614C1.24872 0.985614 0.63209 3.04948 0.671773 4.08142V45.8649V88.5428C0.680307 89.1157 0.827096 90.399 1.34598 90.9493C1.86486 91.4997 2.47482 91.6306 2.71493 91.6273H71.4535C72.5648 91.6152 74.4564 91.4179 75.9209 89.8732C76.5669 89.1918 76.947 87.9748 76.9675 86.8463" stroke="#1E3F66" stroke-linecap="round"/>
<rect x="55.0886" y="60.3582" width="7.57428" height="2.33053" transform="rotate(-43.9077 55.0886 60.3582)" fill="#5C728C"/>
<path d="M82.1744 76.9486C83.2557 77.982 83.2645 79.7068 82.1939 80.7513L80.4029 82.4984C79.3374 83.5377 77.6239 83.492 76.6148 82.3978L57.8502 62.0472L62.1705 57.8334L82.1744 76.9486ZM77.7779 76.5072C77.4062 76.139 76.8063 76.1413 76.438 76.5131C76.0699 76.8848 76.0732 77.4847 76.4449 77.8529L78.7183 80.1049L80.0513 78.7592L77.7779 76.5072Z" fill="#1E3F66"/>
<path d="M50.0281 46.594C52.726 43.8432 52.8546 36.8596 52.6121 33.7076C53.2335 34.7099 53.4951 35.7424 53.6545 36.7344C54.2279 40.3047 53.4972 43.4687 53.0217 44.9799C52.6297 46.4807 50.2422 50.5724 44.9735 52.6692C42.7106 53.5595 39.8343 53.1626 37.9689 52.2287C35.7792 51.1325 34.5714 49.4395 33.7115 47.9714C36.7268 50.7751 40.9249 50.6497 42.8205 50.4293C44.0989 50.297 47.3302 49.3448 50.0281 46.594Z" fill="#E9DED3"/>
<path d="M5.9526 67.1413L5.9526 85.4781M5.95256 6.12041L5.95256 63.2562" stroke="#1E3F66" stroke-width="0.5"/>
</svg>
