<svg width="48" height="48" viewBox="0 0 48 48" fill="none" xmlns="http://www.w3.org/2000/svg">
<mask id="path-1-inside-1_560_3423" fill="white">
<path d="M23.9895 4.63855C31.9489 4.63865 38.4016 10.9928 38.4016 18.8309C38.4016 21.448 37.6806 23.8989 36.426 26.0038H36.4963L36.0374 26.618C35.7645 27.0267 35.4716 27.421 35.1584 27.7987L23.8655 42.9589L12.8274 27.8075C12.4437 27.3454 12.0888 26.8594 11.7659 26.3514L11.5129 26.0038H11.552C10.2975 23.8989 9.5774 21.4479 9.57739 18.8309C9.57739 10.9927 16.03 4.63855 23.9895 4.63855Z"/>
</mask>
<path d="M23.9895 4.63855L23.9895 1.63855H23.9895V4.63855ZM38.4016 18.8309L41.4016 18.8309V18.8309H38.4016ZM36.426 26.0038L33.849 24.4678L31.1455 29.0038H36.426V26.0038ZM36.4963 26.0038L38.8995 27.7995L42.483 23.0038H36.4963V26.0038ZM36.0374 26.618L33.6341 24.8223L33.5866 24.8859L33.5426 24.9519L36.0374 26.618ZM35.1584 27.7987L32.8488 25.8841L32.7991 25.9441L32.7526 26.0066L35.1584 27.7987ZM23.8655 42.9589L21.4407 44.7254L23.8386 48.0168L26.2713 44.751L23.8655 42.9589ZM12.8274 27.8075L15.2522 26.041L15.1962 25.9642L15.1355 25.8911L12.8274 27.8075ZM11.7659 26.3514L14.2975 24.7419L14.2471 24.6625L14.1918 24.5865L11.7659 26.3514ZM11.5129 26.0038V23.0038H5.62041L9.08703 27.7687L11.5129 26.0038ZM11.552 26.0038V29.0038H16.8324L14.129 24.4679L11.552 26.0038ZM9.57739 18.8309H6.57739V18.8309L9.57739 18.8309ZM23.9895 4.63855L23.9895 7.63855C30.3357 7.63863 35.4016 12.693 35.4016 18.8309H38.4016H41.4016C41.4016 9.29259 33.5621 1.63867 23.9895 1.63855L23.9895 4.63855ZM38.4016 18.8309L35.4016 18.8309C35.4016 20.8889 34.8363 22.8114 33.849 24.4678L36.426 26.0038L39.003 27.5397C40.5249 24.9863 41.4016 22.0071 41.4016 18.8309L38.4016 18.8309ZM36.426 26.0038V29.0038H36.4963V26.0038V23.0038H36.426V26.0038ZM36.4963 26.0038L34.0931 24.2081L33.6341 24.8223L36.0374 26.618L38.4406 28.4138L38.8995 27.7995L36.4963 26.0038ZM36.0374 26.618L33.5426 24.9519C33.3252 25.2774 33.0939 25.5885 32.8488 25.8841L35.1584 27.7987L37.4681 29.7133C37.8493 29.2535 38.2037 28.776 38.5321 28.2842L36.0374 26.618ZM35.1584 27.7987L32.7526 26.0066L21.4596 41.1667L23.8655 42.9589L26.2713 44.751L37.5643 29.5909L35.1584 27.7987ZM23.8655 42.9589L26.2902 41.1924L15.2522 26.041L12.8274 27.8075L10.4026 29.574L21.4407 44.7254L23.8655 42.9589ZM12.8274 27.8075L15.1355 25.8911C14.8314 25.5248 14.5514 25.1411 14.2975 24.7419L11.7659 26.3514L9.23422 27.961C9.62623 28.5776 10.056 29.166 10.5193 29.7239L12.8274 27.8075ZM11.7659 26.3514L14.1918 24.5865L13.9389 24.2389L11.5129 26.0038L9.08703 27.7687L9.33996 28.1164L11.7659 26.3514ZM11.5129 26.0038V29.0038H11.552V26.0038V23.0038H11.5129V26.0038ZM11.552 26.0038L14.129 24.4679C13.1422 22.8122 12.5774 20.8896 12.5774 18.8309L9.57739 18.8309L6.57739 18.8309C6.5774 22.0062 7.45283 24.9857 8.97498 27.5397L11.552 26.0038ZM9.57739 18.8309H12.5774C12.5774 12.6929 17.6432 7.63855 23.9895 7.63855V4.63855V1.63855C14.4168 1.63855 6.57739 9.29257 6.57739 18.8309H9.57739Z" fill="#1E3F66" mask="url(#path-1-inside-1_560_3423)"/>
<circle cx="23.9894" cy="19.0431" r="5.52262" stroke="#1E3F66" stroke-width="3"/>
</svg>
