<svg width="48" height="48" viewBox="0 0 48 48" fill="none" xmlns="http://www.w3.org/2000/svg">
<path d="M8.69273 39.2729H7.02385L7.02385 39.2735L8.69273 39.2729ZM9.75523 40.3354L9.75418 42.0043H9.75523V40.3354ZM39.3744 39.2729L41.0433 39.2735V39.2729H39.3744ZM39.3744 19.7065V18.0376H37.7055V19.7065H39.3744ZM39.475 19.7065H41.1438V18.0376H39.475V19.7065ZM39.475 39.2729L41.1438 39.2735V39.2729H39.475ZM9.75523 40.436L9.75427 42.1049H9.75523V40.436ZM8.59312 39.2729H6.92424L6.92424 39.2735L8.59312 39.2729ZM8.59312 19.7065V18.0376H6.92424V19.7065H8.59312ZM8.69273 19.7065H10.3616V18.0376H8.69273V19.7065ZM23.2347 5.87448L22.1376 4.61694L22.137 4.61739L23.2347 5.87448ZM24.764 5.87448L25.8617 4.61742L25.8617 4.6174L24.764 5.87448ZM43.931 22.6118L45.2263 21.5594L45.1362 21.4486L45.0287 21.3547L43.931 22.6118ZM43.9437 22.6274L45.4503 21.9095L45.3646 21.7296L45.239 21.575L43.9437 22.6274ZM43.9359 22.6821L45.1889 23.7844L45.1955 23.777L45.202 23.7694L43.9359 22.6821ZM43.8832 22.6967L43.0727 24.1556L43.2237 24.2395L43.3886 24.2907L43.8832 22.6967ZM43.8656 22.687L42.7679 23.9441L42.9008 24.0601L43.0551 24.1458L43.8656 22.687ZM24.6976 5.94968L25.7953 4.69259L25.795 4.69231L24.6976 5.94968ZM23.3002 5.94968L22.203 4.69214L22.2024 4.69261L23.3002 5.94968ZM4.13316 22.687L4.94365 24.1458L5.09793 24.0601L5.23088 23.944L4.13316 22.687ZM4.11559 22.6967L4.63459 24.2829L4.78642 24.2332L4.92607 24.1556L4.11559 22.6967ZM4.06187 22.6821L2.80113 23.7756L2.80797 23.7834L4.06187 22.6821ZM4.06676 22.6118L2.96908 21.3547L2.96305 21.36L2.95708 21.3653L4.06676 22.6118ZM8.69273 39.2729L7.02385 39.2735C7.02439 40.7816 8.24735 42.0034 9.75418 42.0043L9.75523 40.3354L9.75628 38.6665C10.0903 38.6667 10.3615 38.9371 10.3616 39.2723L8.69273 39.2729ZM9.75523 40.3354V42.0043H38.3119V40.3354V38.6665H9.75523V40.3354ZM38.3119 40.3354V42.0043C39.8209 42.0043 41.0427 40.7808 41.0433 39.2735L39.3744 39.2729L37.7055 39.2723C37.7056 38.9384 37.9763 38.6665 38.3119 38.6665V40.3354ZM39.3744 39.2729H41.0433V19.7065H39.3744H37.7055V39.2729H39.3744ZM39.3744 19.7065V21.3754H39.475V19.7065V18.0376H39.3744V19.7065ZM39.475 19.7065H37.8061V39.2729H39.475H41.1438V19.7065H39.475ZM39.475 39.2729L37.8061 39.2724C37.8062 38.9935 38.0316 38.7671 38.3119 38.7671V40.436V42.1049C39.8761 42.1049 41.1433 40.8361 41.1438 39.2735L39.475 39.2729ZM38.3119 40.436V38.7671H9.75523V40.436V42.1049H38.3119V40.436ZM9.75523 40.436L9.75619 38.7671C10.0369 38.7673 10.2619 38.9942 10.262 39.2724L8.59312 39.2729L6.92424 39.2735C6.92475 40.835 8.19027 42.104 9.75427 42.1049L9.75523 40.436ZM8.59312 39.2729H10.262V19.7065H8.59312H6.92424V39.2729H8.59312ZM8.59312 19.7065V21.3754H8.69273V19.7065V18.0376H8.59312V19.7065ZM8.69273 19.7065H7.02385V39.2729H8.69273H10.3616V19.7065H8.69273ZM23.2347 5.87448L24.3319 7.13202C24.1418 7.29788 23.8577 7.29867 23.6663 7.13156L24.764 5.87448L25.8617 4.6174C24.7945 3.68551 23.2037 3.68673 22.1376 4.61694L23.2347 5.87448ZM24.764 5.87448L23.6663 7.13154L42.8333 23.8688L43.931 22.6118L45.0287 21.3547L25.8617 4.61742L24.764 5.87448ZM43.931 22.6118L42.6358 23.6642L42.6485 23.6798L43.9437 22.6274L45.239 21.575L45.2263 21.5594L43.931 22.6118ZM43.9437 22.6274L42.4371 23.3453C42.1554 22.7541 42.2617 22.0701 42.6698 21.5948L43.9359 22.6821L45.202 23.7694C45.6367 23.2632 45.7485 22.5354 45.4503 21.9095L43.9437 22.6274ZM43.9359 22.6821L42.6829 21.5798C43.1272 21.0747 43.8016 20.9241 44.3777 21.1028L43.8832 22.6967L43.3886 24.2907C44.0013 24.4807 44.7177 24.32 45.1889 23.7844L43.9359 22.6821ZM43.8832 22.6967L44.6936 21.2379L44.6761 21.2281L43.8656 22.687L43.0551 24.1458L43.0727 24.1556L43.8832 22.6967ZM43.8656 22.687L44.9633 21.4299L25.7953 4.69259L24.6976 5.94968L23.5999 7.20677L42.7679 23.9441L43.8656 22.687ZM24.6976 5.94968L25.795 4.69231C24.7659 3.79415 23.2317 3.79459 22.203 4.69214L23.3002 5.94968L24.3973 7.20721C24.1692 7.40628 23.8289 7.40657 23.6003 7.20704L24.6976 5.94968ZM23.3002 5.94968L22.2024 4.69261L3.03545 21.4299L4.13316 22.687L5.23088 23.944L24.3979 7.20674L23.3002 5.94968ZM4.13316 22.687L3.32268 21.2281L3.3051 21.2379L4.11559 22.6967L4.92607 24.1556L4.94365 24.1458L4.13316 22.687ZM4.11559 22.6967L3.59658 21.1106C4.18855 20.9169 4.87202 21.0755 5.31578 21.5808L4.06187 22.6821L2.80797 23.7834C3.27895 24.3197 4.00572 24.4887 4.63459 24.2829L4.11559 22.6967ZM4.06187 22.6821L5.32259 21.5886C5.91739 22.2743 5.82175 23.2838 5.17643 23.8583L4.06676 22.6118L2.95708 21.3653C2.27093 21.9761 2.17048 23.0485 2.80116 23.7756L4.06187 22.6821ZM4.06676 22.6118L5.16444 23.8689L24.3324 7.13157L23.2347 5.87448L22.137 4.61739L2.96908 21.3547L4.06676 22.6118Z" fill="white"/>
<rect x="17.7897" y="27.0868" width="11.7643" height="13.3974" rx="1.11259" stroke="white" stroke-width="3.33777"/>
</svg>
