<svg width="163" height="64" viewBox="0 0 163 64" fill="none" xmlns="http://www.w3.org/2000/svg">
<path d="M44.3785 44.0844C44.3785 41.3534 44.3785 37.234 44.3785 33.578M44.4253 54.4745C44.4142 55.0828 44.2093 55.7388 43.8611 56.1061C43.0717 56.9387 42.052 57.0451 41.453 57.0516H4.40049C4.27106 57.0534 3.94227 56.9828 3.66257 56.6862C3.38288 56.3895 3.30375 55.6978 3.29915 55.389V32.3841V9.86131C3.27776 9.30506 3.61015 8.19256 5.11081 8.19256C6.61148 8.19256 29.4308 8.19256 40.6529 8.19256C41.3318 8.17637 42.8136 8.32938 43.4705 8.98633C43.7598 9.25489 44.3785 10.0869 44.3785 11.3512C44.3785 11.5273 44.3785 27.159 44.3785 28.0213" stroke="#1E3F66" stroke-width="0.539035" stroke-linecap="round"/>
<rect x="37.5932" y="29.552" width="13.4759" height="2.69518" fill="#1E3F66"/>
<path d="M69.9542 20.4726C71.6227 20.3582 73.0689 21.7069 73.0761 23.3837L73.1457 40.0336C73.1526 41.6742 71.7763 42.9433 70.1388 42.806L54.1782 41.4661C52.6739 41.3397 51.4957 40.0645 51.4896 38.5574L51.434 24.3419C51.4282 22.8703 52.5441 21.6671 54.0085 21.5666L69.9542 20.4726ZM69.4374 36.011C69.4362 35.6919 69.1723 35.4283 68.8532 35.427L55.6464 35.3704C55.3365 35.3691 55.0887 35.6155 55.0895 35.9254L55.0933 37.1625C55.0944 37.4728 55.3444 37.7324 55.6547 37.7461L68.863 38.3306C69.1819 38.3447 69.4431 38.0941 69.4422 37.7752L69.4374 36.011ZM69.4211 30.6664C69.4201 30.3471 69.157 30.0832 68.8378 30.0819L55.6305 30.0245C55.3206 30.0232 55.0733 30.2704 55.0741 30.5803L55.0779 31.8174C55.0788 32.1276 55.3277 32.3867 55.6379 32.4006L68.8471 32.9847C69.1659 32.9988 69.4276 32.7489 69.4267 32.4301L69.4211 30.6664ZM69.4051 25.3204C69.4042 25.0012 69.1415 24.7381 68.8223 24.7367L55.6147 24.6807C55.3048 24.6795 55.0582 24.9261 55.0591 25.236L55.0624 26.4723C55.0633 26.7827 55.3126 27.0427 55.623 27.0564L68.8316 27.6396C69.1505 27.6536 69.4117 27.403 69.4108 27.0841L69.4051 25.3204Z" fill="#5C728C"/>
<path d="M2.47226 8.54575C2.47226 7.95035 2.95493 7.46768 3.55033 7.46768H40.8031C42.2916 7.46768 43.4983 8.67435 43.4983 10.1629V53.6087C43.4983 55.0972 42.2916 56.3039 40.8031 56.3039H3.55033C2.95493 56.3039 2.47226 55.8212 2.47226 55.2258V8.54575Z" fill="#FFDA7C"/>
<path d="M43.4584 43.3354C43.4584 32.9511 43.4584 11.8666 43.4584 10.6023C43.4584 9.33794 42.8397 8.5059 42.5505 8.23733C41.8936 7.58039 40.4118 7.42738 39.7329 7.44357C28.5108 7.44357 5.69145 7.44357 4.19078 7.44357C2.69012 7.44357 2.35773 8.55607 2.37912 9.11232V31.6351V54.64C2.38372 54.9488 2.46285 55.6405 2.74254 55.9372C3.02224 56.2338 3.35103 56.3044 3.48046 56.3026H40.5329C41.132 56.2961 42.1517 56.1898 42.941 55.3571C43.2893 54.9898 43.4942 54.3338 43.5052 53.7255" stroke="#1E3F66" stroke-width="0.539035" stroke-linecap="round"/>
<circle cx="24.6424" cy="29.6678" r="13.8414" fill="#51667E" stroke="#1E3F66" stroke-width="3.19159"/>
<circle cx="24.6424" cy="29.6678" r="15.2776" stroke="#5C728C" stroke-width="0.319159"/>
<path d="M15.8191 29.4516C15.2844 26.3891 17.0952 23.2942 18.0674 22.7676C21.8956 19.4255 29.1873 22.2814 31.2533 24.0436C32.5672 25.1643 33.5624 27.2034 33.5624 29.4516C33.5624 31.2746 33.5624 34.9204 29.6734 37.1687C25.7845 39.417 22.8678 37.2295 21.531 35.042C20.1942 32.8545 16.4876 33.2798 15.8191 29.4516Z" fill="#F7F2EA"/>
<ellipse cx="26.8012" cy="29.2557" rx="4.29607" ry="4.33355" fill="#FFD670"/>
<rect x="34.4182" y="42.4799" width="4.57378" height="1.40731" transform="rotate(-43.9077 34.4182 42.4799)" fill="#5C728C"/>
<path d="M50.7743 52.4983C51.427 53.1223 51.4323 54.1635 50.786 54.7942L49.704 55.8489C49.0605 56.4766 48.0262 56.4492 47.4169 55.7884L36.0858 43.5003L38.6942 40.9554L50.7743 52.4983ZM48.12 52.2317C47.8955 52.0093 47.5328 52.0112 47.3104 52.2356C47.0883 52.4601 47.0899 52.8219 47.3143 53.0442L48.6874 54.4046L49.4921 53.5911L48.12 52.2317Z" fill="#1E3F66"/>
<path d="M31.3624 34.1684C32.9915 32.5073 33.0692 28.2902 32.9228 26.3868C33.298 26.9921 33.456 27.6155 33.5522 28.2146C33.8985 30.3705 33.4572 32.2811 33.1701 33.1937C32.9334 34.1 31.4917 36.5708 28.3102 37.8369C26.9437 38.3745 25.2068 38.1349 24.0803 37.5709C22.7581 36.909 22.0288 35.8866 21.5095 35.0001C23.3303 36.6931 25.8654 36.6174 27.01 36.4843C27.782 36.4045 29.7332 35.8295 31.3624 34.1684Z" fill="#E9DED3"/>
<path d="M5.22566 43.1039L5.22566 52.9881M5.22563 10.2115L5.22563 41.0097" stroke="#1E3F66" stroke-width="0.269518"/>
<path d="M58.2346 18.1859C57.5498 18.1111 56.9272 18.4722 56.8525 18.9703L56.7404 19.5057C56.6284 20.0287 56.4914 20.5517 56.3544 21.0747C56.2175 21.5976 56.2175 21.5976 56.2175 21.5976C56.0556 22.0957 56.4665 22.6062 57.1389 22.7307L57.2385 22.7432C57.9109 22.8677 58.6954 22.4692 58.9942 21.8467C58.9942 21.8467 59.0689 21.6848 59.4051 20.8754C59.7413 20.0785 59.9156 19.5929 59.9156 19.5929C60.1522 18.9454 59.7911 18.3602 59.1063 18.2855L58.2346 18.1859Z" fill="#1E3F66"/>
<path d="M97.5767 20.2578C98.3885 19.2837 99.1242 19.6321 99.3905 19.928C100.378 20.5994 99.8447 21.4725 99.4542 21.8251C98.8067 22.5065 97.2683 23.7605 96.5801 24.3023C93.7697 26.4829 85.202 30.8063 83.5769 31.6469C81.9518 32.4874 80.803 32.6275 80.2426 32.6275C79.6823 32.6275 78.1132 31.927 77.833 31.1705C77.6088 30.5653 78.1692 30.1712 78.4774 30.0498C78.8809 29.9825 83.2679 28.4012 85.411 27.6189C86.5341 27.224 89.5103 25.8487 90.858 25.2104C91.4138 24.8864 92.67 24.1405 93.2487 23.749C93.8273 23.3576 95.3761 22.1866 96.0781 21.65C96.3504 21.4514 97.1907 20.6392 97.5767 20.2578Z" fill="#1E3F66"/>
<path d="M87.6219 28.7589H96.5467C98.8256 28.7589 99.497 30.3832 99.5477 31.1954C99.6995 35.9162 96.3448 37.2999 94.6483 37.4015H88.6473C84.1808 37.4015 83.4692 33.2642 83.6717 31.1954C83.6717 29.1242 86.3052 28.7081 87.6219 28.7589ZM87.91 33.6339C87.2686 33.6339 87.0584 33.9687 87.0584 34.3634C87.0584 34.7582 87.2686 35.0929 87.91 35.0929H95.2918C95.9332 35.0929 96.1346 34.7582 96.1346 34.3634C96.1345 33.9687 95.9332 33.6339 95.2918 33.6339H87.91ZM87.91 30.5236C87.2686 30.5236 87.0584 30.8583 87.0584 31.2531C87.0584 31.6478 87.2686 31.9825 87.91 31.9825H95.2918C95.9332 31.9825 96.1346 31.6478 96.1346 31.2531C96.1346 30.8583 95.9332 30.5236 95.2918 30.5236H87.91Z" fill="#1E3F66"/>
<path d="M79.3366 26.0202C79.3366 25.3727 79.8969 24.8498 80.5818 24.8498H101.289C101.974 24.8498 102.534 25.3727 102.534 26.0202C102.534 26.6677 101.974 27.1907 101.289 27.1907H80.5818C79.8969 27.1907 79.3366 26.6677 79.3366 26.0202ZM81.6526 21.9112C81.6526 21.2886 82.2129 20.7656 82.8978 20.7656H94.9012C95.5861 20.7656 96.1464 21.2761 96.1464 21.9112C96.1464 22.5462 95.5861 23.0567 94.9012 23.0567H82.8978C82.2129 23.0567 81.6526 22.5462 81.6526 21.9112ZM87.8038 20.3049C87.8038 19.62 88.3641 19.0597 89.0489 19.0597H89.3851C90.07 19.0597 90.6303 19.62 90.6303 20.3049V24.8498C90.6303 25.5346 90.07 26.0949 89.3851 26.0949H89.0489C88.3641 26.0949 87.8038 25.5346 87.8038 24.8498V20.3049Z" fill="#1E3F66"/>
<path d="M81.553 38.6587C81.8767 38.0485 82.6737 37.7123 83.3336 37.8867L83.5577 37.9489C84.2177 38.1357 84.5041 38.7832 84.1928 39.3933C84.1928 39.3933 83.8441 40.0782 83.234 40.9747C82.6239 41.8712 82.1631 42.3319 82.1631 42.3319C81.69 42.8175 80.7934 42.967 80.1833 42.6681L79.8845 42.5187C79.2743 42.2074 79.1872 41.5848 79.6977 41.1241C79.6977 41.1241 80.0214 40.8377 80.6316 40.0283C81.2666 39.2065 81.553 38.6587 81.553 38.6587Z" fill="#1E3F66"/>
<path d="M86.6333 39.879C86.5337 39.2066 87.0068 38.5965 87.6917 38.5218L87.8162 38.5093C88.501 38.4471 89.161 38.9327 89.2979 39.6051C89.2979 39.6051 89.3478 39.8292 89.4598 40.6386C89.5719 41.4479 89.5719 41.4479 89.5719 41.4479C89.6217 42.1328 89.0987 42.7553 88.4139 42.8425L88.1026 42.8799C87.4177 42.967 86.845 42.469 86.8325 41.7841C86.8325 41.7841 86.8325 41.7841 86.7578 40.9498C86.6706 40.128 86.6333 39.879 86.6333 39.879Z" fill="#1E3F66"/>
<path d="M92.2366 39.7544C91.9875 39.1194 92.3237 38.4968 92.9961 38.3723L93.1455 38.3474C93.8179 38.2229 94.6024 38.6338 94.8763 39.2688C94.8763 39.2688 94.9884 39.5179 95.2748 40.3148C95.5612 41.1117 95.5736 41.1615 95.5736 41.1615C95.7479 41.8214 95.337 42.4814 94.6647 42.6183L94.3285 42.693C93.6561 42.83 92.9961 42.3942 92.8592 41.7218C92.8592 41.7218 92.8467 41.672 92.5977 40.8502C92.3486 40.0159 92.2366 39.7544 92.2366 39.7544Z" fill="#1E3F66"/>
<path d="M97.9145 39.5054C97.5036 38.9575 97.678 38.31 98.3255 38.061L98.4749 37.9987C99.1099 37.7497 99.994 37.9738 100.442 38.4968C100.442 38.4968 100.442 38.4968 100.866 39.0571C101.289 39.6175 101.687 40.1529 102.049 40.6759C102.41 41.1988 102.41 41.1988 102.41 41.1988C102.684 41.6844 102.385 42.2946 101.75 42.5561L101.401 42.693C100.766 42.9545 100.044 42.7677 99.7948 42.2697C99.7948 42.2697 99.7948 42.2697 99.4461 41.7218C99.0975 41.1739 98.7239 40.6261 98.3255 40.0533C97.927 39.5303 97.9145 39.5054 97.9145 39.5054Z" fill="#1E3F66"/>
<path d="M137.038 21.2138C137.038 20.529 137.598 19.9687 138.283 19.9687H157.982C158.666 19.9687 159.227 20.529 159.227 21.2138V42.0331C159.227 42.7179 158.666 43.2783 157.982 43.2783H157.745C157.06 43.2783 156.5 42.7179 156.5 42.0331V23.4925C156.5 22.8076 155.94 22.2473 155.255 22.2473H140.885C140.201 22.2473 139.64 22.8076 139.64 23.4925V42.0206C139.64 42.7055 139.08 43.2658 138.395 43.2658H138.283C137.598 43.2658 137.038 42.7055 137.038 42.0206V21.2138ZM138.681 41.1739C138.681 40.5389 139.242 40.0159 139.927 40.0159H156.637C157.322 40.0159 157.882 40.5389 157.882 41.1739C157.882 41.809 157.322 42.3319 156.637 42.3319H139.927C139.242 42.3319 138.681 41.809 138.681 41.1739ZM140.599 29.0086C140.599 28.5852 141.159 28.2241 141.844 28.2241H154.371C155.055 28.2241 155.616 28.5728 155.616 29.0086C155.616 29.432 155.055 29.7931 154.371 29.7931H141.844C141.159 29.7806 140.599 29.432 140.599 29.0086ZM141.981 31.9098C141.981 31.225 142.541 30.6647 143.226 30.6647H152.889C153.574 30.6647 154.134 31.225 154.134 31.9098V37.7622C154.134 38.447 153.574 39.0073 152.889 39.0073H143.226C142.541 39.0073 141.981 38.447 141.981 37.7622V31.9098ZM142.828 24.4637C142.828 23.7789 143.388 23.2186 144.073 23.2186H152.005C152.69 23.2186 153.25 23.7789 153.25 24.4637V26.1074C153.25 26.7922 152.69 27.3525 152.005 27.3525H144.073C143.388 27.3525 142.828 26.7922 142.828 26.1074V24.4637ZM145.356 32.2087C144.671 32.2087 144.11 32.769 144.11 33.4539V36.2057C144.11 36.8905 144.671 37.4509 145.356 37.4509H150.635C151.32 37.4509 151.88 36.8905 151.88 36.2057V33.4539C151.88 32.769 151.32 32.2087 150.635 32.2087H145.356ZM146.314 24.6381C145.629 24.6381 145.681 24.9244 145.681 25.2606C145.681 25.6093 145.629 25.8832 146.314 25.8832H149.664C150.349 25.8832 150.214 25.5968 150.214 25.2606C150.214 24.912 150.349 24.6381 149.664 24.6381H146.314ZM145.331 34.3255C145.331 33.6406 145.891 33.0803 146.576 33.0803H149.465C150.149 33.0803 150.71 33.6406 150.71 34.3255V35.3216C150.71 36.0065 150.149 36.5668 149.465 36.5668H146.576C145.891 36.5668 145.331 36.0065 145.331 35.3216V34.3255ZM146.788 27.6265C146.788 26.9416 147.323 26.3813 147.97 26.3813C148.618 26.3813 149.153 26.9416 149.153 27.6265V27.6763C149.153 28.3611 148.618 28.9214 147.97 28.9214C147.323 28.9214 146.788 28.3611 146.788 27.6763V27.6265ZM147.983 34.313C147.385 34.313 146.887 34.5496 146.887 34.836C146.887 35.1224 147.373 35.359 147.983 35.359C148.593 35.359 149.079 35.1224 149.079 34.836C149.079 34.5496 148.581 34.313 147.983 34.313Z" fill="#1E3F66"/>
<path d="M146.962 31.8974H147.012L151.943 32.0219L152.69 36.8781L150.075 37.9987L143.973 37.8742L143.6 33.7651L144.596 31.3993L146.962 31.8974Z" fill="#1E3F66"/>
<path d="M144.434 34.5246C144.658 33.7526 145.48 33.1923 146.451 32.8312C147.31 32.5199 148.207 32.3829 148.742 32.3829L148.954 32.3954C149.577 32.4576 150.311 32.8187 150.797 33.4413C151.22 33.9767 151.943 34.9106 151.32 36.1807L151.258 36.3052C150.897 36.9776 150.386 37.264 149.888 37.376C149.44 37.4632 148.954 37.4009 148.543 37.2764L148.369 37.2142C148.045 37.0897 147.721 37.0772 147.423 37.0897C147.273 37.1021 147.124 37.1146 146.987 37.127C146.85 37.1395 146.713 37.1644 146.576 37.1644C146.314 37.1893 146.065 37.1893 145.841 37.1395C145.642 37.0897 145.443 37.0025 145.231 36.8406L145.144 36.7659C144.745 36.4048 144.509 35.9316 144.409 35.4834C144.359 35.2592 144.335 35.06 144.347 34.8982C144.347 34.7736 144.372 34.6865 144.384 34.6367L144.397 34.5993L144.409 34.5744L144.434 34.5246Z" fill="white" stroke="#1E3F66" stroke-width="0.539035"/>
<path d="M148.817 35.8321C149.622 35.8321 150.274 35.1798 150.274 34.3752C150.274 33.5706 149.622 32.9184 148.817 32.9184C148.013 32.9184 147.36 33.5706 147.36 34.3752C147.36 35.1798 148.013 35.8321 148.817 35.8321Z" fill="#F3A712"/>
<path d="M111.176 24.5385H111.748C112.284 24.5385 112.72 24.9743 112.72 25.5097V28.1993C112.72 28.8841 112.707 30.0048 112.682 30.6896C112.682 30.6896 112.632 32.3581 112.471 33.9395C112.309 35.5209 111.96 37.1022 111.45 38.6961C111.039 39.9537 110.466 41.1615 109.719 42.3319C109.407 42.8176 108.748 42.9172 108.299 42.5685C108.249 42.5312 108.187 42.4938 108.137 42.444C108.038 42.3693 107.938 42.2946 107.839 42.2323C107.415 41.9335 107.303 41.3607 107.577 40.9249C108.262 39.8167 108.785 38.6836 109.146 37.5256C109.582 36.0936 109.868 34.6742 110.005 33.292C110.13 31.9099 110.167 30.6398 110.167 30.6398C110.179 29.955 110.204 28.8343 110.204 28.1495V25.5097C110.204 24.9743 110.64 24.5385 111.176 24.5385ZM107.652 24.4015C107.652 23.7166 108.212 23.1563 108.897 23.1563H116.642C117.327 23.1563 117.887 23.7166 117.887 24.4015V24.5136C117.887 25.1984 117.327 25.7587 116.642 25.7587H108.897C108.212 25.7587 107.652 25.1984 107.652 24.5136V24.4015ZM115.422 28.5106H116.928C117.202 28.5106 117.426 28.7347 117.426 29.0086V29.1954C117.426 29.3573 117.414 29.4942 117.401 29.6188C117.401 29.6312 117.401 29.6561 117.401 29.6686C117.352 31.748 117.289 33.5286 117.227 34.9854C117.165 36.4547 117.103 37.6501 117.028 38.5964C116.953 39.5428 116.866 40.2774 116.742 40.8004C116.617 41.3234 116.617 41.3234 116.617 41.3234C116.455 41.6596 116.106 42.195 115.833 42.5187C115.833 42.5187 115.833 42.5187 115.571 42.6557C115.31 42.7927 115.011 42.8923 114.662 42.967C114.351 43.0168 113.977 43.0417 113.529 43.0417C113.218 43.0417 112.894 43.0417 112.57 43.0293C112.334 43.0293 112.134 42.8549 112.097 42.6183C112.06 42.3693 111.997 42.0954 111.91 41.7965C111.898 41.7343 111.873 41.672 111.86 41.6098C111.711 41.1366 112.072 40.651 112.57 40.6759H112.595C112.931 40.6883 113.193 40.7008 113.392 40.7008C113.566 40.7008 113.703 40.6759 113.803 40.6261C113.903 40.5763 114.015 40.4642 114.114 40.3148C114.214 40.1529 114.313 39.8541 114.388 39.4058C114.463 38.9575 114.538 38.2976 114.612 37.426C114.687 36.5544 114.737 35.4337 114.799 34.064C114.849 32.6819 114.899 30.2538 114.899 30.2538C114.911 29.5689 114.924 29.0086 114.924 29.0086C114.936 28.7347 115.148 28.5106 115.422 28.5106ZM113.081 28.5106H115.795C116.492 28.5106 117.065 29.0833 117.065 29.7806C117.065 30.4779 116.492 31.0507 115.795 31.0507H113.081C112.383 31.0507 111.811 30.4779 111.811 29.7806C111.811 29.0833 112.383 28.5106 113.081 28.5106ZM120.564 20.2053C120.751 19.5453 121.448 19.1095 122.121 19.2465L122.382 19.2963C123.055 19.4208 123.441 20.0683 123.241 20.7282C123.241 20.7282 122.544 23.0443 121.76 24.6381C121.137 25.9081 120.452 27.0163 119.705 27.9627C119.406 28.3362 118.846 28.3985 118.472 28.0996L118.46 28.0872C118.186 27.8755 117.9 27.6638 117.626 27.4522C117.613 27.4522 117.613 27.4397 117.601 27.4397C117.252 27.1782 117.202 26.6677 117.489 26.344C118.186 25.5346 118.808 24.5883 119.344 23.4676C120.041 22.0481 120.564 20.2053 120.564 20.2053ZM129.006 25.9081L129.604 26.456C130.115 26.9167 129.965 27.7634 129.305 28.0125C128.708 28.2366 128.085 28.4483 127.438 28.6475C126.255 29.0086 125.034 29.3448 123.802 29.6312C122.855 29.8553 121.921 30.067 120.988 30.2413C120.539 30.3285 120.091 30.0795 119.942 29.6561C119.904 29.5565 119.867 29.4569 119.83 29.3573V29.3448C119.618 28.8094 119.929 28.2117 120.489 28.0872C121.224 27.9253 121.971 27.7385 122.731 27.5393C123.876 27.2405 124.947 26.9167 125.956 26.5681C126.728 26.3066 127.413 26.0327 128.01 25.7587C128.347 25.5969 128.733 25.6591 129.006 25.9081ZM120.875 23.5299C120.875 22.845 121.436 22.2847 122.121 22.2847H129.94C130.625 22.2847 131.185 22.845 131.185 23.5299V23.5548C131.185 24.2396 130.625 24.7999 129.94 24.7999H122.121C121.436 24.7999 120.875 24.2396 120.875 23.5548V23.5299ZM125.669 28.3238C126.055 28.274 126.404 28.5355 126.466 28.9215C126.703 30.4281 126.989 31.8725 127.35 33.2671C127.761 34.8734 128.322 36.2929 129.019 37.538C129.567 38.5217 130.214 39.356 130.974 40.0284C131.273 40.2899 131.298 40.7506 131.024 41.0494C130.986 41.0868 130.949 41.1366 130.912 41.1739C130.663 41.4479 130.438 41.7343 130.227 42.0331C130.189 42.0829 130.152 42.1327 130.127 42.1825C129.878 42.5312 129.38 42.5934 129.069 42.2946C128.185 41.4728 127.45 40.4766 126.84 39.3062C126.093 37.8742 125.495 36.2431 125.047 34.4251C124.648 32.8188 124.325 31.0881 124.076 29.2577C124.026 28.8717 124.3 28.5106 124.686 28.4607L125.669 28.3238ZM128.633 30.6522C129.044 30.1791 129.791 30.1542 130.301 30.6149L130.413 30.7145C130.924 31.1628 130.936 31.9223 130.438 32.383C130.438 32.383 129.903 32.8811 129.094 33.5535C128.284 34.2259 127.873 34.5372 127.873 34.5372C127.325 34.9481 126.516 34.9356 126.068 34.4998C125.62 34.064 125.657 33.3792 126.155 32.9932C126.155 32.9932 126.155 32.9932 126.653 32.5449C127.151 32.0966 127.649 31.6235 128.147 31.1379C128.633 30.6522 128.633 30.6522 128.633 30.6522Z" fill="#1E3F66"/>
<path d="M116.742 40.8253C116.742 40.8253 116.58 41.8588 116.455 42.1079C116.405 42.2199 116.243 42.3818 116.082 42.4814C115.87 42.6184 115.633 42.6931 115.26 42.7927" fill="#1E3F66"/>
<path d="M112.632 43.0293C112.632 43.0293 115.708 43.3032 116.393 42.2075C117.078 41.1117 117.24 34.8734 117.24 34.8734" fill="#1E3F66"/>
<path d="M120.029 42.1245C120.739 41.8576 120.061 42.3544 120.148 42.3793C120.235 42.4042 119.954 42.5312 119.991 42.4689C119.991 42.4689 119.991 42.4689 120.029 42.4191C120.191 42.1577 120.377 41.8962 120.614 41.6347C120.851 41.3732 121.087 41.1366 121.311 40.9125C121.548 40.6884 121.548 40.6883 121.548 40.6883C121.884 40.402 122.158 39.6051 122.158 38.9202V29.3324C122.158 28.6475 121.598 28.0872 120.913 28.0872H120.726C120.041 28.0872 119.481 28.6475 119.481 29.3324V37.3139C119.481 37.9988 119.481 38.6089 119.481 38.6836C119.481 38.7583 119.481 39.0547 119.481 39.1792C119.481 39.3037 119.481 40.1869 119.481 40.2616C119.481 40.2616 119.634 39.8457 119.621 39.9204C119.902 39.9702 119.778 39.9675 119.778 39.9675C119.766 40.0173 119.769 39.9938 119.732 40.2054C119.695 40.4171 119.63 41.1482 119.605 41.2976C119.581 41.447 119.657 41.5039 119.806 41.7156C119.806 41.7156 119.76 41.8598 119.885 42.0466C119.993 41.9736 120.029 42.1245 120.029 42.1245Z" fill="#1E3F66"/>
<path d="M130.824 39.8914C130.824 39.8914 131.895 40.6136 131.771 40.9872C131.646 41.3607 129.915 42.3569 129.915 42.3569L129.778 40.3646L130.824 39.8914Z" fill="#1E3F66"/>
<path d="M115 22.1988C114.302 22.644 112.54 23.5132 111.068 23.4302L110.526 21.8179C112.171 20.5615 113.603 20.3362 114.405 20.2759L115 22.1988ZM112.64 17.0201C113.09 16.842 114.083 16.6402 114.451 17.2574C114.456 17.2592 114.461 17.2613 114.466 17.2633C114.843 18.5602 114.407 19.5962 114.012 20.107C113.737 20.1455 113.472 20.1997 113.219 20.2652C113.818 19.1936 113.276 18.2047 112.918 17.8355C113.503 18.9406 113.233 19.9027 112.98 20.3316C112.519 20.4681 112.099 20.6416 111.722 20.8287C111.651 20.2609 111.4 19.1075 110.436 18.7183C110.854 19.0148 111.518 19.9404 111.494 20.9459C111.181 21.1125 110.901 21.2861 110.654 21.4498C109.729 21.202 109.128 20.4723 108.939 20.1256C109.103 20.8564 109.978 21.3549 110.498 21.5552C110.481 21.5664 110.465 21.5774 110.449 21.5884L110.445 21.5748C110.118 21.7034 109.364 21.9225 108.96 21.7681C108.557 21.6138 108.417 21.2391 108.397 21.0709C108.348 20.8038 108.373 20.1865 108.872 19.8541C108.832 19.3842 109.017 18.4235 110.074 18.3404C110.326 17.7024 111.192 16.5456 112.64 17.0201ZM114.598 17.3189C114.987 17.505 115.535 17.9432 115.43 18.6226C115.325 19.3065 114.807 19.8221 114.477 20.0582C114.409 20.0632 114.341 20.069 114.274 20.0758C114.948 19.0956 114.868 18.0717 114.598 17.3189Z" fill="#1E3F66"/>
<path d="M121.838 38.4286C121.84 38.4322 122.097 38.9292 122.435 39.3553C122.281 39.4421 122.12 39.5391 122.12 39.5663C122.12 39.6155 122.158 39.7896 122.255 39.7704C122.311 39.7589 122.477 39.6561 122.619 39.5653C122.668 39.6181 122.718 39.6678 122.769 39.7128C122.624 39.8374 122.45 39.9945 122.456 40.0243C122.466 40.0721 122.54 40.2349 122.631 40.1962C122.691 40.1698 122.866 40.0002 122.994 39.8739C123.092 39.9287 123.189 39.9611 123.284 39.9559C123.714 39.9321 124.058 39.9422 124.232 39.9501C124.082 40.281 123.919 40.7876 124.215 41.0975C124.112 40.8839 124.126 40.3553 124.35 39.955C124.352 39.9551 124.354 39.9559 124.354 39.9559C124.365 39.9437 125.044 39.179 126.089 39.5673C126.954 39.9025 126.96 40.5754 126.939 40.7938C126.544 40.9643 125.671 41.2629 124.548 41.58C125.365 41.4593 126.226 41.265 126.983 41.0087L127.061 41.2264C127.051 41.2358 126.77 41.5024 125.086 41.8856C123.372 42.2757 123.142 42.2196 123.142 42.2196L122.955 41.8378L122.842 42.285C122.805 42.297 120.564 43.008 120.109 42.8964L119.928 42.5272C120.65 42.4501 121.416 42.2993 122.126 42.1093C121.106 42.2458 120.269 42.3163 119.791 42.3319C119.566 41.9837 119.154 41.1908 119.456 40.41C119.48 40.2072 119.504 40.0299 119.523 39.8749C120.723 39.8631 121.634 39.3976 121.809 39.2225C120.949 39.5092 120.077 39.5377 119.573 39.4667C119.621 39.0789 119.639 38.9364 119.639 38.9364L121.838 38.4286Z" fill="#1E3F66"/>
</svg>
